<svg
  xmlns="http://www.w3.org/2000/svg"
  viewBox="-64 -64 128 128"
  id="bird"
  class="pin"
>
  <g class="drop">
    <path
      fill="#ffc107"
      transform="scale(0.25) translate(-192,-256)"
      d="M172.268 501.67C26.97 291.031 0 269.413 0 192 0 85.961 85.961 0 192 0s192 85.961 192 192c0 77.413-26.97 99.031-172.268 309.67-9.535 13.774-29.93 13.773-39.464 0z"
    />
      <path
        fill="#ffffff"
        transform="translate(0,-20) scale(0.1) translate(-320,-256)"
        d="M 800.00,178.57
           C 800.00,139.19 767.95,107.14 728.57,107.14
             695.77,107.14 668.35,129.49 660.00,159.67
             660.00,159.67 599.82,151.74 599.82,151.74
             599.84,151.15 600.00,150.59 600.00,150.00
             600.00,118.48 574.36,92.86 542.86,92.86
             511.35,92.86 485.71,118.48 485.71,150.00
             485.71,164.77 491.49,178.13 500.73,188.28
             500.73,188.28 475.86,250.44 475.86,250.44
             474.38,250.29 472.94,250.00 471.43,250.00
             447.79,250.00 428.57,269.22 428.57,292.85
             428.57,316.49 447.79,335.71 471.43,335.71
             495.06,335.71 514.28,316.49 514.28,292.85
             514.28,281.06 509.49,270.38 501.76,262.62
             501.76,262.62 525.19,204.06 525.19,204.06
             530.78,205.90 536.65,207.14 542.85,207.14
             563.54,207.14 581.54,195.98 591.56,179.46
             591.56,179.46 658.11,188.23 658.11,188.23
             661.99,216.46 682.24,239.28 709.09,246.95
             709.09,246.95 675.75,335.85 675.75,335.85
             625.86,337.36 585.71,378.32 585.71,428.57
             585.71,448.96 592.40,467.78 603.59,483.11
             603.59,483.11 540.42,533.65 540.42,533.65
             520.34,500.69 484.18,478.57 442.85,478.57
             384.79,478.57 336.81,522.13 329.61,578.26
             329.61,578.26 253.14,555.44 253.14,555.44
             255.72,546.92 257.14,537.91 257.14,528.57
             257.14,477.37 215.48,435.72 164.28,435.72
             152.69,435.72 141.63,437.95 131.39,441.85
             131.39,441.85 114.79,392.07 114.79,392.07
             131.73,379.00 142.85,358.72 142.85,335.72
             142.85,296.33 110.81,264.29 71.42,264.29
             32.04,264.29 0.00,296.33 0.00,335.72
             0.00,375.10 32.05,407.15 71.43,407.15
             77.49,407.15 83.28,406.16 88.90,404.73
             88.90,404.73 106.10,456.32 106.10,456.32
             84.98,473.36 71.43,499.40 71.43,528.58
             71.43,579.78 113.09,621.43 164.29,621.43
             195.83,621.43 223.71,605.59 240.50,581.48
             240.50,581.48 324.48,606.54 324.48,606.54
             325.85,606.95 327.23,607.14 328.58,607.14
             328.91,607.14 329.21,607.01 329.54,606.99
             336.53,663.35 384.63,707.14 442.86,707.14
             505.87,707.14 557.14,655.87 557.14,592.86
             557.14,581.66 555.45,570.87 552.44,560.64
             552.44,560.64 623.21,504.02 623.21,504.02
             623.44,503.84 623.54,503.56 623.76,503.36
             639.15,514.66 658.06,521.43 678.57,521.43
             729.77,521.43 771.43,479.77 771.43,428.57
             771.43,386.52 743.30,350.95 704.89,339.57
             704.89,339.57 738.86,248.96 738.86,248.96
             773.35,243.92 800.00,214.43 800.00,178.57 Z
           M 471.43,307.14
           C 463.55,307.14 457.14,300.74 457.14,292.86
             457.14,284.97 463.55,278.57 471.43,278.57
             479.30,278.57 485.71,284.97 485.71,292.86
             485.71,300.74 479.30,307.14 471.43,307.14 Z
           M 542.86,178.57
           C 527.10,178.57 514.29,165.75 514.29,150.00
             514.29,134.25 527.10,121.42 542.86,121.42
             558.61,121.42 571.43,134.25 571.43,150.00
             571.43,165.75 558.61,178.57 542.86,178.57 Z
           M 71.43,378.57
           C 47.80,378.57 28.57,359.35 28.57,335.72
             28.57,312.08 47.80,292.86 71.43,292.86
             95.06,292.86 114.29,312.08 114.29,335.72
             114.29,359.35 95.06,378.57 71.43,378.57 Z
           M 164.29,592.86
           C 128.84,592.86 100.00,564.02 100.00,528.57
             100.00,493.12 128.84,464.28 164.29,464.28
             199.74,464.28 228.57,493.12 228.57,528.57
             228.57,564.02 199.74,592.86 164.29,592.86 Z
           M 442.86,678.57
           C 395.59,678.57 357.14,640.12 357.14,592.86
             357.14,545.59 395.59,507.14 442.86,507.14
             490.12,507.14 528.57,545.59 528.57,592.86
             528.57,640.12 490.12,678.57 442.86,678.57 Z
           M 742.86,428.57
           C 742.86,464.02 714.02,492.86 678.57,492.86
             643.12,492.86 614.29,464.02 614.29,428.57
             614.29,393.12 643.12,364.28 678.57,364.28
             714.02,364.28 742.86,393.12 742.86,428.57 Z
           M 685.72,178.57
           C 685.72,154.94 704.94,135.71 728.57,135.71
             752.21,135.71 771.43,154.94 771.43,178.57
             771.43,202.20 752.21,221.43 728.57,221.43
             704.94,221.43 685.72,202.21 685.72,178.57 Z" />
  </g>
</svg>
