<svg
  xmlns="http://www.w3.org/2000/svg"
  viewBox="-64 -64 128 128"
  id="brain"
  class="pin"
>
  <g class="drop">
    <path
      fill="#e91e63"
      transform="scale(0.25) translate(-192,-256)"
      d="M172.268 501.67C26.97 291.031 0 269.413 0 192 0 85.961 85.961 0 192 0s192 85.961 192 192c0 77.413-26.97 99.031-172.268 309.67-9.535 13.774-29.93 13.773-39.464 0z"
    />
      <path
        fill="#ffffff"
        transform="translate(0,-20) scale(0.1) translate(-200,-256)"
        d="M 360.00,100.00
           C 360.00,100.00 335.00,100.00 335.00,100.00
             335.00,100.00 335.00,60.00 335.00,60.00
             335.00,54.48 330.52,50.00 325.00,50.00
             325.00,50.00 300.00,50.00 300.00,50.00
             300.00,50.00 300.00,10.00 300.00,10.00
             300.00,4.48 295.52,0.00 290.00,0.00
             290.00,0.00 200.00,0.00 200.00,0.00
             194.48,0.00 190.00,4.48 190.00,10.00
             190.00,10.00 190.00,50.00 190.00,50.00
             190.00,50.00 165.00,50.00 165.00,50.00
             159.48,50.00 155.00,54.48 155.00,60.00
             155.00,60.00 155.00,100.00 155.00,100.00
             155.00,100.00 130.00,100.00 130.00,100.00
             118.97,100.00 110.00,108.97 110.00,120.00
             110.00,120.00 110.00,470.00 110.00,470.00
             110.00,481.03 118.97,490.00 130.00,490.00
             130.00,490.00 360.00,490.00 360.00,490.00
             371.03,490.00 380.00,481.03 380.00,470.00
             380.00,470.00 380.00,120.00 380.00,120.00
             380.00,108.97 371.03,100.00 360.00,100.00 Z
           M 210.00,20.00
           C 210.00,20.00 280.00,20.00 280.00,20.00
             280.00,20.00 280.00,50.00 280.00,50.00
             280.00,50.00 210.00,50.00 210.00,50.00
             210.00,50.00 210.00,20.00 210.00,20.00 Z
           M 175.00,70.00
           C 175.00,70.00 315.00,70.00 315.00,70.00
             315.00,70.00 315.00,100.00 315.00,100.00
             315.00,100.00 175.00,100.00 175.00,100.00
             175.00,100.00 175.00,70.00 175.00,70.00 Z
           M 360.00,190.00
           C 360.00,190.00 295.00,190.00 295.00,190.00
             295.00,190.00 295.00,210.00 295.00,210.00
             295.00,210.00 360.00,210.00 360.00,210.00
             360.00,210.00 360.00,360.00 360.00,360.00
             360.00,360.00 295.00,360.00 295.00,360.00
             295.00,360.00 295.00,380.00 295.00,380.00
             295.00,380.00 360.00,380.00 360.00,380.00
             360.00,380.00 360.00,470.00 360.00,470.00
             360.00,470.00 130.00,470.00 130.00,470.00
             130.00,470.00 130.00,380.00 130.00,380.00
             130.00,380.00 195.00,380.00 195.00,380.00
             195.00,380.00 195.00,360.00 195.00,360.00
             195.00,360.00 130.00,360.00 130.00,360.00
             130.00,360.00 130.00,210.00 130.00,210.00
             130.00,210.00 195.00,210.00 195.00,210.00
             195.00,210.00 195.00,190.00 195.00,190.00
             195.00,190.00 130.00,190.00 130.00,190.00
             130.00,190.00 130.00,120.00 130.00,120.00
             130.00,120.00 360.00,120.00 360.00,120.00
             360.00,120.00 360.00,190.00 360.00,190.00 Z
           M 345.00,435.00
           C 345.00,435.00 345.00,455.00 345.00,455.00
             345.00,455.00 325.00,455.00 325.00,455.00
             325.00,455.00 325.00,435.00 325.00,435.00
             325.00,435.00 345.00,435.00 345.00,435.00 Z
           M 165.00,435.00
           C 165.00,435.00 165.00,455.00 165.00,455.00
             165.00,455.00 145.00,455.00 145.00,455.00
             145.00,455.00 145.00,435.00 145.00,435.00
             145.00,435.00 165.00,435.00 165.00,435.00 Z
           M 345.00,135.00
           C 345.00,135.00 345.00,155.00 345.00,155.00
             345.00,155.00 325.00,155.00 325.00,155.00
             325.00,155.00 325.00,135.00 325.00,135.00
             325.00,135.00 345.00,135.00 345.00,135.00 Z
           M 165.00,135.00
           C 165.00,135.00 165.00,155.00 165.00,155.00
             165.00,155.00 145.00,155.00 145.00,155.00
             145.00,155.00 145.00,135.00 145.00,135.00
             145.00,135.00 165.00,135.00 165.00,135.00 Z
           M 176.26,299.87
           C 178.03,303.03 181.37,305.00 185.00,305.00
             185.00,305.00 233.47,305.00 233.47,305.00
             233.47,305.00 220.10,398.59 220.10,398.59
             219.43,403.29 222.16,407.81 226.63,409.42
             227.74,409.81 228.87,410.00 230.00,410.00
             233.41,410.00 236.69,408.25 238.55,405.19
             238.55,405.19 323.55,265.19 323.55,265.19
             325.42,262.10 325.49,258.24 323.71,255.10
             321.94,251.95 318.61,250.00 315.00,250.00
             315.00,250.00 260.00,250.00 260.00,250.00
             260.00,250.00 260.00,190.00 260.00,190.00
             260.00,185.53 257.04,181.60 252.74,180.38
             248.44,179.16 243.85,180.94 241.50,184.74
             241.50,184.74 176.50,289.74 176.50,289.74
             174.59,292.82 174.50,296.70 176.26,299.87 Z
           M 240.00,225.15
           C 240.00,225.15 240.00,260.00 240.00,260.00
             240.00,265.52 244.48,270.00 250.00,270.00
             250.00,270.00 297.23,270.00 297.23,270.00
             297.23,270.00 246.81,353.05 246.81,353.05
             246.81,353.05 254.90,296.41 254.90,296.41
             255.31,293.54 254.45,290.64 252.56,288.45
             250.66,286.26 247.90,285.00 245.00,285.00
             245.00,285.00 202.95,285.00 202.95,285.00
             202.95,285.00 240.00,225.15 240.00,225.15 Z" />
  </g>
</svg>
