<svg
  xmlns="http://www.w3.org/2000/svg"
  viewBox="-64 -64 128 128"
  id="brain"
  class="pin"
>
  <g class="drop">
    <path
      fill="#e91e63"
      transform="scale(0.25) translate(-192,-256)"
      d="M172.268 501.67C26.97 291.031 0 269.413 0 192 0 85.961 85.961 0 192 0s192 85.961 192 192c0 77.413-26.97 99.031-172.268 309.67-9.535 13.774-29.93 13.773-39.464 0z"
    />
      <path
        fill="#ffffff"
        transform="translate(0,-20) scale(0.1) translate(-288,-256)"
        d="M 311.33,921.33
           C 311.33,921.33 372.00,921.33 372.00,921.33
             372.00,921.33 377.33,923.33 377.33,923.33
             377.33,923.33 382.00,928.67 382.00,928.67
             382.00,928.67 383.33,935.33 383.33,935.33
             383.33,935.33 381.33,941.33 381.33,941.33
             381.33,941.33 378.00,945.33 378.00,945.33
             378.00,945.33 373.33,947.33 373.33,947.33
             373.33,947.33 310.00,947.33 310.00,947.33
             310.00,947.33 305.33,944.67 305.33,944.67
             305.33,944.67 302.00,940.67 302.00,940.67
             302.00,940.67 300.67,937.33 300.67,937.33
             300.67,937.33 300.67,931.33 300.67,931.33
             300.67,931.33 303.33,926.00 303.33,926.00
             303.33,926.00 307.33,922.67 307.33,922.67
             307.33,922.67 311.33,921.33 311.33,921.33 Z
           M 442.67,149.33
           C 442.67,149.33 476.00,149.33 476.00,149.33
             476.00,149.33 476.67,150.00 476.67,150.00
             476.67,150.00 476.67,208.00 476.67,208.00
             476.67,208.00 476.00,208.67 476.00,208.67
             476.00,208.67 442.67,208.67 442.67,208.67
             442.67,208.67 442.00,208.00 442.00,208.00
             442.00,208.00 442.00,150.00 442.00,150.00
             442.00,150.00 442.67,149.33 442.67,149.33 Z
           M 804.00,149.33
           C 804.00,149.33 837.33,149.33 837.33,149.33
             837.33,149.33 838.00,150.00 838.00,150.00
             838.00,150.00 838.00,208.00 838.00,208.00
             838.00,208.00 837.33,208.67 837.33,208.67
             837.33,208.67 804.00,208.67 804.00,208.67
             804.00,208.67 803.33,208.00 803.33,208.00
             803.33,208.00 803.33,150.00 803.33,150.00
             803.33,150.00 804.00,149.33 804.00,149.33 Z
           M 935.33,893.33
           C 935.33,893.33 941.33,893.33 941.33,893.33
             941.33,893.33 946.67,896.00 946.67,896.00
             946.67,896.00 950.00,900.00 950.00,900.00
             950.00,900.00 951.33,904.00 951.33,904.00
             951.33,904.00 951.33,921.33 951.33,921.33
             951.33,921.33 968.67,921.33 968.67,921.33
             968.67,921.33 974.67,924.00 974.67,924.00
             974.67,924.00 978.00,928.00 978.00,928.00
             978.00,928.00 979.33,931.33 979.33,931.33
             979.33,931.33 979.33,937.33 979.33,937.33
             979.33,937.33 976.67,942.67 976.67,942.67
             976.67,942.67 972.00,946.67 972.00,946.67
             972.00,946.67 970.00,947.33 970.00,947.33
             970.00,947.33 951.33,947.33 951.33,947.33
             951.33,947.33 951.33,964.67 951.33,964.67
             951.33,964.67 949.33,970.00 949.33,970.00
             949.33,970.00 944.00,974.67 944.00,974.67
             944.00,974.67 938.00,976.00 938.00,976.00
             938.00,976.00 932.67,974.67 932.67,974.67
             932.67,974.67 928.67,972.00 928.67,972.00
             928.67,972.00 926.00,968.00 926.00,968.00
             926.00,968.00 925.33,966.00 925.33,966.00
             925.33,966.00 924.67,948.00 924.67,948.00
             924.67,948.00 906.67,947.33 906.67,947.33
             906.67,947.33 901.33,944.67 901.33,944.67
             901.33,944.67 898.67,941.33 898.67,941.33
             898.67,941.33 897.33,938.67 897.33,938.67
             897.33,938.67 896.67,934.00 896.67,934.00
             896.67,934.00 898.00,928.67 898.00,928.67
             898.00,928.67 902.67,923.33 902.67,923.33
             902.67,923.33 908.00,921.33 908.00,921.33
             908.00,921.33 925.33,921.33 925.33,921.33
             925.33,921.33 925.33,902.67 925.33,902.67
             925.33,902.67 927.33,898.67 927.33,898.67
             927.33,898.67 932.00,894.67 932.00,894.67
             932.00,894.67 935.33,893.33 935.33,893.33 Z
           M 752.67,936.00
           C 752.67,936.00 764.67,936.00 764.67,936.00
             764.67,936.00 772.67,938.67 772.67,938.67
             772.67,938.67 779.33,942.67 779.33,942.67
             779.33,942.67 786.00,949.33 786.00,949.33
             786.00,949.33 790.67,958.00 790.67,958.00
             790.67,958.00 792.00,963.33 792.00,963.33
             792.00,963.33 792.00,976.00 792.00,976.00
             792.00,976.00 789.33,984.00 789.33,984.00
             789.33,984.00 785.33,990.67 785.33,990.67
             785.33,990.67 779.33,996.67 779.33,996.67
             779.33,996.67 771.33,1001.33 771.33,1001.33
             771.33,1001.33 764.00,1003.33 764.00,1003.33
             764.00,1003.33 753.33,1003.33 753.33,1003.33
             753.33,1003.33 744.67,1000.67 744.67,1000.67
             744.67,1000.67 738.67,997.33 738.67,997.33
             738.67,997.33 732.00,991.33 732.00,991.33
             732.00,991.33 728.00,984.67 728.00,984.67
             728.00,984.67 725.33,978.00 725.33,978.00
             725.33,978.00 724.67,974.67 724.67,974.67
             724.67,974.67 724.67,964.67 724.67,964.67
             724.67,964.67 727.33,956.00 727.33,956.00
             727.33,956.00 730.67,950.00 730.67,950.00
             730.67,950.00 736.67,943.33 736.67,943.33
             736.67,943.33 744.00,938.67 744.00,938.67
             744.00,938.67 752.67,936.00 752.67,936.00 Z
           M 655.33,792.67
           C 655.33,792.67 668.67,792.67 668.67,792.67
             668.67,792.67 678.00,796.00 678.00,796.00
             678.00,796.00 686.00,802.00 686.00,802.00
             686.00,802.00 690.67,808.00 690.67,808.00
             690.67,808.00 694.00,814.67 694.00,814.67
             694.00,814.67 695.33,819.33 695.33,819.33
             695.33,819.33 696.00,827.33 696.00,827.33
             696.00,827.33 694.67,835.33 694.67,835.33
             694.67,835.33 691.33,843.33 691.33,843.33
             691.33,843.33 686.67,849.33 686.67,849.33
             686.67,849.33 680.67,854.67 680.67,854.67
             680.67,854.67 674.00,858.00 674.00,858.00
             674.00,858.00 666.67,860.00 666.67,860.00
             666.67,860.00 657.33,860.00 657.33,860.00
             657.33,860.00 649.33,858.00 649.33,858.00
             649.33,858.00 642.00,854.00 642.00,854.00
             642.00,854.00 636.67,849.33 636.67,849.33
             636.67,849.33 632.00,842.67 632.00,842.67
             632.00,842.67 629.33,836.67 629.33,836.67
             629.33,836.67 628.00,830.67 628.00,830.67
             628.00,830.67 628.00,821.33 628.00,821.33
             628.00,821.33 630.67,812.67 630.67,812.67
             630.67,812.67 634.00,806.67 634.00,806.67
             634.00,806.67 640.00,800.00 640.00,800.00
             640.00,800.00 647.33,795.33 647.33,795.33
             647.33,795.33 655.33,792.67 655.33,792.67 Z
           M 762.00,648.67
           C 762.00,648.67 771.33,649.33 771.33,649.33
             771.33,649.33 779.33,652.00 779.33,652.00
             779.33,652.00 786.00,656.67 786.00,656.67
             786.00,656.67 789.33,660.00 789.33,660.00
             789.33,660.00 793.33,664.67 793.33,664.67
             793.33,664.67 796.67,672.00 796.67,672.00
             796.67,672.00 798.00,677.33 798.00,677.33
             798.00,677.33 798.00,688.00 798.00,688.00
             798.00,688.00 795.33,696.67 795.33,696.67
             795.33,696.67 791.33,703.33 791.33,703.33
             791.33,703.33 786.67,708.67 786.67,708.67
             786.67,708.67 779.33,713.33 779.33,713.33
             779.33,713.33 772.00,716.00 772.00,716.00
             772.00,716.00 768.00,716.67 768.00,716.67
             768.00,716.67 760.67,716.67 760.67,716.67
             760.67,716.67 752.00,714.67 752.00,714.67
             752.00,714.67 744.67,710.67 744.67,710.67
             744.67,710.67 738.00,704.67 738.00,704.67
             738.00,704.67 733.33,697.33 733.33,697.33
             733.33,697.33 730.67,688.67 730.67,688.67
             730.67,688.67 730.67,676.67 730.67,676.67
             730.67,676.67 733.33,668.67 733.33,668.67
             733.33,668.67 737.33,662.00 737.33,662.00
             737.33,662.00 740.67,658.00 740.67,658.00
             740.67,658.00 749.33,652.00 749.33,652.00
             749.33,652.00 757.33,649.33 757.33,649.33
             757.33,649.33 762.00,648.67 762.00,648.67 Z
           M 630.00,902.67
           C 630.00,902.67 634.67,902.67 634.67,902.67
             634.67,902.67 639.33,904.67 639.33,904.67
             639.33,904.67 642.67,907.33 642.67,907.33
             642.67,907.33 644.67,910.67 644.67,910.67
             644.67,910.67 645.33,913.33 645.33,913.33
             645.33,913.33 645.33,918.00 645.33,918.00
             645.33,918.00 643.33,923.33 643.33,923.33
             643.33,923.33 611.33,955.33 611.33,955.33
             611.33,955.33 610.67,956.67 610.67,956.67
             610.67,956.67 700.00,956.67 700.00,956.67
             700.00,956.67 702.00,948.67 702.00,948.67
             702.00,948.67 707.33,938.00 707.33,938.00
             707.33,938.00 713.33,930.00 713.33,930.00
             713.33,930.00 720.67,922.67 720.67,922.67
             720.67,922.67 730.00,916.67 730.00,916.67
             730.00,916.67 737.33,913.33 737.33,913.33
             737.33,913.33 746.00,910.67 746.00,910.67
             746.00,910.67 750.00,910.00 750.00,910.00
             750.00,910.00 766.67,910.00 766.67,910.00
             766.67,910.00 778.00,912.67 778.00,912.67
             778.00,912.67 787.33,916.67 787.33,916.67
             787.33,916.67 796.00,922.67 796.00,922.67
             796.00,922.67 803.33,929.33 803.33,929.33
             803.33,929.33 810.00,938.67 810.00,938.67
             810.00,938.67 814.67,948.00 814.67,948.00
             814.67,948.00 817.33,957.33 817.33,957.33
             817.33,957.33 818.00,960.67 818.00,960.67
             818.00,960.67 818.00,978.00 818.00,978.00
             818.00,978.00 815.33,989.33 815.33,989.33
             815.33,989.33 812.00,996.67 812.00,996.67
             812.00,996.67 807.33,1004.67 807.33,1004.67
             807.33,1004.67 801.33,1012.00 801.33,1012.00
             801.33,1012.00 794.00,1018.00 794.00,1018.00
             794.00,1018.00 786.67,1022.67 786.67,1022.67
             786.67,1022.67 779.33,1026.00 779.33,1026.00
             779.33,1026.00 770.00,1028.67 770.00,1028.67
             770.00,1028.67 766.00,1029.33 766.00,1029.33
             766.00,1029.33 751.33,1029.33 751.33,1029.33
             751.33,1029.33 741.33,1027.33 741.33,1027.33
             741.33,1027.33 731.33,1023.33 731.33,1023.33
             731.33,1023.33 722.00,1017.33 722.00,1017.33
             722.00,1017.33 715.33,1011.33 715.33,1011.33
             715.33,1011.33 710.00,1005.33 710.00,1005.33
             710.00,1005.33 704.00,995.33 704.00,995.33
             704.00,995.33 700.67,986.00 700.67,986.00
             700.67,986.00 700.00,982.67 700.00,982.67
             700.00,982.67 610.67,982.67 610.67,982.67
             610.67,982.67 615.33,988.00 615.33,988.00
             615.33,988.00 643.33,1016.00 643.33,1016.00
             643.33,1016.00 645.33,1020.67 645.33,1020.67
             645.33,1020.67 645.33,1026.00 645.33,1026.00
             645.33,1026.00 642.67,1032.00 642.67,1032.00
             642.67,1032.00 636.67,1036.00 636.67,1036.00
             636.67,1036.00 630.67,1036.67 630.67,1036.67
             630.67,1036.67 625.33,1034.67 625.33,1034.67
             625.33,1034.67 620.00,1030.00 620.00,1030.00
             620.00,1030.00 567.33,977.33 567.33,977.33
             567.33,977.33 565.33,972.67 565.33,972.67
             565.33,972.67 565.33,966.67 565.33,966.67
             565.33,966.67 568.00,961.33 568.00,961.33
             568.00,961.33 624.00,905.33 624.00,905.33
             624.00,905.33 627.33,903.33 627.33,903.33
             627.33,903.33 630.00,902.67 630.00,902.67 Z
           M 532.67,759.33
           C 532.67,759.33 538.67,759.33 538.67,759.33
             538.67,759.33 544.00,762.00 544.00,762.00
             544.00,762.00 547.33,766.00 547.33,766.00
             547.33,766.00 548.67,769.33 548.67,769.33
             548.67,769.33 548.67,775.33 548.67,775.33
             548.67,775.33 546.00,780.67 546.00,780.67
             546.00,780.67 514.67,812.00 514.67,812.00
             514.67,812.00 514.00,813.33 514.00,813.33
             514.00,813.33 603.33,813.33 603.33,813.33
             603.33,813.33 605.33,805.33 605.33,805.33
             605.33,805.33 610.67,794.67 610.67,794.67
             610.67,794.67 616.00,787.33 616.00,787.33
             616.00,787.33 624.00,779.33 624.00,779.33
             624.00,779.33 633.33,773.33 633.33,773.33
             633.33,773.33 642.00,769.33 642.00,769.33
             642.00,769.33 652.67,766.67 652.67,766.67
             652.67,766.67 670.67,766.67 670.67,766.67
             670.67,766.67 681.33,769.33 681.33,769.33
             681.33,769.33 689.33,772.67 689.33,772.67
             689.33,772.67 696.00,776.67 696.00,776.67
             696.00,776.67 703.33,782.67 703.33,782.67
             703.33,782.67 710.00,790.00 710.00,790.00
             710.00,790.00 715.33,798.67 715.33,798.67
             715.33,798.67 719.33,808.00 719.33,808.00
             719.33,808.00 721.33,817.33 721.33,817.33
             721.33,817.33 722.00,828.67 722.00,828.67
             722.00,828.67 720.67,838.67 720.67,838.67
             720.67,838.67 717.33,849.33 717.33,849.33
             717.33,849.33 713.33,857.33 713.33,857.33
             713.33,857.33 707.33,865.33 707.33,865.33
             707.33,865.33 699.33,873.33 699.33,873.33
             699.33,873.33 690.00,879.33 690.00,879.33
             690.00,879.33 680.67,883.33 680.67,883.33
             680.67,883.33 672.67,885.33 672.67,885.33
             672.67,885.33 668.00,886.00 668.00,886.00
             668.00,886.00 655.33,886.00 655.33,886.00
             655.33,886.00 645.33,884.00 645.33,884.00
             645.33,884.00 634.67,880.00 634.67,880.00
             634.67,880.00 627.33,875.33 627.33,875.33
             627.33,875.33 620.00,869.33 620.00,869.33
             620.00,869.33 614.00,862.67 614.00,862.67
             614.00,862.67 609.33,855.33 609.33,855.33
             609.33,855.33 605.33,846.67 605.33,846.67
             605.33,846.67 603.33,840.00 603.33,840.00
             603.33,840.00 514.67,840.00 514.67,840.00
             514.67,840.00 546.00,871.33 546.00,871.33
             546.00,871.33 548.00,874.67 548.00,874.67
             548.00,874.67 548.67,877.33 548.67,877.33
             548.67,877.33 548.67,882.67 548.67,882.67
             548.67,882.67 546.67,887.33 546.67,887.33
             546.67,887.33 543.33,890.67 543.33,890.67
             543.33,890.67 540.00,892.67 540.00,892.67
             540.00,892.67 531.33,892.67 531.33,892.67
             531.33,892.67 525.33,888.67 525.33,888.67
             525.33,888.67 471.33,834.67 471.33,834.67
             471.33,834.67 468.67,828.67 468.67,828.67
             468.67,828.67 468.67,824.00 468.67,824.00
             468.67,824.00 470.67,818.67 470.67,818.67
             470.67,818.67 528.00,761.33 528.00,761.33
             528.00,761.33 532.67,759.33 532.67,759.33 Z
           M 634.67,616.00
           C 634.67,616.00 641.33,616.00 641.33,616.00
             641.33,616.00 646.67,618.67 646.67,618.67
             646.67,618.67 650.00,622.67 650.00,622.67
             650.00,622.67 651.33,627.33 651.33,627.33
             651.33,627.33 650.67,633.33 650.67,633.33
             650.67,633.33 646.67,639.33 646.67,639.33
             646.67,639.33 617.33,668.67 617.33,668.67
             617.33,668.67 616.67,670.00 616.67,670.00
             616.67,670.00 706.00,670.00 706.00,670.00
             706.00,670.00 707.33,663.33 707.33,663.33
             707.33,663.33 711.33,654.00 711.33,654.00
             711.33,654.00 716.67,646.00 716.67,646.00
             716.67,646.00 724.67,637.33 724.67,637.33
             724.67,637.33 734.00,630.67 734.00,630.67
             734.00,630.67 742.67,626.67 742.67,626.67
             742.67,626.67 751.33,624.00 751.33,624.00
             751.33,624.00 761.33,622.67 761.33,622.67
             761.33,622.67 767.33,622.67 767.33,622.67
             767.33,622.67 777.33,624.00 777.33,624.00
             777.33,624.00 788.00,627.33 788.00,627.33
             788.00,627.33 796.67,632.00 796.67,632.00
             796.67,632.00 802.67,636.67 802.67,636.67
             802.67,636.67 809.33,642.67 809.33,642.67
             809.33,642.67 816.00,652.00 816.00,652.00
             816.00,652.00 821.33,663.33 821.33,663.33
             821.33,663.33 824.00,675.33 824.00,675.33
             824.00,675.33 824.00,690.00 824.00,690.00
             824.00,690.00 822.00,700.00 822.00,700.00
             822.00,700.00 818.00,710.00 818.00,710.00
             818.00,710.00 812.00,719.33 812.00,719.33
             812.00,719.33 804.67,727.33 804.67,727.33
             804.67,727.33 798.00,732.67 798.00,732.67
             798.00,732.67 786.67,738.67 786.67,738.67
             786.67,738.67 778.00,741.33 778.00,741.33
             778.00,741.33 770.00,742.67 770.00,742.67
             770.00,742.67 758.67,742.67 758.67,742.67
             758.67,742.67 748.00,740.67 748.00,740.67
             748.00,740.67 737.33,736.67 737.33,736.67
             737.33,736.67 728.00,730.67 728.00,730.67
             728.00,730.67 720.00,723.33 720.00,723.33
             720.00,723.33 714.67,716.67 714.67,716.67
             714.67,716.67 709.33,707.33 709.33,707.33
             709.33,707.33 706.00,697.33 706.00,697.33
             706.00,697.33 706.00,696.00 706.00,696.00
             706.00,696.00 616.67,696.00 616.67,696.00
             616.67,696.00 621.33,701.33 621.33,701.33
             621.33,701.33 649.33,729.33 649.33,729.33
             649.33,729.33 651.33,734.67 651.33,734.67
             651.33,734.67 650.67,740.67 650.67,740.67
             650.67,740.67 648.67,744.67 648.67,744.67
             648.67,744.67 644.00,748.67 644.00,748.67
             644.00,748.67 642.00,749.33 642.00,749.33
             642.00,749.33 634.00,749.33 634.00,749.33
             634.00,749.33 628.67,746.00 628.67,746.00
             628.67,746.00 573.33,690.67 573.33,690.67
             573.33,690.67 571.33,686.00 571.33,686.00
             571.33,686.00 571.33,679.33 571.33,679.33
             571.33,679.33 574.00,674.00 574.00,674.00
             574.00,674.00 610.67,637.33 610.67,637.33
             610.67,637.33 612.00,637.33 612.00,637.33
             612.00,637.33 613.33,634.67 613.33,634.67
             613.33,634.67 628.67,619.33 628.67,619.33
             628.67,619.33 632.67,616.67 632.67,616.67
             632.67,616.67 634.67,616.00 634.67,616.00 Z
           M 502.67,110.00
           C 502.67,110.00 777.33,110.00 777.33,110.00
             777.33,110.00 777.33,248.00 777.33,248.00
             777.33,248.00 502.67,248.00 502.67,248.00
             502.67,248.00 502.67,110.00 502.67,110.00 Z
           M 283.33,614.00
           C 283.33,614.00 400.00,614.00 400.00,614.00
             400.00,614.00 400.00,1038.67 400.00,1038.67
             400.00,1038.67 283.33,1038.67 283.33,1038.67
             283.33,1038.67 283.33,614.00 283.33,614.00 Z
           M 880.00,614.00
           C 880.00,614.00 996.67,614.00 996.67,614.00
             996.67,614.00 996.67,1038.67 996.67,1038.67
             996.67,1038.67 880.00,1038.67 880.00,1038.67
             880.00,1038.67 880.00,614.00 880.00,614.00 Z
           M 402.00,192.00
           C 402.00,192.00 416.00,192.00 416.00,192.00
             416.00,192.00 416.67,222.67 416.67,222.67
             416.67,222.67 418.67,228.67 418.67,228.67
             418.67,228.67 422.00,232.00 422.00,232.00
             422.00,232.00 427.33,234.00 427.33,234.00
             427.33,234.00 476.67,234.67 476.67,234.67
             476.67,234.67 477.33,264.00 477.33,264.00
             477.33,264.00 480.00,269.33 480.00,269.33
             480.00,269.33 483.33,272.00 483.33,272.00
             483.33,272.00 486.67,273.33 486.67,273.33
             486.67,273.33 793.33,273.33 793.33,273.33
             793.33,273.33 798.67,270.67 798.67,270.67
             798.67,270.67 801.33,267.33 801.33,267.33
             801.33,267.33 802.67,264.00 802.67,264.00
             802.67,264.00 803.33,234.67 803.33,234.67
             803.33,234.67 852.67,234.00 852.67,234.00
             852.67,234.00 858.00,232.00 858.00,232.00
             858.00,232.00 861.33,228.67 861.33,228.67
             861.33,228.67 863.33,222.67 863.33,222.67
             863.33,222.67 864.00,192.00 864.00,192.00
             864.00,192.00 878.00,192.00 878.00,192.00
             878.00,192.00 888.00,194.00 888.00,194.00
             888.00,194.00 896.67,197.33 896.67,197.33
             896.67,197.33 904.00,201.33 904.00,201.33
             904.00,201.33 911.33,207.33 911.33,207.33
             911.33,207.33 916.67,214.00 916.67,214.00
             916.67,214.00 922.00,224.67 922.00,224.67
             922.00,224.67 924.00,235.33 924.00,235.33
             924.00,235.33 924.00,526.00 924.00,526.00
             924.00,526.00 356.00,526.00 356.00,526.00
             356.00,526.00 356.00,235.33 356.00,235.33
             356.00,235.33 358.00,224.67 358.00,224.67
             358.00,224.67 363.33,214.00 363.33,214.00
             363.33,214.00 369.33,207.33 369.33,207.33
             369.33,207.33 376.00,201.33 376.00,201.33
             376.00,201.33 386.00,196.00 386.00,196.00
             386.00,196.00 394.00,193.33 394.00,193.33
             394.00,193.33 402.00,192.00 402.00,192.00 Z
           M 206.67,552.00
           C 206.67,552.00 330.00,552.00 330.00,552.00
             330.00,552.00 330.00,588.00 330.00,588.00
             330.00,588.00 266.67,588.67 266.67,588.67
             266.67,588.67 262.00,591.33 262.00,591.33
             262.00,591.33 259.33,594.67 259.33,594.67
             259.33,594.67 258.00,598.67 258.00,598.67
             258.00,598.67 258.00,1054.00 258.00,1054.00
             258.00,1054.00 260.67,1060.00 260.67,1060.00
             260.67,1060.00 264.00,1062.67 264.00,1062.67
             264.00,1062.67 268.00,1064.00 268.00,1064.00
             268.00,1064.00 416.00,1064.00 416.00,1064.00
             416.00,1064.00 421.33,1061.33 421.33,1061.33
             421.33,1061.33 424.67,1057.33 424.67,1057.33
             424.67,1057.33 425.33,1055.33 425.33,1055.33
             425.33,1055.33 425.33,596.67 425.33,596.67
             425.33,596.67 421.33,590.67 421.33,590.67
             421.33,590.67 416.67,588.67 416.67,588.67
             416.67,588.67 356.67,588.00 356.67,588.00
             356.67,588.00 356.00,587.33 356.00,587.33
             356.00,587.33 356.00,552.67 356.00,552.67
             356.00,552.67 356.67,552.00 356.67,552.00
             356.67,552.00 923.33,552.00 923.33,552.00
             923.33,552.00 924.00,552.67 924.00,552.67
             924.00,552.67 924.00,587.33 924.00,587.33
             924.00,587.33 923.33,588.00 923.33,588.00
             923.33,588.00 863.33,588.67 863.33,588.67
             863.33,588.67 858.00,591.33 858.00,591.33
             858.00,591.33 854.67,596.67 854.67,596.67
             854.67,596.67 854.67,1055.33 854.67,1055.33
             854.67,1055.33 856.67,1059.33 856.67,1059.33
             856.67,1059.33 860.67,1062.67 860.67,1062.67
             860.67,1062.67 864.00,1064.00 864.00,1064.00
             864.00,1064.00 1012.00,1064.00 1012.00,1064.00
             1012.00,1064.00 1018.00,1061.33 1018.00,1061.33
             1018.00,1061.33 1021.33,1056.67 1021.33,1056.67
             1021.33,1056.67 1022.00,1054.00 1022.00,1054.00
             1022.00,1054.00 1022.00,598.67 1022.00,598.67
             1022.00,598.67 1020.00,593.33 1020.00,593.33
             1020.00,593.33 1015.33,589.33 1015.33,589.33
             1015.33,589.33 1013.33,588.67 1013.33,588.67
             1013.33,588.67 950.00,588.00 950.00,588.00
             950.00,588.00 950.00,552.00 950.00,552.00
             950.00,552.00 1073.33,552.00 1073.33,552.00
             1073.33,552.00 1074.00,552.67 1074.00,552.67
             1074.00,552.67 1074.00,1094.67 1074.00,1094.67
             1074.00,1094.67 1071.33,1108.00 1071.33,1108.00
             1071.33,1108.00 1067.33,1118.67 1067.33,1118.67
             1067.33,1118.67 1062.67,1128.00 1062.67,1128.00
             1062.67,1128.00 1054.67,1138.67 1054.67,1138.67
             1054.67,1138.67 1044.00,1149.33 1044.00,1149.33
             1044.00,1149.33 1033.33,1156.67 1033.33,1156.67
             1033.33,1156.67 1022.00,1162.67 1022.00,1162.67
             1022.00,1162.67 1008.00,1167.33 1008.00,1167.33
             1008.00,1167.33 998.00,1169.33 998.00,1169.33
             998.00,1169.33 991.33,1170.00 991.33,1170.00
             991.33,1170.00 288.67,1170.00 288.67,1170.00
             288.67,1170.00 274.67,1168.00 274.67,1168.00
             274.67,1168.00 261.33,1164.00 261.33,1164.00
             261.33,1164.00 248.67,1158.00 248.67,1158.00
             248.67,1158.00 240.67,1152.67 240.67,1152.67
             240.67,1152.67 234.00,1147.33 234.00,1147.33
             234.00,1147.33 224.00,1137.33 224.00,1137.33
             224.00,1137.33 218.00,1128.67 218.00,1128.67
             218.00,1128.67 214.00,1122.00 214.00,1122.00
             214.00,1122.00 209.33,1110.67 209.33,1110.67
             209.33,1110.67 206.67,1099.33 206.67,1099.33
             206.67,1099.33 206.00,1094.67 206.00,1094.67
             206.00,1094.67 206.00,552.67 206.00,552.67
             206.00,552.67 206.67,552.00 206.67,552.00 Z
           M 0.00,0.00
           C 0.00,0.00 1280.00,0.00 1280.00,0.00
             1280.00,0.00 1280.00,1280.00 1280.00,1280.00
             1280.00,1280.00 0.00,1280.00 0.00,1280.00
             0.00,1280.00 0.00,0.00 0.00,0.00 Z
           M 487.33,1364.00
           C 487.33,1364.00 482.00,1366.00 482.00,1366.00
             482.00,1366.00 478.00,1370.67 478.00,1370.67
             478.00,1370.67 476.67,1374.00 476.67,1374.00
             476.67,1374.00 476.67,1403.33 476.67,1403.33
             476.67,1403.33 428.00,1403.33 428.00,1403.33
             428.00,1403.33 422.00,1405.33 422.00,1405.33
             422.00,1405.33 417.33,1410.67 417.33,1410.67
             417.33,1410.67 416.00,1415.33 416.00,1415.33
             416.00,1415.33 416.00,1446.00 416.00,1446.00
             416.00,1446.00 400.67,1446.00 400.67,1446.00
             400.67,1446.00 388.00,1448.00 388.00,1448.00
             388.00,1448.00 376.00,1452.00 376.00,1452.00
             376.00,1452.00 365.33,1457.33 365.33,1457.33
             365.33,1457.33 356.00,1464.00 356.00,1464.00
             356.00,1464.00 349.33,1470.00 349.33,1470.00
             349.33,1470.00 349.33,1471.33 349.33,1471.33
             349.33,1471.33 348.00,1471.33 348.00,1471.33
             348.00,1471.33 341.33,1480.00 341.33,1480.00
             341.33,1480.00 334.67,1492.67 334.67,1492.67
             334.67,1492.67 331.33,1504.00 331.33,1504.00
             331.33,1504.00 330.00,1514.67 330.00,1514.67
             330.00,1514.67 330.00,1806.00 330.00,1806.00
             330.00,1806.00 206.00,1806.00 206.00,1806.00
             206.00,1806.00 206.00,1713.33 206.00,1713.33
             206.00,1713.33 203.33,1708.00 203.33,1708.00
             203.33,1708.00 198.67,1704.00 198.67,1704.00
             198.67,1704.00 196.67,1703.33 196.67,1703.33
             196.67,1703.33 75.33,1703.33 75.33,1703.33
             75.33,1703.33 70.00,1706.00 70.00,1706.00
             70.00,1706.00 67.33,1709.33 67.33,1709.33
             67.33,1709.33 66.00,1712.00 66.00,1712.00
             66.00,1712.00 66.00,1720.00 66.00,1720.00
             66.00,1720.00 68.00,1724.00 68.00,1724.00
             68.00,1724.00 72.67,1728.00 72.67,1728.00
             72.67,1728.00 76.67,1729.33 76.67,1729.33
             76.67,1729.33 180.00,1729.33 180.00,1729.33
             180.00,1729.33 180.00,2376.00 180.00,2376.00
             180.00,2376.00 182.00,2388.67 182.00,2388.67
             182.00,2388.67 186.00,2402.67 186.00,2402.67
             186.00,2402.67 191.33,2414.67 191.33,2414.67
             191.33,2414.67 197.33,2424.67 197.33,2424.67
             197.33,2424.67 203.33,2432.67 203.33,2432.67
             203.33,2432.67 211.33,2442.00 211.33,2442.00
             211.33,2442.00 219.33,2449.33 219.33,2449.33
             219.33,2449.33 231.33,2458.00 231.33,2458.00
             231.33,2458.00 248.00,2466.67 248.00,2466.67
             248.00,2466.67 259.33,2470.67 259.33,2470.67
             259.33,2470.67 272.00,2474.00 272.00,2474.00
             272.00,2474.00 288.00,2476.00 288.00,2476.00
             288.00,2476.00 992.00,2476.00 992.00,2476.00
             992.00,2476.00 1008.00,2474.00 1008.00,2474.00
             1008.00,2474.00 1023.33,2470.00 1023.33,2470.00
             1023.33,2470.00 1039.33,2463.33 1039.33,2463.33
             1039.33,2463.33 1050.67,2456.67 1050.67,2456.67
             1050.67,2456.67 1058.67,2450.67 1058.67,2450.67
             1058.67,2450.67 1068.00,2442.67 1068.00,2442.67
             1068.00,2442.67 1076.00,2434.00 1076.00,2434.00
             1076.00,2434.00 1083.33,2424.00 1083.33,2424.00
             1083.33,2424.00 1090.00,2412.00 1090.00,2412.00
             1090.00,2412.00 1095.33,2398.67 1095.33,2398.67
             1095.33,2398.67 1098.67,2385.33 1098.67,2385.33
             1098.67,2385.33 1100.00,2376.00 1100.00,2376.00
             1100.00,2376.00 1100.00,1729.33 1100.00,1729.33
             1100.00,1729.33 1203.33,1729.33 1203.33,1729.33
             1203.33,1729.33 1208.67,1727.33 1208.67,1727.33
             1208.67,1727.33 1213.33,1722.00 1213.33,1722.00
             1213.33,1722.00 1214.00,1720.00 1214.00,1720.00
             1214.00,1720.00 1214.00,1712.00 1214.00,1712.00
             1214.00,1712.00 1210.67,1706.67 1210.67,1706.67
             1210.67,1706.67 1206.67,1704.00 1206.67,1704.00
             1206.67,1704.00 1204.67,1703.33 1204.67,1703.33
             1204.67,1703.33 1083.33,1703.33 1083.33,1703.33
             1083.33,1703.33 1079.33,1705.33 1079.33,1705.33
             1079.33,1705.33 1075.33,1710.00 1075.33,1710.00
             1075.33,1710.00 1074.00,1713.33 1074.00,1713.33
             1074.00,1713.33 1074.00,1806.00 1074.00,1806.00
             1074.00,1806.00 950.00,1806.00 950.00,1806.00
             950.00,1806.00 950.00,1514.00 950.00,1514.00
             950.00,1514.00 948.67,1504.00 948.67,1504.00
             948.67,1504.00 945.33,1492.67 945.33,1492.67
             945.33,1492.67 940.00,1482.00 940.00,1482.00
             940.00,1482.00 934.00,1474.00 934.00,1474.00
             934.00,1474.00 927.33,1466.67 927.33,1466.67
             927.33,1466.67 920.67,1461.33 920.67,1461.33
             920.67,1461.33 913.33,1456.67 913.33,1456.67
             913.33,1456.67 902.67,1451.33 902.67,1451.33
             902.67,1451.33 888.67,1447.33 888.67,1447.33
             888.67,1447.33 878.67,1446.00 878.67,1446.00
             878.67,1446.00 864.00,1446.00 864.00,1446.00
             864.00,1446.00 864.00,1415.33 864.00,1415.33
             864.00,1415.33 862.00,1409.33 862.00,1409.33
             862.00,1409.33 856.67,1404.67 856.67,1404.67
             856.67,1404.67 852.00,1403.33 852.00,1403.33
             852.00,1403.33 803.33,1403.33 803.33,1403.33
             803.33,1403.33 803.33,1374.00 803.33,1374.00
             803.33,1374.00 800.67,1368.67 800.67,1368.67
             800.67,1368.67 796.67,1365.33 796.67,1365.33
             796.67,1365.33 793.33,1364.00 793.33,1364.00
             793.33,1364.00 487.33,1364.00 487.33,1364.00 Z
           M 0.00,0.00
           C 0.00,0.00 1280.00,0.00 1280.00,0.00
             1280.00,0.00 1280.00,1280.00 1280.00,1280.00
             1280.00,1280.00 0.00,1280.00 0.00,1280.00
             0.00,1280.00 0.00,0.00 0.00,0.00 Z" />
  </g>
</svg>
