<svg
  xmlns="http://www.w3.org/2000/svg"
  viewBox="-64 -64 128 128"
  id="brain"
  class="pin"
>
  <g class="drop">
    <path
      fill="#e91e63"
      transform="scale(0.25) translate(-192,-256)"
      d="M172.268 501.67C26.97 291.031 0 269.413 0 192 0 85.961 85.961 0 192 0s192 85.961 192 192c0 77.413-26.97 99.031-172.268 309.67-9.535 13.774-29.93 13.773-39.464 0z"
    />
      <path
        fill="none" stroke="white" stroke-width="50"
        transform="scale(0.05) translate(-192,-256)"
                d="M 310.00,921.33
           C 310.00,921.33 374.00,921.33 374.00,921.33
             374.00,921.33 379.33,924.67 379.33,924.67
             379.33,924.67 382.00,928.00 382.00,928.00
             382.00,928.00 383.33,931.33 383.33,931.33
             383.33,931.33 383.33,937.33 383.33,937.33
             383.33,937.33 380.00,944.00 380.00,944.00
             380.00,944.00 374.67,947.33 374.67,947.33
             374.67,947.33 372.00,948.00 372.00,948.00
             372.00,948.00 312.00,948.00 312.00,948.00
             312.00,948.00 306.67,946.00 306.67,946.00
             306.67,946.00 302.67,942.67 302.67,942.67
             302.67,942.67 300.67,938.67 300.67,938.67
             300.67,938.67 300.67,930.67 300.67,930.67
             300.67,930.67 303.33,925.33 303.33,925.33
             303.33,925.33 308.00,922.00 308.00,922.00
             308.00,922.00 310.00,921.33 310.00,921.33 Z
           M 937.33,892.67
           C 937.33,892.67 944.00,894.00 944.00,894.00
             944.00,894.00 948.00,896.67 948.00,896.67
             948.00,896.67 950.67,900.67 950.67,900.67
             950.67,900.67 951.33,902.67 951.33,902.67
             951.33,902.67 951.33,921.33 951.33,921.33
             951.33,921.33 970.00,921.33 970.00,921.33
             970.00,921.33 975.33,924.00 975.33,924.00
             975.33,924.00 979.33,930.00 979.33,930.00
             979.33,930.00 980.00,935.33 980.00,935.33
             980.00,935.33 978.00,941.33 978.00,941.33
             978.00,941.33 974.67,945.33 974.67,945.33
             974.67,945.33 970.67,947.33 970.67,947.33
             970.67,947.33 968.00,948.00 968.00,948.00
             968.00,948.00 951.33,948.00 951.33,948.00
             951.33,948.00 951.33,966.00 951.33,966.00
             951.33,966.00 948.67,971.33 948.67,971.33
             948.67,971.33 944.67,974.67 944.67,974.67
             944.67,974.67 941.33,976.00 941.33,976.00
             941.33,976.00 935.33,976.00 935.33,976.00
             935.33,976.00 930.00,973.33 930.00,973.33
             930.00,973.33 926.00,968.67 926.00,968.67
             926.00,968.67 924.67,964.67 924.67,964.67
             924.67,964.67 924.67,948.00 924.67,948.00
             924.67,948.00 908.00,948.00 908.00,948.00
             908.00,948.00 902.67,946.00 902.67,946.00
             902.67,946.00 898.00,940.67 898.00,940.67
             898.00,940.67 896.67,937.33 896.67,937.33
             896.67,937.33 896.67,931.33 896.67,931.33
             896.67,931.33 899.33,926.00 899.33,926.00
             899.33,926.00 903.33,922.67 903.33,922.67
             903.33,922.67 906.67,921.33 906.67,921.33
             906.67,921.33 924.67,921.33 924.67,921.33
             924.67,921.33 924.67,904.00 924.67,904.00
             924.67,904.00 927.33,898.00 927.33,898.00
             927.33,898.00 932.00,894.00 932.00,894.00
             932.00,894.00 937.33,892.67 937.33,892.67 Z
           M 637.33,615.33
           C 637.33,615.33 644.00,616.67 644.00,616.67
             644.00,616.67 648.00,619.33 648.00,619.33
             648.00,619.33 650.67,623.33 650.67,623.33
             650.67,623.33 651.33,625.33 651.33,625.33
             651.33,625.33 651.33,632.67 651.33,632.67
             651.33,632.67 648.00,638.00 648.00,638.00
             648.00,638.00 617.33,668.67 617.33,668.67
             617.33,668.67 706.00,669.33 706.00,669.33
             706.00,669.33 706.67,664.67 706.67,664.67
             706.67,664.67 710.67,654.67 710.67,654.67
             710.67,654.67 715.33,647.33 715.33,647.33
             715.33,647.33 721.33,640.00 721.33,640.00
             721.33,640.00 728.67,634.00 728.67,634.00
             728.67,634.00 737.33,628.67 737.33,628.67
             737.33,628.67 747.33,624.67 747.33,624.67
             747.33,624.67 757.33,622.67 757.33,622.67
             757.33,622.67 771.33,622.67 771.33,622.67
             771.33,622.67 781.33,624.67 781.33,624.67
             781.33,624.67 791.33,628.67 791.33,628.67
             791.33,628.67 800.00,634.00 800.00,634.00
             800.00,634.00 806.67,640.00 806.67,640.00
             806.67,640.00 811.33,644.67 811.33,644.67
             811.33,644.67 818.00,654.67 818.00,654.67
             818.00,654.67 822.00,664.67 822.00,664.67
             822.00,664.67 824.00,672.67 824.00,672.67
             824.00,672.67 824.67,678.67 824.67,678.67
             824.67,678.67 824.67,686.67 824.67,686.67
             824.67,686.67 823.33,696.00 823.33,696.00
             823.33,696.00 819.33,708.00 819.33,708.00
             819.33,708.00 814.00,717.33 814.00,717.33
             814.00,717.33 806.00,726.67 806.00,726.67
             806.00,726.67 797.33,733.33 797.33,733.33
             797.33,733.33 790.67,737.33 790.67,737.33
             790.67,737.33 779.33,741.33 779.33,741.33
             779.33,741.33 772.67,742.67 772.67,742.67
             772.67,742.67 756.00,742.67 756.00,742.67
             756.00,742.67 744.67,740.00 744.67,740.00
             744.67,740.00 736.67,736.67 736.67,736.67
             736.67,736.67 729.33,732.00 729.33,732.00
             729.33,732.00 722.00,726.00 722.00,726.00
             722.00,726.00 716.00,719.33 716.00,719.33
             716.00,719.33 710.67,710.67 710.67,710.67
             710.67,710.67 706.67,701.33 706.67,701.33
             706.67,701.33 705.33,696.67 705.33,696.67
             705.33,696.67 617.33,696.67 617.33,696.67
             617.33,696.67 649.33,728.67 649.33,728.67
             649.33,728.67 651.33,733.33 651.33,733.33
             651.33,733.33 651.33,740.00 651.33,740.00
             651.33,740.00 648.67,745.33 648.67,745.33
             648.67,745.33 644.67,748.67 644.67,748.67
             644.67,748.67 640.67,750.00 640.67,750.00
             640.67,750.00 636.00,750.00 636.00,750.00
             636.00,750.00 630.67,748.00 630.67,748.00
             630.67,748.00 573.33,690.67 573.33,690.67
             573.33,690.67 571.33,687.33 571.33,687.33
             571.33,687.33 570.67,681.33 570.67,681.33
             570.67,681.33 572.67,675.33 572.67,675.33
             572.67,675.33 630.00,618.00 630.00,618.00
             630.00,618.00 634.00,616.00 634.00,616.00
             634.00,616.00 637.33,615.33 637.33,615.33 Z
           M 756.00,650.00
           C 756.00,650.00 748.67,652.00 748.67,652.00
             748.67,652.00 742.00,655.33 742.00,655.33
             742.00,655.33 734.67,662.00 734.67,662.00
             734.67,662.00 729.33,671.33 729.33,671.33
             729.33,671.33 727.33,680.00 727.33,680.00
             727.33,680.00 727.33,686.67 727.33,686.67
             727.33,686.67 729.33,695.33 729.33,695.33
             729.33,695.33 734.00,704.00 734.00,704.00
             734.00,704.00 740.00,710.00 740.00,710.00
             740.00,710.00 748.00,714.67 748.00,714.67
             748.00,714.67 754.67,716.67 754.67,716.67
             754.67,716.67 767.33,716.67 767.33,716.67
             767.33,716.67 775.33,714.00 775.33,714.00
             775.33,714.00 782.67,709.33 782.67,709.33
             782.67,709.33 787.33,704.67 787.33,704.67
             787.33,704.67 791.33,698.00 791.33,698.00
             791.33,698.00 794.00,690.67 794.00,690.67
             794.00,690.67 794.67,686.67 794.67,686.67
             794.67,686.67 794.67,680.00 794.67,680.00
             794.67,680.00 792.67,672.00 792.67,672.00
             792.67,672.00 788.67,664.00 788.67,664.00
             788.67,664.00 782.67,657.33 782.67,657.33
             782.67,657.33 775.33,652.67 775.33,652.67
             775.33,652.67 769.33,650.67 769.33,650.67
             769.33,650.67 766.00,650.00 766.00,650.00
             766.00,650.00 756.00,650.00 756.00,650.00 Z
           M 531.33,759.33
           C 531.33,759.33 540.00,759.33 540.00,759.33
             540.00,759.33 546.00,763.33 546.00,763.33
             546.00,763.33 548.67,768.00 548.67,768.00
             548.67,768.00 548.67,776.67 548.67,776.67
             548.67,776.67 545.33,782.00 545.33,782.00
             545.33,782.00 515.33,812.00 515.33,812.00
             515.33,812.00 603.33,812.67 603.33,812.67
             603.33,812.67 604.67,806.67 604.67,806.67
             604.67,806.67 608.00,798.67 608.00,798.67
             608.00,798.67 614.00,789.33 614.00,789.33
             614.00,789.33 620.00,782.67 620.00,782.67
             620.00,782.67 626.00,777.33 626.00,777.33
             626.00,777.33 635.33,772.00 635.33,772.00
             635.33,772.00 643.33,768.67 643.33,768.67
             643.33,768.67 650.67,766.67 650.67,766.67
             650.67,766.67 655.33,766.00 655.33,766.00
             655.33,766.00 668.00,766.00 668.00,766.00
             668.00,766.00 678.67,768.00 678.67,768.00
             678.67,768.00 688.67,772.00 688.67,772.00
             688.67,772.00 696.67,776.67 696.67,776.67
             696.67,776.67 705.33,784.00 705.33,784.00
             705.33,784.00 712.67,793.33 712.67,793.33
             712.67,793.33 718.00,804.00 718.00,804.00
             718.00,804.00 720.67,812.00 720.67,812.00
             720.67,812.00 722.00,820.00 722.00,820.00
             722.00,820.00 722.00,832.67 722.00,832.67
             722.00,832.67 720.00,842.67 720.00,842.67
             720.00,842.67 716.00,853.33 716.00,853.33
             716.00,853.33 710.00,862.67 710.00,862.67
             710.00,862.67 704.00,869.33 704.00,869.33
             704.00,869.33 698.00,874.67 698.00,874.67
             698.00,874.67 689.33,880.00 689.33,880.00
             689.33,880.00 680.00,884.00 680.00,884.00
             680.00,884.00 670.67,886.00 670.67,886.00
             670.67,886.00 660.00,886.67 660.00,886.67
             660.00,886.67 649.33,885.33 649.33,885.33
             649.33,885.33 638.67,882.00 638.67,882.00
             638.67,882.00 630.67,878.00 630.67,878.00
             630.67,878.00 623.33,872.67 623.33,872.67
             623.33,872.67 618.67,868.67 618.67,868.67
             618.67,868.67 612.67,861.33 612.67,861.33
             612.67,861.33 607.33,852.67 607.33,852.67
             607.33,852.67 604.00,844.00 604.00,844.00
             604.00,844.00 603.33,839.33 603.33,839.33
             603.33,839.33 514.67,839.33 514.67,839.33
             514.67,839.33 519.33,844.67 519.33,844.67
             519.33,844.67 547.33,872.67 547.33,872.67
             547.33,872.67 549.33,879.33 549.33,879.33
             549.33,879.33 548.00,886.00 548.00,886.00
             548.00,886.00 543.33,891.33 543.33,891.33
             543.33,891.33 538.67,893.33 538.67,893.33
             538.67,893.33 532.67,893.33 532.67,893.33
             532.67,893.33 527.33,890.67 527.33,890.67
             527.33,890.67 470.00,833.33 470.00,833.33
             470.00,833.33 468.67,830.00 468.67,830.00
             468.67,830.00 468.67,822.67 468.67,822.67
             468.67,822.67 471.33,817.33 471.33,817.33
             471.33,817.33 526.67,762.00 526.67,762.00
             526.67,762.00 531.33,759.33 531.33,759.33 Z
           M 652.67,795.33
           C 652.67,795.33 644.67,797.33 644.67,797.33
             644.67,797.33 637.33,801.33 637.33,801.33
             637.33,801.33 630.00,808.67 630.00,808.67
             630.00,808.67 624.67,819.33 624.67,819.33
             624.67,819.33 624.00,822.67 624.00,822.67
             624.00,822.67 624.00,835.33 624.00,835.33
             624.00,835.33 626.67,843.33 626.67,843.33
             626.67,843.33 631.33,850.67 631.33,850.67
             631.33,850.67 638.00,856.67 638.00,856.67
             638.00,856.67 646.00,860.67 646.00,860.67
             646.00,860.67 650.67,862.00 650.67,862.00
             650.67,862.00 664.00,862.00 664.00,862.00
             664.00,862.00 673.33,858.67 673.33,858.67
             673.33,858.67 682.00,852.00 682.00,852.00
             682.00,852.00 686.67,845.33 686.67,845.33
             686.67,845.33 690.00,837.33 690.00,837.33
             690.00,837.33 690.67,833.33 690.67,833.33
             690.67,833.33 690.67,824.00 690.67,824.00
             690.67,824.00 688.00,814.67 688.00,814.67
             688.00,814.67 683.33,807.33 683.33,807.33
             683.33,807.33 678.67,802.67 678.67,802.67
             678.67,802.67 672.67,798.67 672.67,798.67
             672.67,798.67 665.33,796.00 665.33,796.00
             665.33,796.00 662.00,795.33 662.00,795.33
             662.00,795.33 652.67,795.33 652.67,795.33 Z
           M 628.67,902.67
           C 628.67,902.67 636.00,902.67 636.00,902.67
             636.00,902.67 640.00,904.67 640.00,904.67
             640.00,904.67 643.33,908.00 643.33,908.00
             643.33,908.00 645.33,912.00 645.33,912.00
             645.33,912.00 645.33,920.00 645.33,920.00
             645.33,920.00 641.33,926.00 641.33,926.00
             641.33,926.00 612.00,955.33 612.00,955.33
             612.00,955.33 700.00,956.00 700.00,956.00
             700.00,956.00 701.33,950.00 701.33,950.00
             701.33,950.00 706.00,939.33 706.00,939.33
             706.00,939.33 711.33,932.00 711.33,932.00
             711.33,932.00 717.33,925.33 717.33,925.33
             717.33,925.33 724.67,919.33 724.67,919.33
             724.67,919.33 736.00,913.33 736.00,913.33
             736.00,913.33 744.67,910.67 744.67,910.67
             744.67,910.67 753.33,909.33 753.33,909.33
             753.33,909.33 763.33,909.33 763.33,909.33
             763.33,909.33 774.67,911.33 774.67,911.33
             774.67,911.33 785.33,915.33 785.33,915.33
             785.33,915.33 792.00,919.33 792.00,919.33
             792.00,919.33 798.67,924.67 798.67,924.67
             798.67,924.67 805.33,931.33 805.33,931.33
             805.33,931.33 810.00,938.00 810.00,938.00
             810.00,938.00 815.33,948.67 815.33,948.67
             815.33,948.67 818.00,958.67 818.00,958.67
             818.00,958.67 818.67,963.33 818.67,963.33
             818.67,963.33 818.67,975.33 818.67,975.33
             818.67,975.33 816.67,986.00 816.67,986.00
             816.67,986.00 812.67,996.67 812.67,996.67
             812.67,996.67 806.67,1006.00 806.67,1006.00
             806.67,1006.00 800.67,1012.67 800.67,1012.67
             800.67,1012.67 794.00,1018.67 794.00,1018.67
             794.00,1018.67 784.67,1024.00 784.67,1024.00
             784.67,1024.00 776.67,1027.33 776.67,1027.33
             776.67,1027.33 768.00,1029.33 768.00,1029.33
             768.00,1029.33 762.00,1030.00 762.00,1030.00
             762.00,1030.00 755.33,1030.00 755.33,1030.00
             755.33,1030.00 745.33,1028.67 745.33,1028.67
             745.33,1028.67 733.33,1024.67 733.33,1024.67
             733.33,1024.67 724.00,1019.33 724.00,1019.33
             724.00,1019.33 715.33,1012.00 715.33,1012.00
             715.33,1012.00 708.67,1004.00 708.67,1004.00
             708.67,1004.00 703.33,994.67 703.33,994.67
             703.33,994.67 699.33,983.33 699.33,983.33
             699.33,983.33 611.33,982.67 611.33,982.67
             611.33,982.67 616.00,988.00 616.00,988.00
             616.00,988.00 643.33,1015.33 643.33,1015.33
             643.33,1015.33 645.33,1019.33 645.33,1019.33
             645.33,1019.33 645.33,1027.33 645.33,1027.33
             645.33,1027.33 642.67,1032.00 642.67,1032.00
             642.67,1032.00 638.67,1035.33 638.67,1035.33
             638.67,1035.33 636.00,1036.67 636.00,1036.67
             636.00,1036.67 628.67,1036.67 628.67,1036.67
             628.67,1036.67 624.67,1034.67 624.67,1034.67
             624.67,1034.67 618.00,1028.67 618.00,1028.67
             618.00,1028.67 610.67,1021.33 610.67,1021.33
             610.67,1021.33 610.67,1020.00 610.67,1020.00
             610.67,1020.00 608.00,1018.67 608.00,1018.67
             608.00,1018.67 605.33,1016.00 605.33,1016.00
             605.33,1016.00 605.33,1014.67 605.33,1014.67
             605.33,1014.67 602.67,1013.33 602.67,1013.33
             602.67,1013.33 573.33,984.00 573.33,984.00
             573.33,984.00 573.33,982.67 573.33,982.67
             573.33,982.67 570.67,981.33 570.67,981.33
             570.67,981.33 566.67,976.67 566.67,976.67
             566.67,976.67 565.33,973.33 565.33,973.33
             565.33,973.33 565.33,965.33 565.33,965.33
             565.33,965.33 568.67,960.00 568.67,960.00
             568.67,960.00 623.33,905.33 623.33,905.33
             623.33,905.33 628.67,902.67 628.67,902.67 Z
           M 749.33,938.67
           C 749.33,938.67 741.33,940.67 741.33,940.67
             741.33,940.67 734.67,944.00 734.67,944.00
             734.67,944.00 728.00,950.00 728.00,950.00
             728.00,950.00 724.00,955.33 724.00,955.33
             724.00,955.33 721.33,960.67 721.33,960.67
             721.33,960.67 720.00,965.33 720.00,965.33
             720.00,965.33 720.00,979.33 720.00,979.33
             720.00,979.33 722.67,986.67 722.67,986.67
             722.67,986.67 726.67,993.33 726.67,993.33
             726.67,993.33 732.00,998.67 732.00,998.67
             732.00,998.67 738.67,1002.67 738.67,1002.67
             738.67,1002.67 746.00,1005.33 746.00,1005.33
             746.00,1005.33 755.33,1006.00 755.33,1006.00
             755.33,1006.00 764.67,1004.00 764.67,1004.00
             764.67,1004.00 772.67,1000.00 772.67,1000.00
             772.67,1000.00 778.00,995.33 778.00,995.33
             778.00,995.33 782.67,988.67 782.67,988.67
             782.67,988.67 785.33,982.67 785.33,982.67
             785.33,982.67 786.67,976.67 786.67,976.67
             786.67,976.67 786.67,968.00 786.67,968.00
             786.67,968.00 784.67,960.00 784.67,960.00
             784.67,960.00 780.67,952.67 780.67,952.67
             780.67,952.67 775.33,946.67 775.33,946.67
             775.33,946.67 768.00,942.00 768.00,942.00
             768.00,942.00 760.67,939.33 760.67,939.33
             760.67,939.33 756.67,938.67 756.67,938.67
             756.67,938.67 749.33,938.67 749.33,938.67 Z
           M 485.33,84.00
           C 485.33,84.00 794.67,84.00 794.67,84.00
             794.67,84.00 800.67,88.00 800.67,88.00
             800.67,88.00 803.33,92.67 803.33,92.67
             803.33,92.67 804.00,96.00 804.00,96.00
             804.00,96.00 804.00,123.33 804.00,123.33
             804.00,123.33 854.00,123.33 854.00,123.33
             854.00,123.33 859.33,126.00 859.33,126.00
             859.33,126.00 862.67,130.00 862.67,130.00
             862.67,130.00 864.00,133.33 864.00,133.33
             864.00,133.33 864.00,166.00 864.00,166.00
             864.00,166.00 882.00,166.00 882.00,166.00
             882.00,166.00 895.33,168.67 895.33,168.67
             895.33,168.67 906.67,172.67 906.67,172.67
             906.67,172.67 917.33,178.67 917.33,178.67
             917.33,178.67 926.00,185.33 926.00,185.33
             926.00,185.33 934.67,194.00 934.67,194.00
             934.67,194.00 939.33,200.67 939.33,200.67
             939.33,200.67 944.00,208.67 944.00,208.67
             944.00,208.67 947.33,217.33 947.33,217.33
             947.33,217.33 949.33,225.33 949.33,225.33
             949.33,225.33 950.00,230.00 950.00,230.00
             950.00,230.00 950.00,526.00 950.00,526.00
             950.00,526.00 1074.00,526.00 1074.00,526.00
             1074.00,526.00 1074.00,432.00 1074.00,432.00
             1074.00,432.00 1077.33,426.67 1077.33,426.67
             1077.33,426.67 1080.67,424.00 1080.67,424.00
             1080.67,424.00 1084.67,422.67 1084.67,422.67
             1084.67,422.67 1203.33,422.67 1203.33,422.67
             1203.33,422.67 1208.67,424.67 1208.67,424.67
             1208.67,424.67 1213.33,430.00 1213.33,430.00
             1213.33,430.00 1214.67,433.33 1214.67,433.33
             1214.67,433.33 1214.67,438.67 1214.67,438.67
             1214.67,438.67 1212.67,443.33 1212.67,443.33
             1212.67,443.33 1209.33,447.33 1209.33,447.33
             1209.33,447.33 1204.67,449.33 1204.67,449.33
             1204.67,449.33 1100.67,449.33 1100.67,449.33
             1100.67,449.33 1100.67,1091.33 1100.67,1091.33
             1100.67,1091.33 1098.67,1107.33 1098.67,1107.33
             1098.67,1107.33 1095.33,1120.00 1095.33,1120.00
             1095.33,1120.00 1090.00,1132.67 1090.00,1132.67
             1090.00,1132.67 1084.00,1143.33 1084.00,1143.33
             1084.00,1143.33 1077.33,1152.67 1077.33,1152.67
             1077.33,1152.67 1070.00,1160.67 1070.00,1160.67
             1070.00,1160.67 1062.00,1168.67 1062.00,1168.67
             1062.00,1168.67 1051.33,1176.67 1051.33,1176.67
             1051.33,1176.67 1037.33,1184.67 1037.33,1184.67
             1037.33,1184.67 1024.00,1190.00 1024.00,1190.00
             1024.00,1190.00 1012.67,1193.33 1012.67,1193.33
             1012.67,1193.33 996.67,1196.00 996.67,1196.00
             996.67,1196.00 283.33,1196.00 283.33,1196.00
             283.33,1196.00 267.33,1193.33 267.33,1193.33
             267.33,1193.33 254.00,1189.33 254.00,1189.33
             254.00,1189.33 240.00,1183.33 240.00,1183.33
             240.00,1183.33 228.67,1176.67 228.67,1176.67
             228.67,1176.67 220.00,1170.00 220.00,1170.00
             220.00,1170.00 212.00,1162.67 212.00,1162.67
             212.00,1162.67 205.33,1156.00 205.33,1156.00
             205.33,1156.00 198.67,1147.33 198.67,1147.33
             198.67,1147.33 191.33,1135.33 191.33,1135.33
             191.33,1135.33 186.00,1123.33 186.00,1123.33
             186.00,1123.33 182.00,1110.00 182.00,1110.00
             182.00,1110.00 180.00,1098.67 180.00,1098.67
             180.00,1098.67 179.33,1090.00 179.33,1090.00
             179.33,1090.00 179.33,449.33 179.33,449.33
             179.33,449.33 75.33,449.33 75.33,449.33
             75.33,449.33 70.00,446.67 70.00,446.67
             70.00,446.67 66.00,441.33 66.00,441.33
             66.00,441.33 65.33,438.67 65.33,438.67
             65.33,438.67 65.33,433.33 65.33,433.33
             65.33,433.33 68.00,428.00 68.00,428.00
             68.00,428.00 72.67,424.00 72.67,424.00
             72.67,424.00 76.67,422.67 76.67,422.67
             76.67,422.67 195.33,422.67 195.33,422.67
             195.33,422.67 200.00,424.67 200.00,424.67
             200.00,424.67 204.00,428.00 204.00,428.00
             204.00,428.00 206.00,432.00 206.00,432.00
             206.00,432.00 206.00,526.00 206.00,526.00
             206.00,526.00 330.00,526.00 330.00,526.00
             330.00,526.00 330.00,230.00 330.00,230.00
             330.00,230.00 332.00,220.00 332.00,220.00
             332.00,220.00 335.33,210.67 335.33,210.67
             335.33,210.67 339.33,202.67 339.33,202.67
             339.33,202.67 346.00,193.33 346.00,193.33
             346.00,193.33 355.33,184.00 355.33,184.00
             355.33,184.00 364.67,177.33 364.67,177.33
             364.67,177.33 375.33,172.00 375.33,172.00
             375.33,172.00 384.67,168.67 384.67,168.67
             384.67,168.67 398.00,166.00 398.00,166.00
             398.00,166.00 416.00,166.00 416.00,166.00
             416.00,166.00 416.00,133.33 416.00,133.33
             416.00,133.33 418.67,128.00 418.67,128.00
             418.67,128.00 422.67,124.67 422.67,124.67
             422.67,124.67 426.00,123.33 426.00,123.33
             426.00,123.33 476.00,123.33 476.00,123.33
             476.00,123.33 476.00,96.00 476.00,96.00
             476.00,96.00 478.00,90.00 478.00,90.00
             478.00,90.00 480.67,86.67 480.67,86.67
             480.67,86.67 485.33,84.00 485.33,84.00 Z
           M 498.00,113.33
           C 498.00,113.33 498.00,250.00 498.00,250.00
             498.00,250.00 772.00,250.00 772.00,250.00
             772.00,250.00 772.67,113.33 772.67,113.33
             772.67,113.33 498.00,113.33 498.00,113.33 Z
           M 712.67,152.67
           C 712.67,152.67 712.67,210.67 712.67,210.67
             712.67,210.67 746.00,210.67 746.00,210.67
             746.00,210.67 746.00,152.67 746.00,152.67
             746.00,152.67 712.67,152.67 712.67,152.67 Z
           M 1107.33,152.67
           C 1107.33,152.67 1107.33,210.67 1107.33,210.67
             1107.33,210.67 1140.67,210.67 1140.67,210.67
             1140.67,210.67 1140.67,152.67 1140.67,152.67
             1140.67,152.67 1107.33,152.67 1107.33,152.67 Z
           M 736.00,195.33
           C 736.00,195.33 725.33,198.00 725.33,198.00
             725.33,198.00 714.67,203.33 714.67,203.33
             714.67,203.33 707.33,208.67 707.33,208.67
             707.33,208.67 701.33,215.33 701.33,215.33
             701.33,215.33 696.00,224.67 696.00,224.67
             696.00,224.67 693.33,234.67 693.33,234.67
             693.33,234.67 693.33,528.67 693.33,528.67
             693.33,528.67 1260.00,528.67 1260.00,528.67
             1260.00,528.67 1260.00,234.67 1260.00,234.67
             1260.00,234.67 1257.33,224.67 1257.33,224.67
             1257.33,224.67 1253.33,217.33 1253.33,217.33
             1253.33,217.33 1248.00,210.67 1248.00,210.67
             1248.00,210.67 1242.00,205.33 1242.00,205.33
             1242.00,205.33 1232.67,200.00 1232.67,200.00
             1232.67,200.00 1224.00,196.67 1224.00,196.67
             1224.00,196.67 1217.33,195.33 1217.33,195.33
             1217.33,195.33 1200.67,195.33 1200.67,195.33
             1200.67,195.33 1200.00,227.33 1200.00,227.33
             1200.00,227.33 1197.33,232.67 1197.33,232.67
             1197.33,232.67 1194.00,235.33 1194.00,235.33
             1194.00,235.33 1190.67,236.67 1190.67,236.67
             1190.67,236.67 1140.67,237.33 1140.67,237.33
             1140.67,237.33 1140.00,264.67 1140.00,264.67
             1140.00,264.67 1138.00,270.67 1138.00,270.67
             1138.00,270.67 1135.33,274.00 1135.33,274.00
             1135.33,274.00 1131.33,276.00 1131.33,276.00
             1131.33,276.00 1127.33,276.67 1127.33,276.67
             1127.33,276.67 826.00,276.67 826.00,276.67
             826.00,276.67 820.67,275.33 820.67,275.33
             820.67,275.33 816.67,272.67 816.67,272.67
             816.67,272.67 814.00,268.00 814.00,268.00
             814.00,268.00 813.33,264.67 813.33,264.67
             813.33,264.67 812.67,237.33 812.67,237.33
             812.67,237.33 762.00,236.67 762.00,236.67
             762.00,236.67 756.67,233.33 756.67,233.33
             756.67,233.33 754.00,229.33 754.00,229.33
             754.00,229.33 753.33,227.33 753.33,227.33
             753.33,227.33 752.67,195.33 752.67,195.33
             752.67,195.33 736.00,195.33 736.00,195.33 Z
           M 559.33,555.33
           C 559.33,555.33 559.33,1093.33 559.33,1093.33
             559.33,1093.33 560.67,1104.00 560.67,1104.00
             560.67,1104.00 564.00,1116.00 564.00,1116.00
             564.00,1116.00 570.67,1130.00 570.67,1130.00
             570.67,1130.00 577.33,1139.33 577.33,1139.33
             577.33,1139.33 585.33,1148.00 585.33,1148.00
             585.33,1148.00 593.33,1154.67 593.33,1154.67
             593.33,1154.67 604.00,1161.33 604.00,1161.33
             604.00,1161.33 614.00,1166.00 614.00,1166.00
             614.00,1166.00 624.00,1169.33 624.00,1169.33
             624.00,1169.33 638.00,1172.00 638.00,1172.00
             638.00,1172.00 1348.67,1172.00 1348.67,1172.00
             1348.67,1172.00 1365.33,1168.67 1365.33,1168.67
             1365.33,1168.67 1378.67,1163.33 1378.67,1163.33
             1378.67,1163.33 1387.33,1158.67 1387.33,1158.67
             1387.33,1158.67 1396.67,1152.00 1396.67,1152.00
             1396.67,1152.00 1406.67,1142.67 1406.67,1142.67
             1406.67,1142.67 1413.33,1134.00 1413.33,1134.00
             1413.33,1134.00 1418.67,1124.67 1418.67,1124.67
             1418.67,1124.67 1422.67,1116.00 1422.67,1116.00
             1422.67,1116.00 1426.00,1104.00 1426.00,1104.00
             1426.00,1104.00 1427.33,1093.33 1427.33,1093.33
             1427.33,1093.33 1427.33,555.33 1427.33,555.33
             1427.33,555.33 1303.33,555.33 1303.33,555.33
             1303.33,555.33 1303.33,590.00 1303.33,590.00
             1303.33,590.00 1365.33,590.67 1365.33,590.67
             1365.33,590.67 1371.33,593.33 1371.33,593.33
             1371.33,593.33 1374.00,596.67 1374.00,596.67
             1374.00,596.67 1375.33,599.33 1375.33,599.33
             1375.33,599.33 1375.33,1058.00 1375.33,1058.00
             1375.33,1058.00 1373.33,1062.00 1373.33,1062.00
             1373.33,1062.00 1368.67,1066.00 1368.67,1066.00
             1368.67,1066.00 1366.67,1066.67 1366.67,1066.67
             1366.67,1066.67 1216.00,1066.67 1216.00,1066.67
             1216.00,1066.67 1210.67,1063.33 1210.67,1063.33
             1210.67,1063.33 1208.00,1059.33 1208.00,1059.33
             1208.00,1059.33 1207.33,1056.67 1207.33,1056.67
             1207.33,1056.67 1207.33,601.33 1207.33,601.33
             1207.33,601.33 1209.33,596.00 1209.33,596.00
             1209.33,596.00 1214.00,592.00 1214.00,592.00
             1214.00,592.00 1218.00,590.67 1218.00,590.67
             1218.00,590.67 1276.67,590.00 1276.67,590.00
             1276.67,590.00 1276.67,555.33 1276.67,555.33
             1276.67,555.33 710.00,555.33 710.00,555.33
             710.00,555.33 710.00,590.00 710.00,590.00
             710.00,590.00 768.67,590.67 768.67,590.67
             768.67,590.67 774.00,592.67 774.00,592.67
             774.00,592.67 778.00,597.33 778.00,597.33
             778.00,597.33 779.33,601.33 779.33,601.33
             779.33,601.33 779.33,1056.67 779.33,1056.67
             779.33,1056.67 777.33,1061.33 777.33,1061.33
             777.33,1061.33 774.67,1064.67 774.67,1064.67
             774.67,1064.67 770.67,1066.67 770.67,1066.67
             770.67,1066.67 620.00,1066.67 620.00,1066.67
             620.00,1066.67 616.00,1064.67 616.00,1064.67
             616.00,1064.67 612.00,1060.00 612.00,1060.00
             612.00,1060.00 611.33,1058.00 611.33,1058.00
             611.33,1058.00 611.33,600.00 611.33,600.00
             611.33,600.00 614.00,594.67 614.00,594.67
             614.00,594.67 617.33,592.00 617.33,592.00
             617.33,592.00 621.33,590.67 621.33,590.67
             621.33,590.67 683.33,590.00 683.33,590.00
             683.33,590.00 683.33,555.33 683.33,555.33
             683.33,555.33 559.33,555.33 559.33,555.33 Z
           M 761.33,616.67
           C 761.33,616.67 761.33,1040.67 761.33,1040.67
             761.33,1040.67 877.33,1040.67 877.33,1040.67
             877.33,1040.67 877.33,616.67 877.33,616.67
             877.33,616.67 761.33,616.67 761.33,616.67 Z
           M 1473.33,616.67
           C 1473.33,616.67 1473.33,1040.67 1473.33,1040.67
             1473.33,1040.67 1589.33,1040.67 1589.33,1040.67
             1589.33,1040.67 1589.33,616.67 1589.33,616.67
             1589.33,616.67 1473.33,616.67 1473.33,616.67 Z" />
  </g>
</svg>
