<svg
  xmlns="http://www.w3.org/2000/svg"
  viewBox="-64 -64 128 128"
  id="fish"
  class="pin"
>
  <g class="drop">
    <path
      fill="#2196f3"
      transform="scale(0.25) translate(-192,-256)"
      d="M172.268 501.67C26.97 291.031 0 269.413 0 192 0 85.961 85.961 0 192 0s192 85.961 192 192c0 77.413-26.97 99.031-172.268 309.67-9.535 13.774-29.93 13.773-39.464 0z"
    />
    <path
      fill="#ffffff"
      transform="translate(0,-20) scale(0.5) translate(-60,-40)"
       d="M 86.10,104.21
           C 85.63,104.02 85.12,103.91 84.58,103.91
             84.04,103.91 83.53,104.02 83.07,104.21
             82.60,104.41 82.17,104.69 81.82,105.05
             81.82,105.05 81.79,105.07 81.79,105.07
             81.59,105.27 81.40,105.50 81.25,105.75
             81.17,105.88 81.09,106.02 81.02,106.17
             81.02,106.17 74.72,106.17 74.72,106.17
             74.72,106.17 74.72,100.69 74.72,100.69
             73.76,101.14 72.75,101.48 71.72,101.69
             71.54,101.73 71.37,101.76 71.19,101.79
             71.19,101.79 71.19,107.94 71.19,107.94
             71.19,108.43 71.39,108.87 71.71,109.19
             72.03,109.51 72.47,109.71 72.96,109.71
             72.96,109.71 81.08,109.71 81.08,109.71
             81.14,109.83 81.21,109.95 81.29,110.07
             81.43,110.28 81.59,110.48 81.77,110.66
             81.77,110.66 81.80,110.69 81.80,110.69
             82.16,111.05 82.60,111.35 83.09,111.55
             83.55,111.74 84.06,111.85 84.60,111.85
             85.12,111.85 85.63,111.75 86.09,111.56
             86.09,111.56 86.12,111.55 86.12,111.55
             86.61,111.35 87.04,111.05 87.41,110.69
             87.77,110.33 88.06,109.89 88.26,109.40
             88.45,108.93 88.56,108.42 88.56,107.88
             88.56,107.34 88.45,106.83 88.26,106.35
             88.06,105.86 87.77,105.42 87.41,105.06
             87.03,104.71 86.59,104.41 86.10,104.21
             86.10,104.21 86.10,104.21 86.10,104.21 Z
           M 57.31,66.68
           C 57.31,66.68 49.93,66.68 49.93,66.68
             49.93,66.68 48.87,70.16 48.87,70.16
             48.87,70.16 42.22,70.16 42.22,70.16
             42.22,70.16 50.15,49.02 50.15,49.02
             50.15,49.02 57.28,49.02 57.28,49.02
             57.28,49.02 65.18,70.16 65.18,70.16
             65.18,70.16 58.37,70.16 58.37,70.16
             58.37,70.16 57.31,66.68 57.31,66.68
             57.31,66.68 57.31,66.68 57.31,66.68 Z
           M 55.93,62.09
           C 55.93,62.09 53.63,54.49 53.63,54.49
             53.63,54.49 51.31,62.09 51.31,62.09
             51.31,62.09 55.93,62.09 55.93,62.09
             55.93,62.09 55.93,62.09 55.93,62.09 Z
           M 67.02,49.01
           C 67.02,49.01 73.56,49.01 73.56,49.01
             73.56,49.01 73.56,70.15 73.56,70.15
             73.56,70.15 67.02,70.15 67.02,70.15
             67.02,70.15 67.02,49.01 67.02,49.01
             67.02,49.01 67.02,49.01 67.02,49.01 Z
           M 62.04,27.34
           C 60.96,28.12 59.96,29.17 59.10,30.53
             59.06,30.60 59.00,30.66 58.93,30.70
             58.66,30.87 58.30,30.79 58.13,30.53
             57.26,29.17 56.26,28.12 55.18,27.34
             54.03,26.50 52.78,25.97 51.49,25.71
             51.49,25.71 51.47,25.71 51.47,25.71
             50.21,25.44 48.93,25.44 47.69,25.67
             46.38,25.90 45.12,26.38 43.98,27.04
             42.85,27.70 41.83,28.55 40.98,29.53
             40.17,30.48 39.51,31.57 39.08,32.74
             39.08,32.74 39.08,32.74 39.08,32.74
             39.01,32.92 38.95,33.11 38.89,33.31
             38.84,33.49 38.78,33.69 38.74,33.89
             38.69,34.15 38.47,34.34 38.19,34.35
             36.85,34.55 35.53,35.04 34.29,35.77
             33.03,36.53 31.86,37.55 30.86,38.77
             29.86,39.99 29.02,41.43 28.42,43.03
             27.86,44.53 27.52,46.19 27.45,47.94
             27.44,48.17 27.44,48.39 27.44,48.62
             27.44,48.83 27.45,49.05 27.45,49.28
             27.46,49.47 27.38,49.67 27.21,49.79
             26.39,50.38 25.66,50.99 25.00,51.62
             24.33,52.27 23.74,52.94 23.23,53.63
             22.40,54.76 21.79,55.94 21.39,57.14
             20.96,58.38 20.75,59.65 20.73,60.90
             20.72,62.10 20.88,63.29 21.22,64.44
             21.55,65.61 22.07,66.76 22.74,67.82
             22.74,67.82 22.74,67.82 22.74,67.82
             23.12,68.43 23.55,69.03 24.02,69.59
             24.50,70.16 25.02,70.70 25.58,71.21
             25.72,71.34 25.80,71.55 25.76,71.75
             25.60,72.51 25.52,73.26 25.49,74.00
             25.47,74.76 25.51,75.51 25.61,76.24
             25.80,77.59 26.18,78.87 26.73,80.05
             27.31,81.31 28.07,82.46 28.95,83.47
             29.80,84.46 30.77,85.32 31.80,86.03
             32.85,86.75 33.96,87.32 35.10,87.71
             35.61,87.88 36.12,88.02 36.65,88.12
             37.15,88.22 37.65,88.28 38.14,88.30
             38.41,88.29 38.66,88.48 38.72,88.76
             38.98,89.95 39.46,91.07 40.12,92.08
             40.80,93.14 41.67,94.08 42.67,94.86
             43.93,95.84 45.40,96.58 46.96,96.97
             48.43,97.34 49.98,97.42 51.49,97.09
             52.85,96.81 54.17,96.23 55.38,95.31
             56.50,94.46 57.54,93.32 58.41,91.84
             58.46,91.75 58.54,91.68 58.64,91.63
             58.92,91.48 59.27,91.59 59.42,91.87
             60.13,93.21 61.01,94.28 61.99,95.09
             63.05,95.96 64.22,96.55 65.44,96.89
             67.01,97.32 68.65,97.32 70.23,96.99
             71.93,96.64 73.57,95.90 74.97,94.88
             76.08,94.09 77.06,93.12 77.84,92.02
             78.57,90.99 79.12,89.84 79.44,88.63
             79.48,88.40 79.66,88.20 79.91,88.16
             81.38,87.90 82.83,87.29 84.15,86.37
             85.48,85.46 86.69,84.26 87.68,82.83
             88.58,81.51 89.31,79.99 89.78,78.33
             90.22,76.77 90.43,75.09 90.36,73.32
             90.34,73.12 90.43,72.92 90.61,72.80
             91.47,72.21 92.23,71.59 92.90,70.96
             93.59,70.30 94.20,69.62 94.72,68.91
             94.72,68.91 94.72,68.91 94.72,68.91
             95.52,67.83 96.11,66.71 96.52,65.55
             96.94,64.36 97.16,63.15 97.20,61.94
             97.23,60.77 97.09,59.61 96.79,58.47
             96.49,57.32 96.02,56.20 95.41,55.15
             95.41,55.15 95.39,55.13 95.39,55.13
             94.99,54.44 94.52,53.78 94.00,53.14
             93.48,52.50 92.89,51.90 92.27,51.33
             92.12,51.20 92.04,50.99 92.08,50.78
             92.22,50.09 92.31,49.40 92.34,48.72
             92.37,48.03 92.35,47.35 92.28,46.68
             92.13,45.28 91.76,43.96 91.22,42.73
             90.65,41.43 89.89,40.23 89.00,39.18
             88.14,38.16 87.16,37.27 86.10,36.53
             85.04,35.78 83.91,35.20 82.77,34.81
             82.77,34.81 82.74,34.80 82.74,34.80
             82.13,34.59 81.51,34.44 80.90,34.34
             80.90,34.34 80.88,34.34 80.88,34.34
             80.28,34.24 79.68,34.20 79.09,34.21
             78.82,34.23 78.56,34.05 78.50,33.77
             78.40,33.36 78.27,32.96 78.12,32.57
             77.96,32.17 77.78,31.78 77.57,31.39
             77.03,30.39 76.32,29.47 75.49,28.68
             74.64,27.87 73.68,27.18 72.64,26.65
             71.57,26.11 70.40,25.73 69.20,25.55
             68.07,25.39 66.90,25.41 65.75,25.66
             64.46,25.97 63.20,26.50 62.04,27.34
             62.04,27.34 62.04,27.34 62.04,27.34 Z
           M 78.36,38.61
           C 78.43,38.39 78.62,38.22 78.87,38.20
             79.29,38.17 79.72,38.19 80.15,38.26
             80.59,38.33 81.03,38.44 81.47,38.59
             82.30,38.87 83.13,39.30 83.89,39.84
             84.65,40.37 85.37,41.02 85.99,41.76
             85.99,41.76 86.00,41.78 86.00,41.78
             86.65,42.55 87.20,43.41 87.61,44.35
             88.00,45.23 88.25,46.18 88.36,47.17
             88.43,47.83 88.43,48.52 88.35,49.22
             88.28,49.87 88.13,50.54 87.91,51.21
             87.91,51.21 87.90,51.25 87.90,51.25
             87.76,51.67 87.77,52.11 87.90,52.50
             88.04,52.90 88.29,53.26 88.66,53.50
             88.66,53.50 88.69,53.52 88.69,53.52
             89.39,54.04 90.01,54.61 90.55,55.21
             91.11,55.82 91.59,56.49 91.99,57.17
             92.43,57.92 92.77,58.70 92.97,59.50
             93.19,60.29 93.29,61.09 93.26,61.88
             93.24,62.70 93.08,63.52 92.80,64.33
             92.52,65.10 92.11,65.86 91.57,66.60
             91.57,66.60 91.56,66.61 91.56,66.61
             91.07,67.29 90.45,67.95 89.72,68.58
             89.02,69.18 88.21,69.75 87.29,70.30
             87.29,70.30 87.26,70.32 87.26,70.32
             86.89,70.53 86.62,70.85 86.46,71.22
             86.30,71.59 86.25,72.00 86.33,72.40
             86.33,72.40 86.34,72.48 86.34,72.48
             86.53,74.01 86.44,75.47 86.13,76.80
             85.79,78.26 85.20,79.56 84.43,80.67
             83.84,81.52 83.17,82.25 82.44,82.83
             81.69,83.43 80.88,83.87 80.05,84.14
             80.05,84.14 80.04,84.14 80.04,84.14
             79.74,84.23 79.41,84.06 79.32,83.76
             78.20,80.07 76.25,78.88 72.96,77.18
             72.96,77.18 72.89,77.14 72.89,77.14
             72.43,76.92 71.93,76.90 71.48,77.04
             71.03,77.18 70.64,77.49 70.41,77.94
             70.41,77.94 70.38,78.00 70.38,78.00
             70.16,78.46 70.14,78.96 70.28,79.41
             70.43,79.86 70.75,80.26 71.21,80.50
             73.96,81.91 76.00,82.98 75.97,86.44
             75.96,87.48 75.64,88.48 75.10,89.38
             74.53,90.33 73.72,91.18 72.77,91.87
             71.80,92.57 70.71,93.08 69.59,93.33
             68.53,93.58 67.43,93.59 66.40,93.31
             64.66,92.83 63.54,91.67 62.78,90.26
             62.06,88.92 61.66,87.36 61.37,85.93
             61.35,85.88 61.35,85.82 61.35,85.77
             61.35,85.05 60.79,84.58 60.06,84.37
             59.74,84.27 59.40,84.23 59.06,84.23
             58.71,84.23 58.37,84.28 58.05,84.37
             57.33,84.59 56.77,85.06 56.77,85.77
             56.77,85.82 56.76,85.86 56.75,85.91
             56.19,88.14 55.38,89.81 54.44,91.01
             53.33,92.42 52.03,93.19 50.69,93.47
             49.72,93.67 48.71,93.62 47.75,93.37
             46.74,93.10 45.78,92.61 44.95,91.97
             44.12,91.32 43.43,90.53 42.95,89.64
             42.49,88.79 42.22,87.85 42.22,86.88
             42.22,83.24 44.42,82.02 47.32,80.53
             47.78,80.29 48.10,79.89 48.25,79.44
             48.40,78.98 48.37,78.47 48.14,78.00
             47.90,77.54 47.50,77.22 47.05,77.07
             46.60,76.93 46.10,76.95 45.64,77.17
             45.64,77.17 45.61,77.18 45.61,77.18
             42.19,78.93 40.15,80.21 38.92,84.02
             38.85,84.27 38.61,84.46 38.34,84.45
             38.00,84.44 37.66,84.40 37.31,84.33
             36.97,84.26 36.63,84.17 36.31,84.05
             35.51,83.77 34.70,83.36 33.94,82.84
             33.19,82.32 32.49,81.70 31.87,80.98
             31.23,80.24 30.69,79.41 30.27,78.50
             29.87,77.65 29.59,76.73 29.45,75.78
             29.45,75.78 29.45,75.76 29.45,75.76
             29.35,75.06 29.33,74.33 29.41,73.58
             29.48,72.88 29.63,72.15 29.88,71.43
             29.88,71.43 29.89,71.40 29.89,71.40
             30.03,70.99 30.02,70.56 29.90,70.18
             29.90,70.18 29.89,70.16 29.89,70.16
             29.76,69.76 29.50,69.41 29.14,69.16
             29.14,69.16 29.12,69.14 29.12,69.14
             28.48,68.66 27.90,68.15 27.39,67.59
             26.87,67.03 26.41,66.42 26.04,65.80
             25.58,65.05 25.22,64.25 24.98,63.43
             24.75,62.63 24.63,61.81 24.64,60.97
             24.65,60.12 24.80,59.25 25.10,58.40
             25.39,57.59 25.81,56.78 26.38,55.98
             26.87,55.31 27.47,54.65 28.19,54.02
             28.88,53.41 29.66,52.83 30.56,52.28
             30.89,52.08 31.12,51.80 31.28,51.48
             31.28,51.48 31.29,51.45 31.29,51.45
             31.45,51.12 31.51,50.75 31.46,50.38
             31.45,50.34 31.45,50.30 31.45,50.26
             31.45,50.26 31.45,50.24 31.45,50.24
             31.40,49.89 31.37,49.54 31.35,49.20
             31.33,48.83 31.33,48.46 31.34,48.10
             31.39,46.79 31.64,45.55 32.05,44.44
             32.49,43.25 33.11,42.18 33.85,41.27
             34.46,40.52 35.16,39.89 35.88,39.40
             36.61,38.91 37.38,38.56 38.17,38.36
             38.17,38.36 38.17,38.36 38.17,38.36
             38.47,38.27 38.80,38.44 38.89,38.74
             39.51,40.70 40.29,41.93 41.77,43.32
             41.77,43.32 41.83,43.37 41.83,43.37
             42.20,43.71 42.68,43.87 43.15,43.85
             43.62,43.83 44.08,43.64 44.42,43.27
             44.42,43.27 44.45,43.23 44.45,43.23
             44.79,42.86 44.95,42.38 44.93,41.91
             44.91,41.44 44.71,40.97 44.33,40.61
             43.13,39.50 42.86,38.81 42.50,37.69
             42.08,36.40 42.15,35.13 42.56,34.01
             42.84,33.24 43.28,32.52 43.84,31.89
             44.39,31.26 45.06,30.70 45.79,30.27
             45.79,30.27 45.82,30.25 45.82,30.25
             46.58,29.81 47.40,29.49 48.25,29.33
             49.06,29.18 49.89,29.17 50.69,29.34
             51.83,29.58 52.95,30.18 53.94,31.22
             54.80,32.13 55.57,33.39 56.18,35.05
             56.18,35.05 56.19,35.07 56.19,35.07
             56.40,35.72 57.08,36.11 57.88,36.26
             58.24,36.33 58.62,36.35 58.99,36.33
             58.99,36.33 59.00,36.33 59.00,36.33
             59.38,36.31 59.73,36.24 60.07,36.13
             60.67,35.93 61.14,35.60 61.25,35.19
             61.25,35.19 61.25,34.96 61.25,34.96
             61.25,33.80 61.94,32.57 62.89,31.56
             63.93,30.46 65.31,29.59 66.48,29.35
             67.22,29.20 67.97,29.19 68.70,29.30
             69.45,29.42 70.19,29.66 70.89,30.01
             70.89,30.01 70.95,30.03 70.95,30.03
             71.66,30.39 72.31,30.85 72.88,31.39
             73.44,31.93 73.91,32.54 74.27,33.21
             74.84,34.26 75.10,35.46 74.92,36.74
             74.76,37.85 74.72,38.55 73.79,39.66
             73.79,39.66 73.78,39.67 73.78,39.67
             73.46,40.06 73.32,40.55 73.36,41.03
             73.40,41.49 73.61,41.94 73.97,42.26
             73.97,42.26 74.03,42.31 74.03,42.31
             74.42,42.63 74.90,42.76 75.37,42.72
             75.83,42.68 76.28,42.47 76.60,42.10
             76.60,42.10 76.65,42.03 76.65,42.03
             77.61,40.89 77.92,40.05 78.36,38.61
             78.36,38.61 78.36,38.61 78.36,38.61 Z
           M 100.27,87.60
           C 100.08,87.12 99.97,86.61 99.97,86.07
             99.97,85.53 100.08,85.02 100.27,84.55
             100.47,84.08 100.75,83.65 101.11,83.30
             101.11,83.30 101.13,83.27 101.13,83.27
             101.33,83.07 101.56,82.88 101.81,82.73
             101.94,82.65 102.08,82.57 102.23,82.50
             102.23,82.50 102.23,76.18 102.23,76.18
             102.23,76.18 94.48,76.18 94.48,76.18
             94.49,75.77 94.49,75.36 94.47,74.94
             94.45,74.71 94.55,74.48 94.75,74.35
             95.55,73.80 96.28,73.23 96.94,72.64
             96.94,72.64 103.98,72.64 103.98,72.64
             104.47,72.64 104.91,72.84 105.23,73.16
             105.55,73.48 105.75,73.92 105.75,74.41
             105.75,74.41 105.75,82.56 105.75,82.56
             105.87,82.62 105.99,82.69 106.11,82.77
             106.32,82.91 106.52,83.07 106.70,83.25
             106.70,83.25 106.73,83.28 106.73,83.28
             107.09,83.64 107.38,84.08 107.58,84.57
             107.77,85.04 107.88,85.55 107.88,86.09
             107.88,86.61 107.78,87.11 107.59,87.59
             107.59,87.59 107.58,87.62 107.58,87.62
             107.38,88.11 107.09,88.54 106.73,88.91
             106.37,89.27 105.93,89.57 105.44,89.77
             104.97,89.96 104.46,90.07 103.92,90.07
             103.39,90.07 102.88,89.96 102.40,89.77
             101.92,89.57 101.48,89.27 101.12,88.91
             100.77,88.53 100.47,88.09 100.27,87.60
             100.27,87.60 100.27,87.60 100.27,87.60 Z
           M 111.49,67.33
           C 111.49,67.33 100.96,67.33 100.96,67.33
             101.14,66.94 101.30,66.54 101.44,66.14
             101.72,65.36 101.92,64.57 102.04,63.78
             102.04,63.78 111.49,63.78 111.49,63.78
             111.56,63.65 111.63,63.52 111.71,63.39
             111.86,63.15 112.03,62.93 112.22,62.74
             112.59,62.37 113.02,62.08 113.51,61.88
             113.98,61.69 114.49,61.58 115.03,61.58
             115.55,61.58 116.05,61.68 116.52,61.87
             116.52,61.87 116.55,61.88 116.55,61.88
             117.03,62.08 117.46,62.38 117.83,62.74
             118.19,63.10 118.49,63.54 118.69,64.03
             118.88,64.50 118.99,65.01 118.99,65.55
             118.99,66.08 118.88,66.59 118.69,67.08
             118.49,67.57 118.19,68.01 117.83,68.37
             117.47,68.73 117.03,69.03 116.55,69.23
             116.08,69.42 115.57,69.53 115.03,69.53
             114.51,69.53 114.01,69.43 113.54,69.24
             113.54,69.24 113.51,69.23 113.51,69.23
             113.02,69.03 112.59,68.73 112.22,68.37
             112.03,68.18 111.86,67.97 111.72,67.74
             111.72,67.74 111.70,67.71 111.70,67.71
             111.63,67.59 111.56,67.46 111.49,67.33
             111.49,67.33 111.49,67.33 111.49,67.33 Z
           M 114.84,57.64
           C 114.84,57.64 101.60,57.64 101.60,57.64
             101.26,56.52 100.78,55.42 100.18,54.38
             100.18,54.38 100.16,54.35 100.16,54.35
             100.11,54.26 100.06,54.18 100.01,54.09
             100.01,54.09 113.08,54.09 113.08,54.09
             113.08,54.09 113.08,42.53 113.08,42.53
             112.98,42.47 112.88,42.41 112.78,42.34
             112.58,42.20 112.40,42.05 112.23,41.88
             111.87,41.52 111.58,41.08 111.38,40.59
             111.19,40.12 111.08,39.61 111.08,39.07
             111.08,38.54 111.19,38.02 111.38,37.55
             111.58,37.06 111.87,36.63 112.23,36.26
             112.59,35.90 113.03,35.59 113.52,35.39
             113.99,35.20 114.50,35.09 115.04,35.09
             115.57,35.09 116.08,35.20 116.56,35.39
             117.04,35.59 117.48,35.90 117.84,36.26
             118.20,36.62 118.50,37.06 118.70,37.55
             118.89,38.02 119.00,38.53 119.00,39.07
             119.00,39.59 118.90,40.09 118.71,40.56
             118.71,40.56 118.70,40.59 118.70,40.59
             118.50,41.08 118.20,41.51 117.84,41.88
             117.62,42.10 117.36,42.30 117.09,42.47
             116.94,42.56 116.77,42.65 116.62,42.72
             116.62,42.72 116.62,55.85 116.62,55.85
             116.62,56.34 116.42,56.79 116.10,57.11
             115.77,57.44 115.33,57.64 114.84,57.64
             114.84,57.64 114.84,57.64 114.84,57.64 Z
           M 101.00,49.09
           C 101.00,49.09 96.49,49.09 96.49,49.09
             96.61,48.43 96.68,47.77 96.71,47.11
             96.73,46.58 96.73,46.05 96.70,45.54
             96.70,45.54 99.23,45.54 99.23,45.54
             99.23,45.54 99.23,40.32 99.23,40.32
             99.09,40.25 98.96,40.18 98.83,40.09
             98.59,39.94 98.37,39.76 98.16,39.55
             98.16,39.55 98.16,39.55 98.16,39.55
             97.80,39.19 97.51,38.75 97.31,38.26
             97.12,37.79 97.01,37.28 97.01,36.75
             97.01,36.22 97.12,35.70 97.31,35.22
             97.51,34.75 97.78,34.32 98.13,33.96
             98.13,33.96 98.16,33.93 98.16,33.93
             98.52,33.57 98.96,33.27 99.45,33.07
             99.92,32.88 100.43,32.77 100.97,32.77
             101.51,32.77 102.02,32.88 102.48,33.07
             102.95,33.27 103.38,33.55 103.74,33.91
             103.74,33.91 103.77,33.93 103.77,33.93
             104.13,34.29 104.42,34.71 104.62,35.19
             104.62,35.19 104.63,35.22 104.63,35.22
             104.82,35.69 104.93,36.21 104.93,36.75
             104.93,37.28 104.82,37.80 104.63,38.27
             104.43,38.74 104.15,39.17 103.80,39.53
             103.80,39.53 103.77,39.56 103.77,39.56
             103.58,39.75 103.37,39.92 103.13,40.08
             103.01,40.16 102.89,40.23 102.76,40.29
             102.76,40.29 102.76,47.32 102.76,47.32
             102.76,47.81 102.56,48.25 102.25,48.57
             101.93,48.89 101.48,49.09 101.00,49.09
             101.00,49.09 101.00,49.09 101.00,49.09 Z
           M 31.06,18.79
           C 31.53,18.98 32.04,19.09 32.58,19.09
             33.12,19.09 33.63,18.98 34.10,18.79
             34.57,18.59 35.00,18.31 35.35,17.95
             35.35,17.95 35.38,17.93 35.38,17.93
             35.58,17.73 35.76,17.50 35.91,17.25
             35.99,17.12 36.07,16.98 36.14,16.83
             36.14,16.83 42.44,16.83 42.44,16.83
             42.44,16.83 42.44,22.28 42.44,22.28
             43.55,21.69 44.75,21.26 45.97,21.01
             45.97,21.01 45.97,15.05 45.97,15.05
             45.97,14.56 45.77,14.12 45.45,13.80
             45.14,13.48 44.70,13.28 44.21,13.28
             44.21,13.28 36.08,13.28 36.08,13.28
             36.02,13.16 35.95,13.04 35.87,12.92
             35.73,12.71 35.58,12.51 35.40,12.33
             35.40,12.33 35.37,12.30 35.37,12.30
             35.01,11.94 34.57,11.64 34.08,11.44
             33.61,11.25 33.10,11.14 32.56,11.14
             32.04,11.14 31.53,11.24 31.07,11.43
             31.07,11.43 31.04,11.44 31.04,11.44
             30.56,11.64 30.13,11.94 29.76,12.30
             29.40,12.66 29.10,13.10 28.90,13.59
             28.71,14.06 28.60,14.57 28.60,15.11
             28.60,15.65 28.71,16.16 28.90,16.64
             29.10,17.13 29.40,17.57 29.76,17.93
             30.15,18.29 30.58,18.59 31.06,18.79
             31.06,18.79 31.06,18.79 31.06,18.79 Z
           M 51.28,7.54
           C 51.28,7.54 51.28,21.21 51.28,21.21
             52.46,21.55 53.61,22.09 54.69,22.87
             54.69,22.87 54.80,22.96 54.80,22.96
             54.80,22.93 54.81,22.90 54.81,22.87
             54.81,22.87 54.81,7.54 54.81,7.54
             54.94,7.47 55.07,7.40 55.20,7.32
             55.44,7.17 55.66,6.99 55.85,6.80
             56.21,6.43 56.51,6.00 56.71,5.51
             56.90,5.03 57.01,4.52 57.01,3.98
             57.01,3.46 56.91,2.96 56.72,2.49
             56.72,2.49 56.71,2.46 56.71,2.46
             56.51,1.97 56.21,1.54 55.85,1.17
             55.49,0.81 55.05,0.51 54.57,0.31
             54.10,0.12 53.59,0.01 53.05,0.01
             52.52,0.01 52.01,0.12 51.53,0.31
             51.04,0.51 50.60,0.81 50.24,1.17
             49.89,1.53 49.59,1.97 49.39,2.46
             49.20,2.93 49.09,3.44 49.09,3.98
             49.09,4.50 49.19,5.00 49.38,5.48
             49.38,5.48 49.39,5.51 49.39,5.51
             49.59,6.00 49.89,6.43 50.24,6.80
             50.43,6.99 50.64,7.16 50.87,7.31
             50.87,7.31 50.89,7.32 50.89,7.32
             51.02,7.40 51.14,7.47 51.28,7.54
             51.28,7.54 51.28,7.54 51.28,7.54 Z
           M 60.93,4.17
           C 60.93,4.17 60.93,24.17 60.93,24.17
             61.41,23.68 61.92,23.25 62.44,22.87
             63.09,22.40 63.77,22.01 64.46,21.71
             64.46,21.71 64.46,5.94 64.46,5.94
             64.46,5.94 75.99,5.94 75.99,5.94
             76.05,6.04 76.11,6.14 76.18,6.24
             76.32,6.44 76.47,6.62 76.64,6.79
             77.00,7.15 77.44,7.45 77.93,7.65
             78.40,7.84 78.90,7.95 79.44,7.95
             79.97,7.95 80.49,7.84 80.96,7.65
             81.45,7.45 81.89,7.15 82.25,6.79
             82.61,6.43 82.91,5.99 83.11,5.50
             83.30,5.02 83.40,4.51 83.40,3.97
             83.40,3.44 83.30,2.93 83.11,2.45
             82.91,1.96 82.61,1.52 82.25,1.16
             81.87,0.80 81.43,0.50 80.94,0.30
             80.47,0.11 79.96,0.00 79.43,0.00
             78.91,0.00 78.42,0.10 77.95,0.29
             77.95,0.29 77.92,0.30 77.92,0.30
             77.43,0.50 77.00,0.80 76.63,1.16
             76.41,1.38 76.21,1.64 76.04,1.91
             75.95,2.06 75.86,2.23 75.79,2.39
             75.79,2.39 62.70,2.39 62.70,2.39
             62.21,2.39 61.77,2.59 61.45,2.91
             61.13,3.24 60.93,3.68 60.93,4.17
             60.93,4.17 60.93,4.17 60.93,4.17 Z
           M 69.45,18.06
           C 69.45,18.06 69.45,20.80 69.45,20.80
             69.81,20.82 70.18,20.85 70.54,20.91
             71.38,21.03 72.20,21.24 72.99,21.53
             72.99,21.53 72.99,19.84 72.99,19.84
             72.99,19.84 78.20,19.84 78.20,19.84
             78.27,19.98 78.34,20.11 78.43,20.24
             78.57,20.48 78.75,20.70 78.96,20.91
             78.96,20.91 78.96,20.91 78.96,20.91
             79.32,21.27 79.76,21.57 80.25,21.77
             80.72,21.96 81.23,22.07 81.76,22.07
             82.29,22.07 82.80,21.96 83.28,21.77
             83.74,21.57 84.17,21.29 84.53,20.94
             84.53,20.94 84.56,20.91 84.56,20.91
             84.92,20.55 85.22,20.11 85.42,19.62
             85.61,19.15 85.72,18.64 85.72,18.10
             85.72,17.56 85.61,17.05 85.42,16.58
             85.22,16.11 84.94,15.68 84.58,15.31
             84.58,15.31 84.56,15.28 84.56,15.28
             84.20,14.92 83.78,14.63 83.30,14.43
             83.30,14.43 83.28,14.42 83.28,14.42
             82.81,14.23 82.30,14.12 81.76,14.12
             81.23,14.12 80.71,14.23 80.24,14.42
             79.77,14.62 79.34,14.90 78.98,15.25
             78.98,15.25 78.95,15.28 78.95,15.28
             78.76,15.48 78.59,15.69 78.44,15.93
             78.36,16.05 78.29,16.17 78.23,16.30
             78.23,16.30 71.22,16.30 71.22,16.30
             70.73,16.30 70.29,16.50 69.97,16.82
             69.65,17.13 69.45,17.57 69.45,18.06
             69.45,18.06 69.45,18.06 69.45,18.06 Z
           M 18.73,35.23
           C 18.92,35.70 19.03,36.22 19.03,36.76
             19.03,37.30 18.92,37.81 18.73,38.28
             18.53,38.75 18.25,39.18 17.89,39.53
             17.89,39.53 17.87,39.56 17.87,39.56
             17.67,39.76 17.44,39.95 17.19,40.10
             17.06,40.18 16.92,40.26 16.77,40.33
             16.77,40.33 16.77,46.65 16.77,46.65
             16.77,46.65 23.31,46.65 23.31,46.65
             23.31,46.65 23.31,46.96 23.31,46.96
             23.31,47.20 23.32,47.45 23.33,47.71
             23.35,47.93 23.25,48.15 23.06,48.29
             22.20,48.90 21.43,49.54 20.74,50.19
             20.74,50.19 15.03,50.19 15.03,50.19
             14.54,50.19 14.10,49.99 13.78,49.67
             13.46,49.35 13.26,48.91 13.26,48.42
             13.26,48.42 13.26,40.27 13.26,40.27
             13.14,40.21 13.02,40.14 12.90,40.06
             12.69,39.92 12.49,39.76 12.31,39.58
             12.31,39.58 12.28,39.55 12.28,39.55
             11.92,39.19 11.63,38.75 11.43,38.26
             11.24,37.79 11.13,37.28 11.13,36.74
             11.13,36.22 11.23,35.71 11.42,35.24
             11.42,35.24 11.43,35.21 11.43,35.21
             11.63,34.72 11.92,34.29 12.28,33.92
             12.64,33.56 13.08,33.26 13.57,33.06
             14.04,32.87 14.55,32.76 15.09,32.76
             15.62,32.76 16.13,32.87 16.61,33.06
             17.09,33.26 17.53,33.56 17.89,33.92
             18.23,34.30 18.53,34.74 18.73,35.23
             18.73,35.23 18.73,35.23 18.73,35.23 Z
           M 7.51,55.50
           C 7.51,55.50 16.89,55.50 16.89,55.50
             16.73,55.86 16.60,56.23 16.47,56.60
             16.19,57.41 15.99,58.22 15.87,59.04
             15.87,59.04 7.51,59.04 7.51,59.04
             7.44,59.17 7.37,59.30 7.29,59.43
             7.14,59.67 6.97,59.89 6.78,60.08
             6.41,60.45 5.98,60.74 5.49,60.94
             5.02,61.13 4.51,61.24 3.97,61.24
             3.45,61.24 2.95,61.14 2.48,60.95
             2.48,60.95 2.45,60.94 2.45,60.94
             1.97,60.74 1.54,60.44 1.17,60.08
             0.81,59.72 0.51,59.28 0.31,58.79
             0.12,58.32 0.01,57.81 0.01,57.27
             0.01,56.74 0.12,56.22 0.31,55.74
             0.51,55.25 0.81,54.81 1.17,54.45
             1.53,54.09 1.97,53.79 2.45,53.59
             2.92,53.40 3.43,53.29 3.97,53.29
             4.49,53.29 4.99,53.39 5.46,53.58
             5.46,53.58 5.49,53.59 5.49,53.59
             5.98,53.79 6.41,54.09 6.78,54.45
             6.97,54.64 7.14,54.85 7.28,55.08
             7.28,55.08 7.30,55.11 7.30,55.11
             7.37,55.24 7.44,55.37 7.51,55.50
             7.51,55.50 7.51,55.50 7.51,55.50 Z
           M 4.16,65.19
           C 4.16,65.19 16.37,65.19 16.37,65.19
             16.74,66.40 17.29,67.58 17.99,68.69
             17.99,68.69 17.99,68.70 17.99,68.70
             17.99,68.70 18.01,68.74 18.01,68.74
             18.01,68.74 5.92,68.74 5.92,68.74
             5.92,68.74 5.92,80.30 5.92,80.30
             6.02,80.36 6.12,80.42 6.22,80.49
             6.42,80.63 6.60,80.78 6.77,80.95
             7.13,81.31 7.42,81.75 7.62,82.24
             7.81,82.71 7.92,83.22 7.92,83.76
             7.92,84.29 7.81,84.81 7.62,85.28
             7.42,85.77 7.13,86.20 6.77,86.57
             6.41,86.93 5.97,87.24 5.48,87.44
             5.01,87.63 4.50,87.74 3.96,87.74
             3.43,87.74 2.92,87.63 2.44,87.44
             1.96,87.24 1.52,86.93 1.16,86.57
             0.80,86.18 0.50,85.74 0.30,85.26
             0.11,84.79 0.00,84.28 0.00,83.74
             0.00,83.22 0.10,82.72 0.29,82.25
             0.29,82.25 0.30,82.22 0.30,82.22
             0.50,81.73 0.80,81.30 1.16,80.93
             1.38,80.71 1.64,80.51 1.91,80.34
             2.06,80.25 2.23,80.16 2.38,80.09
             2.38,80.09 2.38,66.96 2.38,66.96
             2.38,66.46 2.58,66.02 2.90,65.70
             3.23,65.39 3.67,65.19 4.16,65.19
             4.16,65.19 4.16,65.19 4.16,65.19 Z
           M 18.00,73.74
           C 18.00,73.74 21.30,73.74 21.30,73.74
             21.19,74.40 21.13,75.05 21.11,75.69
             21.09,76.23 21.10,76.76 21.14,77.29
             21.14,77.29 19.77,77.29 19.77,77.29
             19.77,77.29 19.77,82.51 19.77,82.51
             19.91,82.58 20.04,82.65 20.17,82.74
             20.41,82.89 20.63,83.07 20.84,83.28
             20.84,83.28 20.84,83.28 20.84,83.28
             21.20,83.64 21.49,84.08 21.69,84.57
             21.88,85.04 21.99,85.55 21.99,86.09
             21.99,86.63 21.88,87.14 21.69,87.62
             21.49,88.09 21.22,88.52 20.87,88.88
             20.87,88.88 20.84,88.91 20.84,88.91
             20.48,89.27 20.04,89.57 19.55,89.77
             19.08,89.96 18.57,90.07 18.03,90.07
             17.49,90.07 16.98,89.96 16.52,89.77
             16.05,89.57 15.62,89.29 15.26,88.93
             15.26,88.93 15.23,88.91 15.23,88.91
             14.87,88.55 14.58,88.13 14.38,87.65
             14.38,87.65 14.37,87.62 14.37,87.62
             14.18,87.15 14.07,86.63 14.07,86.09
             14.07,85.56 14.18,85.04 14.37,84.57
             14.57,84.10 14.85,83.67 15.20,83.31
             15.20,83.31 15.23,83.28 15.23,83.28
             15.42,83.09 15.63,82.92 15.87,82.76
             15.99,82.68 16.11,82.61 16.24,82.55
             16.24,82.55 16.24,75.52 16.24,75.52
             16.24,75.03 16.44,74.59 16.75,74.27
             17.07,73.93 17.51,73.74 18.00,73.74
             18.00,73.74 18.00,73.74 18.00,73.74 Z
           M 65.89,115.46
           C 65.89,115.46 65.89,101.46 65.89,101.46
             64.64,101.07 63.47,100.44 62.39,99.55
             62.39,99.55 62.37,99.53 62.37,99.53
             62.37,99.53 62.37,115.47 62.37,115.47
             62.24,115.54 62.11,115.61 61.98,115.69
             61.74,115.84 61.52,116.02 61.33,116.21
             60.97,116.58 60.67,117.01 60.47,117.50
             60.28,117.98 60.17,118.49 60.17,119.03
             60.17,119.55 60.27,120.05 60.46,120.52
             60.46,120.52 60.47,120.55 60.47,120.55
             60.67,121.04 60.97,121.47 61.33,121.84
             61.69,122.20 62.13,122.50 62.62,122.70
             63.09,122.89 63.60,123.00 64.14,123.00
             64.66,123.00 65.17,122.89 65.65,122.70
             66.14,122.50 66.58,122.20 66.94,121.84
             67.30,121.48 67.60,121.04 67.80,120.55
             67.99,120.08 68.10,119.57 68.10,119.03
             68.10,118.51 68.00,118.01 67.81,117.53
             67.81,117.53 67.80,117.50 67.80,117.50
             67.60,117.01 67.30,116.58 66.94,116.21
             66.75,116.02 66.54,115.85 66.31,115.70
             66.31,115.70 66.28,115.68 66.28,115.68
             66.15,115.60 66.02,115.53 65.89,115.46
             65.89,115.46 65.89,115.46 65.89,115.46 Z
           M 56.23,118.83
           C 56.23,118.83 56.23,98.65 56.23,98.65
             55.81,99.08 55.37,99.46 54.91,99.81
             54.21,100.35 53.47,100.78 52.70,101.12
             52.70,101.12 52.70,117.07 52.70,117.07
             52.70,117.07 41.17,117.07 41.17,117.07
             41.11,116.97 41.05,116.87 40.98,116.77
             40.84,116.57 40.69,116.39 40.52,116.22
             40.17,115.86 39.73,115.56 39.24,115.36
             38.77,115.17 38.26,115.06 37.72,115.06
             37.19,115.06 36.67,115.17 36.20,115.36
             35.71,115.56 35.29,115.86 34.92,116.22
             34.56,116.58 34.26,117.02 34.06,117.51
             33.87,117.99 33.76,118.50 33.76,119.04
             33.76,119.57 33.87,120.08 34.06,120.56
             34.26,121.05 34.56,121.49 34.92,121.85
             35.28,122.21 35.71,122.51 36.20,122.71
             36.67,122.90 37.18,123.01 37.72,123.01
             38.24,123.01 38.74,122.91 39.21,122.72
             39.21,122.72 39.24,122.71 39.24,122.71
             39.73,122.51 40.16,122.21 40.52,121.85
             40.74,121.63 40.94,121.37 41.11,121.10
             41.20,120.95 41.29,120.78 41.36,120.62
             41.36,120.62 54.46,120.62 54.46,120.62
             54.94,120.62 55.38,120.42 55.70,120.10
             56.03,119.76 56.23,119.32 56.23,118.83
             56.23,118.83 56.23,118.83 56.23,118.83 Z
           M 47.71,104.94
           C 47.71,104.94 47.71,102.03 47.71,102.03
             46.93,101.99 46.15,101.87 45.39,101.68
             44.99,101.58 44.58,101.45 44.18,101.31
             44.18,101.31 44.18,103.18 44.18,103.18
             44.18,103.18 38.97,103.18 38.97,103.18
             38.90,103.04 38.83,102.91 38.74,102.78
             38.59,102.54 38.41,102.32 38.20,102.11
             38.20,102.11 38.20,102.11 38.20,102.11
             37.84,101.75 37.40,101.45 36.91,101.25
             36.44,101.06 35.93,100.95 35.41,100.95
             34.88,100.95 34.37,101.06 33.89,101.25
             33.42,101.45 32.99,101.73 32.63,102.08
             32.63,102.08 32.60,102.10 32.60,102.10
             32.24,102.46 31.94,102.90 31.74,103.39
             31.55,103.86 31.44,104.37 31.44,104.91
             31.44,105.45 31.55,105.96 31.74,106.43
             31.94,106.90 32.22,107.33 32.58,107.70
             32.58,107.70 32.60,107.73 32.60,107.73
             32.96,108.09 33.38,108.38 33.86,108.58
             33.86,108.58 33.89,108.59 33.89,108.59
             34.36,108.78 34.87,108.89 35.41,108.89
             35.93,108.89 36.44,108.78 36.92,108.59
             37.39,108.39 37.82,108.11 38.18,107.76
             38.18,107.76 38.21,107.73 38.21,107.73
             38.40,107.53 38.57,107.32 38.73,107.08
             38.81,106.96 38.88,106.84 38.94,106.71
             38.94,106.71 45.94,106.71 45.94,106.71
             46.43,106.71 46.87,106.51 47.19,106.19
             47.51,105.87 47.71,105.43 47.71,104.94
             47.71,104.94 47.71,104.94 47.71,104.94 Z" />
    />
  </g>
</svg>
