<svg
  xmlns="http://www.w3.org/2000/svg"
  viewBox="-64 -64 128 128"
  id="fish"
  class="pin"
>
  <g class="drop">
    <path
      fill="#2196f3"
      transform="scale(0.25) translate(-192,-256)"
      d="M172.268 501.67C26.97 291.031 0 269.413 0 192 0 85.961 85.961 0 192 0s192 85.961 192 192c0 77.413-26.97 99.031-172.268 309.67-9.535 13.774-29.93 13.773-39.464 0z"
    />
    <path
      fill="#ffffff"
      transform="translate(0,-20) scale(1.5) translate(-288,-256)"
        d="M 23.50,26.50
           C 23.50,23.46 25.96,21.00 29.00,21.00
             32.04,21.00 34.50,23.46 34.50,26.50
             34.50,29.54 32.04,32.00 29.00,32.00
             25.96,32.00 23.50,29.54 23.50,26.50 Z
           M 29.00,20.00
           C 25.41,20.00 22.50,22.91 22.50,26.50
             22.50,28.99 23.89,31.14 25.94,32.24
             25.94,32.24 20.64,44.36 20.64,44.36
             19.97,44.13 19.25,44.00 18.50,44.00
             14.91,44.00 12.00,46.91 12.00,50.50
             12.00,54.09 14.91,57.00 18.50,57.00
             19.25,57.00 19.97,56.87 20.64,56.64
             20.64,56.64 25.94,68.76 25.94,68.76
             23.89,69.86 22.50,72.01 22.50,74.50
             22.50,78.09 25.41,81.00 29.00,81.00
             32.59,81.00 35.50,78.09 35.50,74.50
             35.50,73.71 35.36,72.96 35.10,72.26
             35.10,72.26 42.06,69.08 42.06,69.08
             42.06,69.08 44.54,70.97 44.54,70.97
             43.88,71.99 43.50,73.20 43.50,74.50
             43.50,78.09 46.41,81.00 50.00,81.00
             53.59,81.00 56.50,78.09 56.50,74.50
             56.50,73.20 56.12,71.99 55.46,70.97
             55.46,70.97 57.94,69.08 57.94,69.08
             57.94,69.08 64.90,72.26 64.90,72.26
             64.64,72.96 64.50,73.71 64.50,74.50
             64.50,78.09 67.41,81.00 71.00,81.00
             74.59,81.00 77.50,78.09 77.50,74.50
             77.50,72.01 76.11,69.86 74.06,68.76
             74.06,68.76 79.36,56.64 79.36,56.64
             80.03,56.87 80.75,57.00 81.50,57.00
             85.09,57.00 88.00,54.09 88.00,50.50
             88.00,46.91 85.09,44.00 81.50,44.00
             80.75,44.00 80.03,44.13 79.36,44.36
             79.36,44.36 74.06,32.24 74.06,32.24
             76.11,31.14 77.50,28.99 77.50,26.50
             77.50,22.91 74.59,20.00 71.00,20.00
             67.41,20.00 64.50,22.91 64.50,26.50
             64.50,27.29 64.64,28.04 64.90,28.74
             64.90,28.74 57.94,31.92 57.94,31.92
             57.94,31.92 55.46,30.03 55.46,30.03
             56.12,29.01 56.50,27.80 56.50,26.50
             56.50,22.91 53.59,20.00 50.00,20.00
             46.41,20.00 43.50,22.91 43.50,26.50
             43.50,27.80 43.88,29.01 44.54,30.03
             44.54,30.03 42.06,31.92 42.06,31.92
             42.06,31.92 35.10,28.74 35.10,28.74
             35.36,28.04 35.50,27.29 35.50,26.50
             35.50,22.91 32.59,20.00 29.00,20.00 Z
           M 73.14,68.36
           C 73.14,68.36 78.44,56.24 78.44,56.24
             77.76,55.88 77.16,55.40 76.65,54.83
             76.65,54.83 66.37,62.66 66.37,62.66
             66.37,62.66 68.86,68.36 68.86,68.36
             69.53,68.13 70.25,68.00 71.00,68.00
             71.75,68.00 72.47,68.13 73.14,68.36 Z
           M 67.94,68.76
           C 67.94,68.76 65.55,63.28 65.55,63.28
             65.55,63.28 61.33,66.50 61.33,66.50
             61.33,66.50 66.15,70.17 66.15,70.17
             66.66,69.60 67.26,69.12 67.94,68.76 Z
           M 65.54,70.97
           C 65.54,70.97 60.50,67.13 60.50,67.13
             60.50,67.13 58.84,68.39 58.84,68.39
             58.84,68.39 65.31,71.35 65.31,71.35
             65.38,71.22 65.46,71.09 65.54,70.97 Z
           M 46.94,68.76
           C 46.26,69.12 45.66,69.60 45.15,70.17
             45.15,70.17 43.09,68.61 43.09,68.61
             43.09,68.61 46.25,67.17 46.25,67.17
             46.25,67.17 46.94,68.76 46.94,68.76 Z
           M 50.00,68.00
           C 49.25,68.00 48.53,68.13 47.86,68.36
             47.86,68.36 47.16,66.75 47.16,66.75
             47.16,66.75 50.00,65.45 50.00,65.45
             50.00,65.45 52.84,66.75 52.84,66.75
             52.84,66.75 52.14,68.36 52.14,68.36
             51.47,68.13 50.75,68.00 50.00,68.00 Z
           M 54.85,70.17
           C 54.34,69.60 53.74,69.12 53.06,68.76
             53.06,68.76 53.75,67.17 53.75,67.17
             53.75,67.17 56.91,68.61 56.91,68.61
             56.91,68.61 54.85,70.17 54.85,70.17 Z
           M 34.69,71.35
           C 34.69,71.35 41.16,68.39 41.16,68.39
             41.16,68.39 39.50,67.13 39.50,67.13
             39.50,67.13 34.46,70.97 34.46,70.97
             34.54,71.09 34.62,71.22 34.69,71.35 Z
           M 33.85,70.17
           C 33.85,70.17 38.68,66.50 38.68,66.50
             38.68,66.50 34.45,63.28 34.45,63.28
             34.45,63.28 32.06,68.76 32.06,68.76
             32.74,69.12 33.34,69.60 33.85,70.17 Z
           M 31.14,68.36
           C 31.14,68.36 33.63,62.66 33.63,62.66
             33.63,62.66 23.35,54.83 23.35,54.83
             22.84,55.40 22.24,55.88 21.56,56.24
             21.56,56.24 26.86,68.36 26.86,68.36
             27.53,68.13 28.25,68.00 29.00,68.00
             29.75,68.00 30.47,68.13 31.14,68.36 Z
           M 75.81,53.65
           C 75.88,53.78 75.96,53.91 76.04,54.03
             76.04,54.03 65.95,61.72 65.95,61.72
             65.95,61.72 64.66,58.75 64.66,58.75
             64.66,58.75 75.81,53.65 75.81,53.65 Z
           M 75.00,50.50
           C 75.00,51.29 75.14,52.04 75.40,52.74
             75.40,52.74 64.25,57.83 64.25,57.83
             64.25,57.83 63.56,56.24 63.56,56.24
             65.61,55.14 67.00,52.99 67.00,50.50
             67.00,48.01 65.61,45.86 63.56,44.76
             63.56,44.76 64.25,43.17 64.25,43.17
             64.25,43.17 75.40,48.26 75.40,48.26
             75.14,48.96 75.00,49.71 75.00,50.50 Z
           M 76.04,46.97
           C 75.96,47.09 75.88,47.22 75.81,47.35
             75.81,47.35 64.66,42.25 64.66,42.25
             64.66,42.25 65.95,39.28 65.95,39.28
             65.95,39.28 76.04,46.97 76.04,46.97 Z
           M 78.44,44.76
           C 77.76,45.12 77.16,45.60 76.65,46.17
             76.65,46.17 66.37,38.34 66.37,38.34
             66.37,38.34 68.86,32.64 68.86,32.64
             69.53,32.87 70.25,33.00 71.00,33.00
             71.75,33.00 72.47,32.87 73.14,32.64
             73.14,32.64 78.44,44.76 78.44,44.76 Z
           M 62.64,44.36
           C 62.64,44.36 63.34,42.75 63.34,42.75
             63.34,42.75 56.23,39.50 56.23,39.50
             56.23,39.50 58.36,44.36 58.36,44.36
             59.03,44.13 59.75,44.00 60.50,44.00
             61.25,44.00 61.97,44.13 62.64,44.36 Z
           M 57.44,44.76
           C 57.44,44.76 55.05,39.28 55.05,39.28
             55.05,39.28 50.83,42.50 50.83,42.50
             50.83,42.50 55.65,46.17 55.65,46.17
             56.16,45.60 56.76,45.12 57.44,44.76 Z
           M 55.04,46.97
           C 55.04,46.97 50.00,43.13 50.00,43.13
             50.00,43.13 44.96,46.97 44.96,46.97
             45.62,47.99 46.00,49.20 46.00,50.50
             46.00,51.80 45.62,53.01 44.96,54.03
             44.96,54.03 50.00,57.87 50.00,57.87
             50.00,57.87 55.04,54.03 55.04,54.03
             54.38,53.01 54.00,51.80 54.00,50.50
             54.00,49.20 54.38,47.99 55.04,46.97 Z
           M 55.65,54.83
           C 55.65,54.83 50.83,58.50 50.83,58.50
             50.83,58.50 55.05,61.72 55.05,61.72
             55.05,61.72 57.44,56.24 57.44,56.24
             56.76,55.88 56.16,55.40 55.65,54.83 Z
           M 58.36,56.64
           C 58.36,56.64 56.23,61.50 56.23,61.50
             56.23,61.50 63.34,58.25 63.34,58.25
             63.34,58.25 62.64,56.64 62.64,56.64
             61.97,56.87 61.25,57.00 60.50,57.00
             59.75,57.00 59.03,56.87 58.36,56.64 Z
           M 42.56,56.24
           C 43.24,55.88 43.84,55.40 44.35,54.83
             44.35,54.83 49.18,58.50 49.18,58.50
             49.18,58.50 44.95,61.72 44.95,61.72
             44.95,61.72 42.56,56.24 42.56,56.24 Z
           M 39.50,57.00
           C 40.25,57.00 40.97,56.87 41.64,56.64
             41.64,56.64 43.77,61.50 43.77,61.50
             43.77,61.50 36.66,58.25 36.66,58.25
             36.66,58.25 37.36,56.64 37.36,56.64
             38.03,56.87 38.75,57.00 39.50,57.00 Z
           M 33.00,50.50
           C 33.00,52.99 34.39,55.14 36.44,56.24
             36.44,56.24 35.75,57.83 35.75,57.83
             35.75,57.83 24.60,52.74 24.60,52.74
             24.86,52.04 25.00,51.29 25.00,50.50
             25.00,49.71 24.86,48.96 24.60,48.26
             24.60,48.26 35.75,43.17 35.75,43.17
             35.75,43.17 36.44,44.76 36.44,44.76
             34.39,45.86 33.00,48.01 33.00,50.50 Z
           M 39.50,44.00
           C 38.75,44.00 38.03,44.13 37.36,44.36
             37.36,44.36 36.66,42.75 36.66,42.75
             36.66,42.75 43.77,39.50 43.77,39.50
             43.77,39.50 41.64,44.36 41.64,44.36
             40.97,44.13 40.25,44.00 39.50,44.00 Z
           M 44.35,46.17
           C 43.84,45.60 43.24,45.12 42.56,44.76
             42.56,44.76 44.95,39.28 44.95,39.28
             44.95,39.28 49.18,42.50 49.18,42.50
             49.18,42.50 44.35,46.17 44.35,46.17 Z
           M 34.69,29.65
           C 34.62,29.78 34.54,29.91 34.46,30.03
             34.46,30.03 39.50,33.87 39.50,33.87
             39.50,33.87 41.16,32.61 41.16,32.61
             41.16,32.61 34.69,29.65 34.69,29.65 Z
           M 33.85,30.83
           C 33.34,31.40 32.74,31.88 32.06,32.24
             32.06,32.24 34.45,37.72 34.45,37.72
             34.45,37.72 38.68,34.50 38.68,34.50
             38.68,34.50 33.85,30.83 33.85,30.83 Z
           M 31.14,32.64
           C 30.47,32.87 29.75,33.00 29.00,33.00
             28.25,33.00 27.53,32.87 26.86,32.64
             26.86,32.64 21.56,44.76 21.56,44.76
             22.24,45.12 22.84,45.60 23.35,46.17
             23.35,46.17 33.63,38.34 33.63,38.34
             33.63,38.34 31.14,32.64 31.14,32.64 Z
           M 45.15,30.83
           C 45.15,30.83 43.09,32.39 43.09,32.39
             43.09,32.39 46.25,33.83 46.25,33.83
             46.25,33.83 46.94,32.24 46.94,32.24
             46.26,31.88 45.66,31.40 45.15,30.83 Z
           M 47.86,32.64
           C 47.86,32.64 47.16,34.25 47.16,34.25
             47.16,34.25 50.00,35.55 50.00,35.55
             50.00,35.55 52.84,34.25 52.84,34.25
             52.84,34.25 52.14,32.64 52.14,32.64
             51.47,32.87 50.75,33.00 50.00,33.00
             49.25,33.00 48.53,32.87 47.86,32.64 Z
           M 53.06,32.24
           C 53.06,32.24 53.75,33.83 53.75,33.83
             53.75,33.83 56.91,32.39 56.91,32.39
             56.91,32.39 54.85,30.83 54.85,30.83
             54.34,31.40 53.74,31.88 53.06,32.24 Z
           M 65.31,29.65
           C 65.31,29.65 58.84,32.61 58.84,32.61
             58.84,32.61 60.50,33.87 60.50,33.87
             60.50,33.87 65.54,30.03 65.54,30.03
             65.46,29.91 65.38,29.78 65.31,29.65 Z
           M 66.15,30.83
           C 66.15,30.83 61.33,34.50 61.33,34.50
             61.33,34.50 65.55,37.72 65.55,37.72
             65.55,37.72 67.94,32.24 67.94,32.24
             67.26,31.88 66.66,31.40 66.15,30.83 Z
           M 44.50,26.50
           C 44.50,23.46 46.96,21.00 50.00,21.00
             53.04,21.00 55.50,23.46 55.50,26.50
             55.50,29.54 53.04,32.00 50.00,32.00
             46.96,32.00 44.50,29.54 44.50,26.50 Z
           M 71.00,21.00
           C 67.96,21.00 65.50,23.46 65.50,26.50
             65.50,29.54 67.96,32.00 71.00,32.00
             74.04,32.00 76.50,29.54 76.50,26.50
             76.50,23.46 74.04,21.00 71.00,21.00 Z
           M 40.33,34.50
           C 40.33,34.50 42.19,33.08 42.19,33.08
             42.19,33.08 45.84,34.75 45.84,34.75
             45.84,34.75 44.55,37.72 44.55,37.72
             44.55,37.72 40.33,34.50 40.33,34.50 Z
           M 45.73,37.50
           C 45.73,37.50 46.75,35.17 46.75,35.17
             46.75,35.17 48.80,36.10 48.80,36.10
             48.80,36.10 45.73,37.50 45.73,37.50 Z
           M 45.72,38.61
           C 45.72,38.61 50.00,36.65 50.00,36.65
             50.00,36.65 54.28,38.61 54.28,38.61
             54.28,38.61 50.00,41.87 50.00,41.87
             50.00,41.87 45.72,38.61 45.72,38.61 Z
           M 59.68,34.50
           C 59.68,34.50 55.45,37.72 55.45,37.72
             55.45,37.72 54.16,34.75 54.16,34.75
             54.16,34.75 57.81,33.08 57.81,33.08
             57.81,33.08 59.68,34.50 59.68,34.50 Z
           M 54.27,37.50
           C 54.27,37.50 53.25,35.17 53.25,35.17
             53.25,35.17 51.20,36.10 51.20,36.10
             51.20,36.10 54.27,37.50 54.27,37.50 Z
           M 56.22,38.39
           C 56.22,38.39 60.50,35.13 60.50,35.13
             60.50,35.13 65.13,38.66 65.13,38.66
             65.13,38.66 63.75,41.83 63.75,41.83
             63.75,41.83 56.22,38.39 56.22,38.39 Z
           M 39.50,35.13
           C 39.50,35.13 43.78,38.39 43.78,38.39
             43.78,38.39 36.25,41.83 36.25,41.83
             36.25,41.83 34.87,38.66 34.87,38.66
             34.87,38.66 39.50,35.13 39.50,35.13 Z
           M 34.05,39.28
           C 34.05,39.28 35.34,42.25 35.34,42.25
             35.34,42.25 24.19,47.35 24.19,47.35
             24.12,47.22 24.04,47.09 23.96,46.97
             23.96,46.97 34.05,39.28 34.05,39.28 Z
           M 34.05,61.72
           C 34.05,61.72 23.96,54.03 23.96,54.03
             24.04,53.91 24.12,53.78 24.19,53.65
             24.19,53.65 35.34,58.75 35.34,58.75
             35.34,58.75 34.05,61.72 34.05,61.72 Z
           M 34.87,62.34
           C 34.87,62.34 36.25,59.17 36.25,59.17
             36.25,59.17 43.78,62.61 43.78,62.61
             43.78,62.61 39.50,65.87 39.50,65.87
             39.50,65.87 34.87,62.34 34.87,62.34 Z
           M 40.33,66.50
           C 40.33,66.50 44.55,63.28 44.55,63.28
             44.55,63.28 45.84,66.25 45.84,66.25
             45.84,66.25 42.19,67.92 42.19,67.92
             42.19,67.92 40.33,66.50 40.33,66.50 Z
           M 48.80,64.90
           C 48.80,64.90 46.75,65.83 46.75,65.83
             46.75,65.83 45.73,63.50 45.73,63.50
             45.73,63.50 48.80,64.90 48.80,64.90 Z
           M 50.00,64.35
           C 50.00,64.35 45.72,62.39 45.72,62.39
             45.72,62.39 50.00,59.13 50.00,59.13
             50.00,59.13 54.28,62.39 54.28,62.39
             54.28,62.39 50.00,64.35 50.00,64.35 Z
           M 51.20,64.90
           C 51.20,64.90 54.27,63.50 54.27,63.50
             54.27,63.50 53.25,65.83 53.25,65.83
             53.25,65.83 51.20,64.90 51.20,64.90 Z
           M 57.81,67.92
           C 57.81,67.92 54.16,66.25 54.16,66.25
             54.16,66.25 55.45,63.28 55.45,63.28
             55.45,63.28 59.68,66.50 59.68,66.50
             59.68,66.50 57.81,67.92 57.81,67.92 Z
           M 60.50,65.87
           C 60.50,65.87 56.22,62.61 56.22,62.61
             56.22,62.61 63.75,59.17 63.75,59.17
             63.75,59.17 65.13,62.34 65.13,62.34
             65.13,62.34 60.50,65.87 60.50,65.87 Z
           M 13.00,50.50
           C 13.00,47.46 15.46,45.00 18.50,45.00
             19.29,45.00 20.03,45.16 20.70,45.46
             21.57,45.84 22.31,46.43 22.88,47.17
             23.12,47.49 23.33,47.84 23.50,48.21
             23.82,48.91 24.00,49.68 24.00,50.50
             24.00,51.32 23.82,52.09 23.50,52.79
             23.33,53.16 23.12,53.51 22.88,53.83
             22.31,54.57 21.57,55.16 20.70,55.54
             20.03,55.84 19.29,56.00 18.50,56.00
             15.46,56.00 13.00,53.54 13.00,50.50 Z
           M 39.50,45.00
           C 36.46,45.00 34.00,47.46 34.00,50.50
             34.00,53.54 36.46,56.00 39.50,56.00
             42.54,56.00 45.00,53.54 45.00,50.50
             45.00,47.46 42.54,45.00 39.50,45.00 Z
           M 55.00,50.50
           C 55.00,47.46 57.46,45.00 60.50,45.00
             63.54,45.00 66.00,47.46 66.00,50.50
             66.00,53.54 63.54,56.00 60.50,56.00
             57.46,56.00 55.00,53.54 55.00,50.50 Z
           M 81.50,45.00
           C 78.46,45.00 76.00,47.46 76.00,50.50
             76.00,53.54 78.46,56.00 81.50,56.00
             84.54,56.00 87.00,53.54 87.00,50.50
             87.00,47.46 84.54,45.00 81.50,45.00 Z
           M 23.50,74.50
           C 23.50,71.46 25.96,69.00 29.00,69.00
             32.04,69.00 34.50,71.46 34.50,74.50
             34.50,77.54 32.04,80.00 29.00,80.00
             25.96,80.00 23.50,77.54 23.50,74.50 Z
           M 50.00,69.00
           C 46.96,69.00 44.50,71.46 44.50,74.50
             44.50,77.54 46.96,80.00 50.00,80.00
             53.04,80.00 55.50,77.54 55.50,74.50
             55.50,71.46 53.04,69.00 50.00,69.00 Z
           M 65.50,74.50
           C 65.50,71.46 67.96,69.00 71.00,69.00
             74.04,69.00 76.50,71.46 76.50,74.50
             76.50,77.54 74.04,80.00 71.00,80.00
             67.96,80.00 65.50,77.54 65.50,74.50 Z" />
    />
  </g>
</svg>
