<svg
  xmlns="http://www.w3.org/2000/svg"
  viewBox="-64 -64 128 128"
  id="fish"
  class="pin"
>
  <g class="drop">
    <path
      fill="#2196f3"
      transform="scale(0.25) translate(-192,-256)"
      d="M172.268 501.67C26.97 291.031 0 269.413 0 192 0 85.961 85.961 0 192 0s192 85.961 192 192c0 77.413-26.97 99.031-172.268 309.67-9.535 13.774-29.93 13.773-39.464 0z"
    />
    <path
      fill="none" stroke="white" stroke-width="10"
      transform="translate(0,-20) scale(0.05) translate(-200,-150)"
                d="M 0.00,0.00
           C 0.00,0.00 800.00,0.00 800.00,0.00
             800.00,0.00 800.00,800.00 800.00,800.00
             800.00,800.00 0.00,800.00 0.00,800.00
             0.00,800.00 0.00,0.00 0.00,0.00 Z
           M 683.33,300.00
           C 624.75,300.09 576.31,343.49 568.33,399.89
             568.33,399.89 531.67,400.00 531.67,400.00
             524.09,361.99 490.54,333.35 450.29,333.35
             423.87,333.35 400.33,345.69 385.13,364.93
             385.13,364.93 295.93,324.37 295.93,324.37
             295.93,324.37 400.70,183.53 400.70,183.53
             414.40,193.86 431.46,199.99 449.95,199.99
             468.81,199.99 486.19,193.62 500.03,182.90
             500.03,182.90 577.97,266.67 577.97,266.67
             577.97,266.67 533.33,266.67 533.33,266.67
             533.33,266.67 533.33,300.00 533.33,300.00
             533.33,300.00 633.33,300.00 633.33,300.00
             633.33,300.00 633.33,200.00 633.33,200.00
             633.33,200.00 600.00,200.00 600.00,200.00
             600.00,200.00 600.00,241.43 600.00,241.43
             600.00,241.43 522.13,157.70 522.13,157.70
             529.18,145.66 533.25,131.64 533.33,116.67
             533.33,116.67 533.33,116.67 533.33,116.67
             533.33,70.65 496.02,33.34 450.00,33.34
             403.98,33.34 366.67,70.64 366.67,116.67
             366.75,131.79 370.90,145.95 378.09,158.10
             378.09,158.10 264.90,310.27 264.90,310.27
             264.90,310.27 165.17,264.90 165.17,264.90
             166.15,259.95 166.67,254.75 166.67,249.44
             166.67,237.88 164.23,226.89 159.82,216.97
             159.82,216.97 283.27,170.80 283.27,170.80
             283.27,170.80 268.60,259.00 268.60,259.00
             268.60,259.00 333.33,133.33 333.33,133.33
             333.33,133.33 239.07,100.00 239.07,100.00
             239.07,100.00 196.50,145.57 196.50,145.57
             196.50,145.57 74.53,191.17 74.53,191.17
             59.69,177.43 39.82,169.03 18.00,169.03
             -27.99,169.03 -65.27,206.31 -65.27,252.30
             -65.27,298.29 -27.99,335.57 18.00,335.57
             30.03,335.57 41.47,333.02 51.80,328.42
             51.80,328.42 121.30,418.00 121.30,418.00
             121.30,418.00 52.87,510.00 52.87,510.00
             42.23,505.02 30.31,502.24 17.75,502.24
             -28.28,502.24 -65.59,539.55 -65.59,585.57
             -65.59,631.60 -28.28,668.91 17.75,668.91
             43.53,668.91 66.58,657.20 81.87,638.80
             81.87,638.80 198.00,691.70 198.00,691.70
             198.00,691.70 107.83,691.70 107.83,691.70
             107.83,691.70 333.33,700.00 333.33,700.00
             333.33,700.00 300.00,605.73 300.00,605.73
             300.00,605.73 242.97,650.87 242.97,650.87
             242.97,650.87 122.70,596.03 122.70,596.03
             122.71,596.03 122.72,596.03 122.73,596.03
             138.88,596.03 153.95,591.38 166.67,583.35
             166.65,577.31 165.99,571.43 164.75,565.77
             164.75,565.77 266.50,518.93 266.50,518.93
             266.50,518.93 382.37,668.27 382.37,668.27
             398.12,689.70 423.52,703.61 452.17,703.61
             499.99,703.61 538.76,664.84 538.76,617.02
             538.76,597.84 532.53,580.12 521.97,565.77
             521.97,565.77 600.00,590.23 600.00,590.23
             600.00,590.23 600.00,633.33 600.00,633.33
             600.00,633.33 633.33,633.33 633.33,633.33
             633.33,633.33 633.33,533.33 633.33,533.33
             633.33,533.33 533.33,533.33 533.33,533.33
             533.33,533.33 533.33,566.67 533.33,566.67
             533.33,566.67 576.43,566.67 576.43,566.67
             576.43,566.67 495.90,647.20 495.90,647.20
             482.85,638.45 467.14,633.35 450.23,633.35
             434.37,633.35 419.56,637.84 407.00,645.62
             407.00,645.62 297.57,504.63 297.57,504.63
             297.57,504.63 382.70,465.43 382.70,465.43
             397.79,486.38 422.39,500.01 450.18,500.01
             490.43,500.01 524.00,471.40 531.67,433.41
             531.67,433.41 568.33,433.33 568.33,433.33
             576.50,489.63 624.97,532.87 683.53,532.87
             747.84,532.87 799.97,480.74 799.97,416.43
             799.97,352.13 747.84,300.00 683.53,300.00
             683.47,300.00 683.40,300.00 683.33,300.00
             683.33,300.00 683.33,300.00 683.33,300.00 Z
           M 450.00,66.67
           C 477.61,66.67 500.00,89.05 500.00,116.67
             500.00,144.28 477.61,166.67 450.00,166.67
             422.39,166.67 400.00,144.28 400.00,116.67
             400.04,89.07 422.40,66.70 450.00,66.67
             450.00,66.67 450.00,66.67 450.00,66.67 Z
           M 450.00,666.67
           C 477.61,666.67 500.00,689.05 500.00,716.67
             500.00,744.28 477.61,766.67 450.00,766.67
             422.39,766.67 400.00,744.28 400.00,716.67
             400.04,689.07 422.40,666.70 450.00,666.67
             450.00,666.67 450.00,666.67 450.00,666.67 Z
           M 33.33,250.00
           C 33.33,249.89 33.33,249.78 33.33,249.67
             33.33,222.05 55.72,199.67 83.33,199.67
             110.95,199.67 133.33,222.05 133.33,249.67
             133.33,265.15 126.29,279.00 115.24,288.17
             115.24,288.17 106.70,288.17 106.70,288.17
             99.64,292.03 91.52,294.22 82.88,294.22
             57.26,294.22 36.15,274.90 33.33,250.04
             33.33,250.04 33.33,250.00 33.33,250.00 Z
           M 144.00,306.77
           C 147.22,303.41 150.17,299.78 152.80,295.91
             152.80,295.91 244.53,337.60 244.53,337.60
             244.53,337.60 207.07,388.00 207.07,388.00
             207.07,388.00 144.00,306.77 144.00,306.77 Z
           M 83.33,633.33
           C 55.72,633.33 33.33,610.95 33.33,583.33
             33.33,555.72 55.72,533.33 83.33,533.33
             110.95,533.33 133.33,555.72 133.33,583.33
             133.30,610.93 110.93,633.30 83.33,633.33
             83.33,633.33 83.33,633.33 83.33,633.33 Z
           M 151.23,535.30
           C 149.25,532.57 147.10,529.97 144.80,527.50
             144.80,527.50 207.63,443.10 207.63,443.10
             207.63,443.10 245.50,491.90 245.50,491.90
             245.50,491.90 151.23,535.30 151.23,535.30 Z
           M 370.83,434.20
           C 370.83,434.20 228.30,415.33 228.30,415.33
             228.30,415.33 275.63,351.73 275.63,351.73
             275.63,351.73 370.00,394.67 370.00,394.67
             367.85,401.65 366.69,409.13 366.69,416.89
             366.69,423.16 367.45,429.26 368.88,435.10
             368.88,435.10 370.83,434.20 370.83,434.20 Z
           M 450.00,466.67
           C 422.39,466.67 400.00,444.28 400.00,416.67
             400.00,389.05 422.39,366.67 450.00,366.67
             477.61,366.67 500.00,389.05 500.00,416.67
             499.96,444.27 477.60,466.63 450.00,466.67
             450.00,466.67 450.00,466.67 450.00,466.67 Z
           M 683.33,500.00
           C 637.31,500.00 600.00,462.69 600.00,416.67
             600.00,370.64 637.31,333.33 683.33,333.33
             729.36,333.33 766.67,370.64 766.67,416.67
             766.63,462.67 729.34,499.96 683.33,500.00
             683.33,500.00 683.33,500.00 683.33,500.00 Z
           M 733.33,416.67
           C 733.33,444.28 710.95,466.67 683.33,466.67
             655.72,466.67 633.33,444.28 633.33,416.67
             633.33,389.05 655.72,366.67 683.33,366.67
             710.93,366.70 733.30,389.07 733.33,416.67
             733.33,416.67 733.33,416.67 733.33,416.67 Z" />
    />
  </g>
</svg>
