<svg
  xmlns="http://www.w3.org/2000/svg"
  viewBox="-64 -64 128 128"
  id="fish"
  class="pin"
>
  <g class="drop">
    <path
      fill="#2196f3"
      transform="scale(0.25) translate(-192,-256)"
      d="M172.268 501.67C26.97 291.031 0 269.413 0 192 0 85.961 85.961 0 192 0s192 85.961 192 192c0 77.413-26.97 99.031-172.268 309.67-9.535 13.774-29.93 13.773-39.464 0z"
    />
    <path
      fill="#ffffff"
      transform="translate(0,-20) scale(0.2) translate(-200,-150)"
      d="M 21.56,12.03
           C 21.57,12.03 21.57,12.03 21.57,12.03
             22.36,12.03 23.00,11.38 23.00,10.59
             23.00,9.80 22.36,9.16 21.57,9.16
             21.57,9.16 21.57,9.16 21.56,9.16
             21.53,9.16 21.50,9.05 21.50,9.05
             21.50,9.05 21.01,7.15 21.01,7.15
             21.36,6.89 21.59,6.48 21.59,6.01
             21.59,5.22 20.95,4.58 20.16,4.58
             19.74,4.58 19.36,4.76 19.10,5.05
             19.10,5.05 14.21,2.78 14.21,2.78
             14.26,2.64 14.28,2.48 14.29,2.32
             14.29,2.32 14.29,2.32 14.29,2.32
             14.29,1.53 13.64,0.89 12.85,0.89
             12.06,0.89 11.41,1.53 11.41,2.32
             11.41,2.32 11.41,2.32 11.41,2.32
             11.44,2.33 11.47,2.33 11.50,2.33
             11.52,2.33 11.55,2.33 11.58,2.32
             11.58,2.32 7.51,2.32 7.51,2.32
             7.25,2.00 6.84,1.79 6.39,1.79
             5.60,1.79 4.96,2.43 4.96,3.22
             4.96,3.41 5.00,3.59 5.07,3.76
             5.07,3.76 2.14,6.37 2.14,6.37
             1.92,6.24 1.67,6.17 1.40,6.16
             1.40,6.16 1.40,6.16 1.40,6.16
             0.61,6.16 -0.03,6.80 -0.03,7.60
             -0.03,8.24 0.39,8.78 0.97,8.96
             0.97,8.96 0.78,10.83 0.78,10.83
             0.08,10.92 -0.45,11.52 -0.45,12.25
             -0.45,13.04 0.19,13.68 0.98,13.68
             1.32,13.68 1.63,13.56 1.88,13.36
             1.88,13.36 3.27,13.36 3.27,13.36
             3.26,13.34 3.23,13.34 3.23,13.34
             3.23,13.34 3.23,13.34 3.23,13.35
             3.23,14.20 3.93,14.90 4.78,14.90
             5.63,14.90 6.32,14.21 6.33,13.36
             6.33,13.36 7.43,13.36 7.43,13.36
             7.60,13.96 8.15,14.41 8.81,14.41
             9.51,14.41 10.10,13.90 10.22,13.23
             10.22,13.23 13.43,13.23 13.43,13.23
             10.59,13.66 8.41,16.12 8.41,19.08
             8.41,22.34 11.06,24.99 14.32,24.99
             14.63,24.99 14.92,24.97 15.22,24.92
             15.22,24.92 19.26,26.34 19.26,26.34
             19.26,26.34 20.69,27.78 20.69,27.78
             20.69,27.78 27.41,34.50 27.41,34.50
             27.41,34.50 28.84,35.92 28.84,35.92
             28.84,35.92 28.84,35.92 28.84,35.92
             28.84,35.92 28.29,34.04 28.29,34.04
             28.29,34.04 21.56,12.03 21.56,12.03 Z
           M 27.73,32.60
           C 27.73,32.60 26.04,32.60 26.04,32.60
             26.04,32.60 26.04,32.60 26.04,32.60
             26.04,32.60 27.73,32.60 27.73,32.60 Z
           M 24.89,31.29
           C 24.43,31.50 24.09,31.95 24.05,32.48
             24.05,32.48 22.93,32.48 22.93,32.48
             22.89,32.08 22.69,31.72 22.39,31.48
             22.39,31.48 23.79,29.55 23.79,29.55
             23.87,29.56 23.96,29.57 24.04,29.57
             24.18,29.57 24.31,29.55 24.44,29.51
             24.44,29.51 24.89,31.29 24.89,31.29 Z
           M 22.17,35.07
           C 22.17,35.07 19.27,34.33 19.27,34.33
             19.26,34.00 19.13,33.69 18.92,33.45
             18.92,33.45 20.09,31.88 20.09,31.88
             20.08,31.95 20.07,32.03 20.07,32.12
             20.07,32.88 20.69,33.49 21.45,33.49
             21.56,33.49 21.67,33.48 21.77,33.45
             21.77,33.45 23.02,35.39 23.02,35.39
             23.08,35.23 23.12,35.05 23.12,34.87
             23.12,34.08 22.48,33.44 21.69,33.44
             21.63,33.44 21.58,33.45 21.52,33.45
             21.52,33.45 22.17,35.07 22.17,35.07 Z
           M 11.06,23.99
           C 11.06,23.99 15.14,26.13 15.14,26.13
             15.01,26.11 14.88,26.10 14.74,26.10
             12.70,26.10 11.05,27.75 11.05,29.79
             11.05,31.69 12.49,33.25 14.34,33.45
             14.34,33.45 11.72,34.80 11.72,34.80
             11.46,34.50 11.07,34.31 10.64,34.30
             10.63,34.30 10.61,34.27 10.61,34.27
             10.61,34.27 9.67,30.90 9.67,30.90
             9.91,30.82 10.12,30.67 10.28,30.49
             10.28,30.49 11.06,23.99 11.06,23.99 Z
           M 21.43,32.46
           C 21.43,32.46 20.06,34.34 20.06,34.34
             20.81,34.02 21.34,33.28 21.34,32.41
             21.34,31.26 20.40,30.33 19.25,30.33
             18.96,30.33 18.68,30.38 18.43,30.49
             18.43,30.49 16.84,29.29 16.84,29.29
             16.87,29.19 16.89,29.07 16.89,28.96
             16.89,28.89 16.89,28.82 16.88,28.76
             16.88,28.76 20.58,27.70 20.58,27.70
             20.73,28.26 21.21,28.69 21.80,28.76
             21.80,28.76 21.43,32.46 21.43,32.46 Z
           M 20.00,32.56
           C 20.00,32.56 18.30,32.56 18.30,32.56
             18.30,32.56 18.30,32.56 18.30,32.56
             18.30,32.56 20.00,32.56 20.00,32.56 Z
           M 14.40,29.91
           C 14.40,29.91 12.71,29.91 12.71,29.91
             12.71,29.91 12.71,29.91 12.71,29.91
             12.71,29.91 14.40,29.91 14.40,29.91 Z
           M 7.63,31.43 7.63,31.43 7.63,31.43 7.63,31.43
           M 9.63,31.43
           C 9.63,31.25 9.60,31.08 9.53,30.92
             9.53,30.92 12.10,29.60 12.10,29.60
             12.14,30.36 12.76,30.97 13.53,30.97
             13.66,30.97 13.78,30.95 13.89,30.92
             13.90,30.92 13.91,30.90 13.89,30.90
             13.89,30.90 13.45,34.56 13.45,34.56
             13.45,34.56 9.05,34.56 9.05,34.56
             8.98,34.53 8.90,34.51 8.82,34.50
             8.82,34.50 8.52,33.03 8.52,33.03
             9.20,32.92 9.72,32.33 9.72,31.62
             9.72,31.62 9.63,31.43 9.63,31.43 Z
           M 8.62,35.35 8.62,35.35 8.62,35.35 8.62,35.35
           M 9.70,34.98
           C 9.70,34.98 12.75,34.59 12.75,34.59
             12.67,34.77 12.62,34.97 12.62,35.18
             12.62,35.39 12.66,35.59 12.74,35.77
             12.74,35.77 10.03,35.68 10.03,35.68
             9.99,35.41 9.87,35.17 9.70,34.98
             9.70,34.98 9.70,34.98 9.70,34.98 Z
           M 13.91,30.30
           C 14.16,30.19 14.38,30.02 14.54,29.80
             14.54,29.80 16.02,30.92 16.02,30.92
             15.90,31.12 15.83,31.36 15.83,31.62
             15.83,31.85 15.89,32.07 15.99,32.27
             15.99,32.27 14.75,33.94 14.75,33.94
             14.55,33.82 14.31,33.75 14.05,33.75
             13.85,33.75 13.66,33.79 13.49,33.87
             13.49,33.87 13.91,30.30 13.91,30.30 Z
           M 19.38,30.16 19.38,30.16 19.38,30.16 19.38,30.16
           M 18.02,30.16
           C 17.92,30.13 17.81,30.12 17.70,30.12
             17.59,30.12 17.48,30.13 17.38,30.16
             17.38,30.38 0.00,30.38 0.00,30.38
             0.00,30.38 -3.73,31.45 -3.73,31.45
             -3.97,30.98 -4.45,30.66 -5.01,30.66
             -5.05,30.66 -5.10,30.52 -5.10,30.52
             -5.10,30.52 -5.62,27.85 -5.62,27.85
             -5.26,27.79 -4.95,27.60 -4.73,27.33
             -4.73,27.33 18.02,30.16 18.02,30.16 Z
           M -10.70,23.61 -10.70,23.61 -10.70,23.61 -10.70,23.61
           M -11.99,24.81
           C -11.88,24.83 -11.76,24.85 -11.64,24.85
             -10.91,24.85 -10.31,24.31 -10.21,23.62
             -10.21,23.62 -9.66,26.42 -9.66,26.42
             -9.08,26.22 -8.66,25.67 -8.66,25.02
             -8.66,24.20 -9.32,23.54 -10.14,23.54
             -10.31,23.54 -10.47,23.56 -10.62,23.61
             -10.62,23.61 -14.66,21.50 -14.66,21.50
             -14.60,21.34 -14.56,21.16 -14.56,20.98
             -14.56,20.82 -14.59,20.67 -14.64,20.52
             -14.64,20.52 -11.99,24.81 -11.99,24.81 Z
           M -19.81,20.52 -19.81,20.52 -19.81,20.52 -19.81,20.52
           M -19.85,23.47
           C -19.85,23.47 -16.46,23.47 -16.46,23.47
             -15.88,23.23 -15.47,22.66 -15.47,22.00
             -15.47,21.12 -16.19,20.40 -17.07,20.40
             -17.28,20.40 -17.49,20.44 -17.67,20.52
             -17.67,20.52 -21.47,19.55 -21.47,19.55
             -21.47,19.55 -21.50,19.55 -21.50,19.55
             -21.50,19.21 -21.62,18.90 -21.82,18.66
             -21.82,18.66 -19.00,16.14 -19.00,16.14
             -19.43,16.39 -19.72,16.86 -19.72,17.40
             -19.72,18.20 -19.06,18.86 -18.25,18.86
             -17.98,18.86 -17.73,18.78 -17.51,18.66
             -17.51,18.66 -19.85,23.47 -19.85,23.47 Z
           M -22.31,26.24
           C -22.31,26.24 -24.01,26.24 -24.01,26.24
             -24.01,26.24 -24.01,26.24 -24.01,26.24
             -24.01,26.24 -22.31,26.24 -22.31,26.24 Z
           M -24.28,24.65
           C -24.28,24.65 -26.09,24.65 -26.09,24.65
             -25.51,24.62 -25.02,24.25 -24.82,23.74
             -24.82,23.74 -20.18,23.74 -20.18,23.74
             -20.27,23.71 -20.37,23.70 -20.47,23.70
             -20.57,23.70 -20.67,23.71 -20.77,23.74
             -20.77,23.74 -25.11,25.42 -25.11,25.42
             -25.31,25.18 -25.59,25.01 -25.91,24.94
             -25.91,24.94 -24.28,24.65 -24.28,24.65 Z
           M -26.03,21.14 -26.03,21.14 -26.03,21.14 -26.03,21.14
           M -26.85,27.07
           C -26.72,26.86 -26.65,26.61 -26.65,26.35
             -26.65,26.18 -26.68,26.01 -26.73,25.86
             -26.73,25.86 -22.47,24.20 -22.47,24.20
             -22.48,24.28 -22.49,24.36 -22.49,24.44
             -22.49,25.23 -21.85,25.87 -21.05,25.87
             -21.01,25.87 -20.96,25.87 -20.91,25.86
             -20.91,25.86 -22.78,28.45 -22.78,28.45
             -22.97,27.88 -23.50,27.47 -24.13,27.47
             -24.73,27.47 -25.25,27.85 -25.46,28.38
             -25.46,28.38 -26.85,27.07 -26.85,27.07 Z
           M -23.40,29.79
           C -23.40,29.79 -25.10,29.79 -25.10,29.79
             -25.10,29.79 -25.10,29.79 -25.10,29.79
             -25.10,29.79 -23.40,29.79 -23.40,29.79 Z
           M -21.69,26.31
           C -21.69,26.31 -20.49,26.31 -20.49,26.31
             -21.10,26.44 -21.56,26.96 -21.61,27.60
             -21.61,27.60 -22.31,27.60 -22.31,27.60
             -22.31,27.60 -21.69,26.31 -21.69,26.31 Z
           M -16.39,30.03
           C -16.39,30.03 -18.09,30.03 -18.09,30.03
             -18.09,30.03 -18.09,30.03 -18.09,30.03
             -18.09,30.03 -16.39,30.03 -16.39,30.03 Z
           M -11.71,35.83
           C -11.71,35.83 -13.41,35.83 -13.41,35.83
             -13.41,35.83 -13.41,35.83 -13.41,35.83
             -13.41,35.83 -11.71,35.83 -11.71,35.83 Z
           M -13.41,33.83
           C -13.64,33.80 -13.89,33.78 -14.13,33.78
             -17.48,33.78 -20.19,36.50 -20.19,39.84
             -20.19,42.94 -17.87,45.49 -14.87,45.85
             -14.87,45.85 -18.79,47.28 -18.79,47.28
             -18.79,47.28 -19.15,47.28 -19.15,47.28
             -19.15,47.28 -15.40,47.28 -15.40,47.28
             -15.25,47.88 -14.71,48.33 -14.06,48.35
             -13.93,49.10 -13.66,49.80 -13.28,50.42
             -13.32,50.42 -13.35,50.41 -13.39,50.41
             -13.39,50.41 -13.41,33.83 -13.41,33.83 Z
           M -14.02,47.48
           C -14.02,47.48 -15.71,47.48 -15.71,47.48
             -15.71,47.48 -15.71,47.48 -15.71,47.48
             -15.71,47.48 -14.02,47.48 -14.02,47.48 Z
           M -16.15,45.56
           C -16.29,45.51 -16.44,45.48 -16.60,45.48
             -16.75,45.48 -16.89,45.51 -17.02,45.56
             -17.02,45.56 -18.27,43.63 -18.27,43.63
             -18.02,43.44 -17.84,43.17 -17.75,42.87
             -17.75,42.87 -16.54,42.86 -16.54,42.86
             -16.29,43.07 -15.97,43.20 -15.62,43.20
             -15.27,43.20 -14.94,43.07 -14.69,42.86
             -14.69,42.86 -16.15,45.56 -16.15,45.56 Z" />
    />
  </g>
</svg>
