<svg
  xmlns="http://www.w3.org/2000/svg"
  viewBox="-64 -64 128 128"
  id="frog"
  class="pin"
>
  <g class="drop">
    <path
      fill="#009688"
      transform="scale(0.25) translate(-192,-256)"
      d="M172.268 501.67C26.97 291.031 0 269.413 0 192 0 85.961 85.961 0 192 0s192 85.961 192 192c0 77.413-26.97 99.031-172.268 309.67-9.535 13.774-29.93 13.773-39.464 0z"
    />
    <path
      fill="#ffffff"
      transform="translate(0,-20) scale(0.35) translate(-90,-60)"
       d="M 80.94,-0.25
           C 81.70,-0.27 82.46,-0.29 83.24,-0.31
             89.92,-0.36 95.35,0.95 100.75,5.12
             106.30,12.21 108.52,20.16 107.73,29.12
             106.64,42.25 110.87,49.58 118.50,59.94
             120.01,62.06 121.50,64.19 122.99,66.33
             123.92,67.64 124.85,68.95 125.80,70.24
             129.00,74.68 129.00,74.68 129.00,78.00
             126.59,79.20 125.05,79.10 122.38,79.06
             121.56,79.05 120.74,79.04 119.90,79.04
             119.27,79.02 118.65,79.01 118.00,79.00
             118.00,79.67 118.00,80.34 118.01,81.04
             118.03,88.01 118.04,94.99 118.05,101.96
             118.06,104.57 118.07,107.17 118.08,109.78
             118.09,113.52 118.09,117.25 118.10,120.99
             118.10,122.16 118.11,123.33 118.11,124.54
             118.11,125.62 118.11,126.70 118.11,127.82
             118.12,128.77 118.12,129.73 118.12,130.71
             118.00,133.00 118.00,133.00 117.00,135.00
             114.03,135.00 111.06,135.00 108.00,135.00
             110.19,143.41 112.57,149.86 120.00,155.00
             124.35,156.45 128.46,156.52 133.00,156.00
             138.12,153.40 140.97,150.52 143.12,145.25
             145.27,137.78 145.27,137.78 143.37,130.60
             142.58,129.47 141.77,128.36 140.94,127.27
             140.52,126.67 140.10,126.07 139.66,125.46
             138.31,123.56 136.94,121.69 135.56,119.81
             134.19,117.93 132.83,116.04 131.48,114.14
             130.64,112.96 129.79,111.79 128.92,110.63
             127.13,108.14 126.04,106.30 125.61,103.23
             126.00,101.00 126.00,101.00 128.00,99.00
             130.69,98.73 133.29,98.91 136.00,99.00
             136.00,98.31 136.00,97.63 135.99,96.92
             135.97,89.80 135.96,82.68 135.95,75.56
             135.94,72.90 135.93,70.23 135.92,67.57
             135.91,63.76 135.91,59.94 135.90,56.13
             135.90,54.93 135.89,53.73 135.89,52.50
             135.89,51.40 135.89,50.30 135.89,49.16
             135.88,48.19 135.88,47.21 135.88,46.21
             136.00,44.00 136.00,44.00 137.00,43.00
             138.52,42.93 140.04,42.92 141.56,42.94
             142.39,42.95 143.22,42.96 144.07,42.96
             144.70,42.98 145.34,42.99 146.00,43.00
             146.11,41.85 146.22,40.71 146.34,39.53
             146.90,35.01 148.16,30.88 149.56,26.56
             152.88,16.51 152.88,16.51 150.69,6.50
             148.96,4.77 148.96,4.77 146.00,4.00
             146.00,2.68 146.00,1.36 146.00,0.00
             149.90,0.22 152.31,0.43 155.38,2.94
             160.35,12.32 156.89,21.46 154.00,31.00
             153.41,33.14 152.83,35.29 152.25,37.44
             151.83,38.96 151.42,40.48 151.00,42.00
             152.30,42.14 153.60,42.29 154.94,42.44
             158.88,42.88 158.88,42.88 160.00,44.00
             160.09,45.72 160.12,47.44 160.11,49.16
             160.11,50.26 160.11,51.36 160.11,52.50
             160.11,53.70 160.10,54.89 160.10,56.13
             160.10,57.96 160.10,57.96 160.09,59.82
             160.09,63.74 160.08,67.65 160.06,71.56
             160.06,74.21 160.05,76.85 160.05,79.50
             160.04,86.00 160.02,92.50 160.00,99.00
             161.28,98.96 162.56,98.92 163.88,98.87
             166.05,98.80 166.05,98.80 168.00,99.00
             168.66,99.66 169.32,100.32 170.00,101.00
             169.76,106.02 167.97,108.99 165.07,113.00
             164.27,114.15 163.46,115.29 162.66,116.44
             161.40,118.21 160.14,119.98 158.86,121.74
             153.34,129.38 149.99,135.51 148.57,144.98
             147.50,150.64 144.61,154.43 140.56,158.38
             134.57,162.18 128.62,162.88 121.73,161.57
             114.85,159.67 110.34,155.97 106.71,149.82
             104.35,144.91 103.39,140.42 103.00,135.00
             99.70,135.00 96.40,135.00 93.00,135.00
             93.00,116.52 93.00,98.04 93.00,79.00
             89.70,79.00 86.40,79.00 83.00,79.00
             82.34,77.68 81.68,76.36 81.00,75.00
             81.64,74.18 82.27,73.35 82.93,72.50
             99.49,51.91 99.49,51.91 103.03,26.70
             100.96,15.53 100.96,15.53 94.00,7.00
             82.38,3.13 65.64,5.21 54.65,10.03
             50.01,12.53 47.72,15.39 45.50,20.13
             44.76,22.20 44.76,22.20 46.00,25.00
             48.32,25.99 48.32,25.99 51.17,26.65
             52.23,26.93 53.29,27.22 54.38,27.51
             56.61,28.08 58.84,28.65 61.08,29.22
             71.72,32.09 71.72,32.09 75.00,37.00
             75.63,39.97 75.63,39.97 75.56,43.06
             75.56,44.08 75.57,45.11 75.57,46.16
             74.85,49.73 73.90,50.82 71.00,53.00
             67.98,54.27 67.98,54.27 64.75,55.25
             63.67,55.59 62.59,55.92 61.48,56.27
             60.66,56.51 59.84,56.75 59.00,57.00
             59.90,57.33 60.81,57.65 61.74,57.99
             62.92,58.43 64.10,58.86 65.31,59.31
             66.48,59.74 67.66,60.17 68.86,60.61
             73.54,62.68 73.54,62.68 75.00,65.00
             75.43,68.21 75.43,68.21 75.44,71.94
             75.46,73.16 75.48,74.39 75.50,75.65
             75.00,79.00 75.00,79.00 73.36,81.30
             70.57,83.31 68.03,84.25 64.75,85.25
             63.13,85.75 63.13,85.75 61.48,86.27
             60.66,86.51 59.84,86.75 59.00,87.00
             60.23,87.36 60.23,87.36 61.48,87.73
             63.10,88.24 63.10,88.24 64.75,88.75
             65.82,89.07 66.88,89.40 67.98,89.73
             71.27,91.11 72.91,92.12 75.00,95.00
             75.57,98.09 75.57,98.09 75.56,101.50
             75.58,102.62 75.61,103.75 75.63,104.91
             75.00,108.00 75.00,108.00 72.80,110.27
             70.13,111.92 67.63,113.15 64.69,114.25
             63.36,114.75 63.36,114.75 62.01,115.27
             61.35,115.51 60.68,115.75 60.00,116.00
             60.66,116.17 61.33,116.34 62.01,116.52
             62.89,116.76 63.78,117.00 64.69,117.25
             65.56,117.48 66.43,117.71 67.32,117.95
             70.56,119.22 72.59,120.48 75.00,123.00
             75.63,126.09 75.63,126.09 75.56,129.50
             75.56,130.62 75.57,131.75 75.57,132.91
             74.89,136.62 73.98,137.74 71.00,140.00
             68.78,141.05 68.78,141.05 66.50,141.75
             65.75,141.99 64.99,142.23 64.22,142.48
             62.00,143.00 62.00,143.00 58.00,143.00
             58.00,143.66 58.00,144.32 58.00,145.00
             59.16,145.08 60.31,145.16 61.50,145.25
             66.14,145.82 70.10,147.42 74.00,150.00
             75.79,153.57 75.52,157.68 75.75,161.62
             75.82,162.50 75.89,163.38 75.96,164.29
             76.35,171.02 75.78,176.59 71.35,182.02
             70.78,182.47 70.21,182.92 69.62,183.38
             69.06,183.84 68.50,184.30 67.91,184.77
             62.01,188.56 55.84,188.62 49.04,189.12
             44.11,189.56 40.22,190.18 36.00,193.00
             34.55,196.57 34.55,196.57 34.00,200.00
             32.68,200.00 31.36,200.00 30.00,200.00
             29.52,192.94 29.52,192.94 31.44,189.19
             36.93,184.50 42.89,183.91 49.94,183.56
             56.20,183.21 61.62,182.37 67.00,179.00
             71.09,174.07 70.29,168.09 70.00,162.00
             69.37,161.83 68.74,161.66 68.09,161.48
             66.18,160.97 64.27,160.44 62.36,159.92
             60.02,159.28 57.68,158.66 55.33,158.05
             54.11,157.72 52.88,157.40 51.62,157.06
             50.48,156.76 49.34,156.47 48.16,156.16
             44.65,154.87 42.54,153.76 40.00,151.00
             39.34,147.69 39.34,147.69 39.37,144.00
             39.36,142.78 39.35,141.57 39.34,140.31
             40.00,137.00 40.00,137.00 42.21,134.67
             44.93,133.04 47.26,132.06 50.31,131.25
             51.20,131.01 52.08,130.77 52.99,130.52
             53.65,130.35 54.32,130.18 55.00,130.00
             54.08,129.67 53.17,129.35 52.23,129.01
             51.04,128.57 49.85,128.14 48.62,127.69
             46.85,127.04 46.85,127.04 45.04,126.39
             42.00,125.00 42.00,125.00 40.00,122.00
             39.66,119.00 39.66,119.00 39.62,115.56
             39.60,114.43 39.57,113.30 39.54,112.13
             40.00,109.00 40.00,109.00 41.66,106.73
             44.29,104.79 46.65,103.78 49.75,102.75
             51.23,102.25 51.23,102.25 52.73,101.73
             53.48,101.49 54.23,101.25 55.00,101.00
             54.17,100.75 53.34,100.49 52.48,100.23
             50.85,99.71 50.85,99.71 49.19,99.19
             48.11,98.85 47.03,98.51 45.92,98.17
             41.54,96.41 41.54,96.41 40.00,94.00
             39.53,90.79 39.53,90.79 39.50,87.06
             39.47,85.84 39.44,84.61 39.41,83.35
             40.00,80.00 40.00,80.00 42.11,77.70
             45.30,75.83 48.25,74.76 51.81,73.75
             53.55,73.25 53.55,73.25 55.33,72.73
             56.65,72.37 56.65,72.37 58.00,72.00
             56.55,71.64 56.55,71.64 55.08,71.27
             53.18,70.76 53.18,70.76 51.25,70.25
             50.00,69.93 48.74,69.60 47.45,69.27
             43.84,67.94 42.17,67.16 40.00,64.00
             39.43,60.69 39.43,60.69 39.44,57.00
             39.42,55.78 39.39,54.57 39.37,53.31
             40.00,50.00 40.00,50.00 42.31,47.64
             46.78,44.91 50.80,44.00 56.00,44.00
             56.00,43.34 56.00,42.68 56.00,42.00
             55.01,41.92 54.02,41.84 53.00,41.75
             48.50,41.13 43.28,39.28 40.00,36.00
             38.82,18.46 38.82,18.46 42.63,12.57
             52.18,1.66 67.15,-0.16 80.94,-0.25 Z" />
    />
  </g>
</svg>
