<svg
  xmlns="http://www.w3.org/2000/svg"
  viewBox="-64 -64 128 128"
  id="frog"
  class="pin"
>
  <g class="drop">
    <path
      fill="#009688"
      transform="scale(0.25) translate(-192,-256)"
      d="M172.268 501.67C26.97 291.031 0 269.413 0 192 0 85.961 85.961 0 192 0s192 85.961 192 192c0 77.413-26.97 99.031-172.268 309.67-9.535 13.774-29.93 13.773-39.464 0z"
    />
    <path
      fill="#ffffff"
      transform="translate(0,-20) scale(0.2) translate(-230,-145)"
              d="M 247.00,64.00
           C 250.93,65.83 254.68,67.92 258.44,70.06
             259.46,70.63 260.47,71.20 261.52,71.78
             264.02,73.18 266.51,74.58 269.00,76.00
             269.12,84.73 268.89,93.31 268.00,102.00
             269.81,100.65 271.63,99.29 273.44,97.94
             273.98,97.53 274.53,97.13 275.09,96.72
             277.66,94.80 280.15,92.87 282.59,90.77
             283.34,90.13 284.10,89.48 284.88,88.81
             285.53,88.22 286.19,87.63 286.87,87.02
             289.00,86.00 289.00,86.00 291.58,86.47
             296.46,88.65 301.16,91.11 305.88,93.62
             309.22,95.40 312.56,97.17 316.00,99.00
             316.00,107.58 316.00,116.16 316.00,125.00
             321.21,120.75 321.21,120.75 326.38,116.44
             330.63,113.08 334.00,110.95 339.52,111.39
             344.96,112.73 349.74,115.46 354.62,118.12
             355.72,118.69 356.81,119.26 357.94,119.85
             369.06,125.78 377.50,132.39 381.81,144.62
             385.91,158.57 383.64,172.22 380.00,186.00
             378.35,185.67 376.70,185.34 375.00,185.00
             375.32,183.69 375.32,183.69 375.66,182.35
             378.99,167.65 380.87,152.08 372.57,138.70
             369.88,134.89 367.03,131.44 363.00,129.00
             359.67,129.41 357.68,130.78 355.09,132.84
             354.36,133.43 353.62,134.01 352.86,134.61
             352.08,135.23 351.30,135.86 350.50,136.50
             348.87,137.79 347.23,139.08 345.60,140.37
             344.81,140.99 344.02,141.62 343.20,142.27
             339.54,145.15 335.82,147.92 332.08,150.69
             329.66,152.51 327.27,154.35 324.89,156.21
             324.17,156.77 323.45,157.32 322.72,157.89
             321.31,158.98 319.91,160.08 318.52,161.19
             315.87,163.23 313.79,164.81 310.52,165.59
             306.72,164.70 303.56,162.91 300.19,161.00
             297.82,159.68 295.44,158.36 293.00,157.00
             293.00,164.92 293.00,172.84 293.00,181.00
             289.80,182.84 286.61,184.67 283.31,186.56
             282.31,187.15 281.32,187.73 280.29,188.33
             279.49,188.78 278.69,189.23 277.86,189.69
             276.65,190.39 276.65,190.39 275.40,191.10
             272.44,192.21 270.98,191.98 268.00,191.00
             266.24,189.97 266.24,189.97 264.67,188.71
             264.15,188.31 263.64,187.91 263.11,187.49
             262.16,186.72 262.16,186.72 261.19,185.94
             259.15,184.31 257.10,182.68 255.00,181.00
             255.00,187.93 255.00,194.86 255.00,202.00
             248.31,205.81 248.31,205.81 246.24,207.00
             245.68,207.31 245.12,207.63 244.55,207.96
             243.94,208.30 243.33,208.65 242.71,209.00
             241.22,209.87 239.78,210.81 238.36,211.76
             235.46,213.29 234.23,213.65 231.00,213.00
             228.37,211.39 226.05,209.48 223.69,207.50
             221.48,205.69 219.27,203.87 217.00,202.00
             217.00,209.26 217.00,216.52 217.00,224.00
             206.25,230.00 206.25,230.00 204.00,230.00
             204.33,230.87 204.66,231.73 205.00,232.62
             206.05,236.18 206.52,238.33 206.00,242.00
             203.98,244.19 202.20,245.84 199.88,247.62
             199.31,248.09 198.74,248.55 198.15,249.03
             194.57,251.91 190.86,254.50 187.00,257.00
             189.87,257.75 192.75,258.48 195.63,259.17
             197.75,259.69 199.85,260.26 201.93,260.89
             204.77,261.65 207.05,262.15 210.00,262.00
             212.66,260.42 214.67,258.71 216.83,256.50
             219.00,255.00 219.00,255.00 221.83,255.09
             225.38,256.11 228.55,257.47 231.88,259.06
             233.03,259.61 234.18,260.16 235.37,260.72
             236.24,261.14 237.10,261.57 238.00,262.00
             237.11,257.32 236.23,252.74 234.81,248.19
             233.90,244.63 233.74,243.42 235.00,240.00
             237.21,237.50 239.70,235.39 242.25,233.25
             243.25,232.37 243.25,232.37 244.28,231.46
             250.87,225.83 250.87,225.83 255.00,226.00
             257.89,226.92 260.58,228.14 263.31,229.44
             264.42,229.95 264.42,229.95 265.56,230.46
             267.38,231.30 269.19,232.15 271.00,233.00
             270.63,231.75 270.25,230.49 269.87,229.20
             269.39,227.55 268.91,225.90 268.44,224.25
             268.19,223.43 267.94,222.60 267.69,221.75
             267.46,220.95 267.23,220.15 267.00,219.33
             266.78,218.59 266.57,217.86 266.35,217.11
             265.95,214.70 266.14,213.27 267.00,211.00
             269.29,208.82 269.29,208.82 272.19,206.56
             275.35,204.09 278.41,201.65 281.31,198.88
             284.00,197.00 284.00,197.00 286.74,197.19
             290.38,198.09 293.49,199.44 296.88,201.06
             298.03,201.61 299.18,202.16 300.37,202.72
             301.24,203.14 302.10,203.57 303.00,204.00
             302.87,203.37 302.73,202.74 302.60,202.09
             302.04,199.40 301.52,196.70 301.00,194.00
             300.85,193.26 300.70,192.53 300.54,191.77
             299.67,186.79 300.15,184.15 303.00,180.00
             307.72,174.24 313.67,169.71 319.50,165.12
             320.21,164.55 320.92,163.98 321.66,163.39
             326.78,159.45 331.56,156.65 338.29,157.18
             342.20,158.71 344.46,160.30 347.06,163.62
             350.33,167.74 353.93,169.92 358.44,172.44
             366.76,177.15 373.42,182.83 377.00,192.00
             377.00,192.66 377.00,193.32 377.00,194.00
             377.87,193.92 378.73,193.84 379.62,193.75
             384.01,194.07 385.62,195.18 389.00,198.00
             390.11,199.44 391.19,200.90 392.25,202.38
             396.54,208.18 402.18,211.73 409.00,214.00
             422.70,214.81 434.99,207.34 446.00,200.00
             448.56,199.75 448.56,199.75 451.00,200.00
             453.00,202.00 453.00,202.00 453.07,204.84
             451.58,209.25 448.75,210.50 444.81,212.50
             443.73,213.07 443.73,213.07 442.63,213.66
             435.92,217.17 429.09,220.31 422.00,223.00
             421.11,223.34 420.23,223.68 419.32,224.03
             408.99,227.43 395.26,228.15 385.30,223.35
             381.64,221.21 378.06,218.96 374.54,216.59
             370.34,213.96 366.12,212.22 361.07,212.27
             356.00,214.05 353.28,220.43 351.00,225.00
             351.61,225.07 352.21,225.15 352.84,225.23
             364.99,227.13 374.22,234.14 381.45,243.97
             384.55,249.28 384.93,254.98 384.00,261.00
             382.04,266.73 379.12,270.69 375.12,275.19
             374.35,276.09 374.35,276.09 373.56,277.01
             369.37,281.82 365.28,286.13 359.00,288.00
             356.11,288.20 356.11,288.20 353.19,288.12
             352.21,288.11 351.24,288.09 350.23,288.07
             349.49,288.05 348.76,288.02 348.00,288.00
             348.33,288.99 348.66,289.98 349.00,291.00
             349.93,298.63 348.03,304.91 343.46,311.08
             341.74,313.08 339.96,314.98 338.12,316.88
             337.53,317.52 336.93,318.17 336.31,318.84
             330.47,325.00 325.38,327.28 317.00,328.00
             317.05,328.56 317.09,329.11 317.14,329.69
             317.18,330.45 317.21,331.21 317.25,332.00
             317.30,332.74 317.34,333.48 317.39,334.25
             316.31,341.88 311.32,347.41 306.19,352.81
             305.60,353.47 305.01,354.12 304.40,354.79
             299.78,359.72 295.84,362.64 288.91,363.29
             287.50,363.24 287.50,363.24 286.06,363.19
             285.10,363.16 284.15,363.13 283.16,363.11
             282.45,363.07 281.73,363.04 281.00,363.00
             281.33,363.66 281.66,364.32 282.00,365.00
             282.20,367.10 282.20,367.10 282.25,369.62
             282.29,370.85 282.29,370.85 282.33,372.10
             281.56,378.93 279.27,383.19 274.16,387.71
             268.72,392.58 265.33,396.55 264.89,404.00
             264.87,407.24 264.92,410.46 265.01,413.69
             264.96,425.98 260.60,438.18 252.00,447.00
             248.74,449.32 245.94,449.62 242.00,449.00
             236.69,445.47 232.94,440.68 229.44,435.44
             228.97,434.74 228.49,434.04 228.01,433.33
             222.36,424.79 218.40,415.64 215.00,406.00
             214.36,406.86 213.72,407.71 213.06,408.60
             202.35,422.81 191.30,433.60 173.24,437.61
             161.24,439.04 145.95,438.25 135.69,431.47
             132.48,428.83 130.21,426.83 129.73,422.64
             129.43,414.10 131.51,407.72 135.00,400.00
             135.47,398.97 135.93,397.94 136.41,396.88
             137.25,395.02 138.11,393.18 138.98,391.34
             140.48,387.90 141.11,384.73 141.28,381.00
             141.32,380.26 141.36,379.51 141.39,378.75
             141.47,377.21 141.54,375.66 141.61,374.11
             141.77,370.87 141.97,368.10 143.00,365.00
             142.44,364.97 141.89,364.95 141.31,364.92
             134.77,364.44 129.07,363.30 124.45,358.33
             116.69,347.52 109.82,333.09 109.73,319.72
             108.78,316.18 106.86,314.05 104.61,311.20
             101.93,307.54 100.10,303.56 98.25,299.44
             97.86,298.57 97.46,297.70 97.06,296.80
             94.20,290.19 92.90,284.39 92.61,277.16
             91.94,273.71 90.72,272.24 88.38,269.69
             85.68,266.38 84.08,262.42 82.31,258.56
             81.92,257.74 81.53,256.92 81.13,256.08
             77.82,248.98 75.79,242.59 75.73,234.72
             74.96,231.86 74.07,230.62 72.25,228.32
             68.69,223.80 66.46,219.02 64.19,213.75
             63.79,212.87 63.40,211.98 62.99,211.07
             59.00,202.01 57.06,193.49 60.56,183.81
             62.13,180.19 63.88,178.04 66.75,175.38
             69.87,172.13 70.34,169.78 70.28,165.29
             70.22,163.89 70.15,162.48 70.09,161.07
             69.58,148.39 76.55,137.67 84.75,128.50
             86.80,126.30 88.87,124.13 91.00,122.00
             93.62,122.38 93.62,122.38 96.00,123.00
             94.68,125.98 93.30,127.84 90.88,130.00
             80.25,140.36 75.79,151.50 75.00,166.00
             78.53,166.00 80.42,165.02 83.62,163.56
             88.91,161.29 93.28,160.29 99.00,160.00
             100.70,162.65 102.36,165.31 104.00,168.00
             104.56,168.90 105.12,169.80 105.70,170.73
             109.94,177.91 109.94,177.91 110.19,182.69
             107.70,189.64 104.64,194.39 98.00,198.00
             94.58,199.14 91.91,199.10 88.31,199.06
             87.13,199.05 85.95,199.04 84.74,199.04
             83.83,199.02 82.93,199.01 82.00,199.00
             80.37,201.83 80.37,201.83 79.00,205.00
             79.33,205.99 79.66,206.98 80.00,208.00
             84.11,209.82 87.54,210.32 92.00,210.00
             95.10,208.79 95.10,208.79 98.19,207.12
             104.09,204.25 109.50,202.76 116.00,202.00
             117.17,203.96 118.34,205.91 119.50,207.88
             120.47,209.51 120.47,209.51 121.47,211.18
             123.00,214.00 123.00,214.00 123.00,216.00
             126.63,214.02 130.26,212.04 134.00,210.00
             133.55,208.58 133.09,207.15 132.62,205.69
             132.31,202.94 132.31,202.94 133.00,200.00
             136.37,195.98 140.94,193.11 145.26,190.20
             147.60,188.58 149.80,186.81 152.00,185.00
             151.24,184.78 150.48,184.56 149.69,184.34
             137.80,180.68 128.72,175.25 122.75,164.06
             118.95,155.78 117.41,146.68 119.55,137.70
             122.07,131.57 127.35,128.13 133.00,125.00
             135.31,124.31 135.31,124.31 137.00,124.00
             137.00,123.01 137.00,122.02 137.00,121.00
             135.78,120.61 134.57,120.22 133.31,119.81
             129.20,118.44 125.12,116.96 121.06,115.44
             119.41,114.82 119.41,114.82 117.72,114.18
             115.00,113.00 115.00,113.00 113.00,111.00
             112.75,108.50 112.75,108.50 113.00,106.00
             113.66,105.34 114.32,104.68 115.00,104.00
             121.39,104.24 126.87,106.75 132.69,109.25
             133.62,109.63 134.56,110.02 135.53,110.41
             140.47,112.52 144.23,114.15 147.00,119.00
             147.56,122.92 147.51,125.09 145.56,128.56
             142.64,131.35 139.54,133.44 136.12,135.57
             133.23,137.52 131.37,139.03 130.12,142.31
             129.93,146.50 131.72,149.41 134.30,152.62
             136.51,154.41 138.12,154.61 140.93,154.98
             141.93,155.12 142.93,155.26 143.96,155.41
             145.04,155.54 146.12,155.68 147.23,155.82
             148.34,155.98 149.44,156.13 150.58,156.28
             154.11,156.76 157.65,157.23 161.19,157.69
             163.58,158.01 165.98,158.33 168.37,158.66
             174.25,159.45 180.12,160.23 186.00,161.00
             187.65,166.61 189.30,172.22 191.00,178.00
             192.84,176.92 192.84,176.92 194.73,175.81
             196.36,174.87 197.99,173.94 199.62,173.00
             200.43,172.52 201.24,172.05 202.07,171.55
             210.14,166.97 210.14,166.97 215.00,168.00
             217.92,169.93 217.92,169.93 220.75,172.44
             224.15,175.55 224.15,175.55 228.00,178.00
             228.00,171.07 228.00,164.14 228.00,157.00
             231.22,155.13 234.45,153.28 237.69,151.44
             238.60,150.90 239.51,150.37 240.45,149.82
             241.34,149.32 242.22,148.82 243.14,148.31
             244.35,147.61 244.35,147.61 245.60,146.90
             248.52,145.81 250.05,146.09 253.00,147.00
             255.02,148.19 255.02,148.19 256.81,149.56
             257.42,150.02 258.02,150.47 258.64,150.94
             259.09,151.29 259.54,151.64 260.00,152.00
             260.46,147.43 260.10,144.12 258.00,140.00
             252.90,135.97 246.76,133.41 240.83,130.84
             239.00,130.00 239.00,130.00 238.00,129.00
             237.84,127.59 237.75,126.17 237.68,124.75
             237.62,123.47 237.62,123.47 237.56,122.16
             237.52,121.26 237.48,120.36 237.44,119.44
             237.39,118.54 237.35,117.63 237.31,116.71
             237.20,114.47 237.10,112.24 237.00,110.00
             236.63,110.61 236.26,111.22 235.88,111.85
             231.14,119.58 225.01,125.65 217.00,130.00
             214.00,130.56 214.00,130.56 211.00,130.00
             206.53,125.31 203.84,120.18 201.04,114.39
             198.95,110.27 197.01,107.54 193.00,105.00
             189.04,104.92 186.72,105.99 183.69,108.38
             180.42,111.57 180.08,113.06 179.69,117.56
             179.75,123.46 181.97,129.42 185.61,134.05
             187.57,136.81 187.48,138.80 187.36,142.10
             186.80,145.08 185.44,146.30 183.00,148.00
             170.32,151.89 155.90,148.97 144.00,144.00
             142.31,143.04 140.63,142.06 139.00,141.00
             139.50,139.02 139.50,139.02 140.00,137.00
             143.49,137.60 146.50,138.53 149.75,139.94
             160.18,144.17 170.87,145.47 182.00,143.00
             181.61,137.90 179.74,134.43 177.16,130.15
             174.01,124.30 174.43,117.47 175.00,111.00
             177.27,106.03 180.30,103.70 185.00,101.00
             189.38,99.54 193.21,99.30 197.56,101.00
             204.49,106.69 208.49,114.90 212.00,123.00
             212.00,123.66 212.00,124.32 212.00,125.00
             213.95,124.79 213.95,124.79 216.00,124.00
             220.48,117.65 223.78,106.65 222.75,98.94
             222.03,95.97 222.03,95.97 221.00,93.00
             220.55,86.30 221.14,80.59 225.44,75.19
             227.21,73.34 229.06,71.67 231.00,70.00
             231.73,69.33 232.46,68.66 233.21,67.97
             233.97,67.32 234.72,66.67 235.50,66.00
             236.19,65.40 236.88,64.80 237.59,64.19
             241.03,62.49 243.48,62.83 247.00,64.00 Z
           M 245.00,69.00
           C 244.22,74.74 243.74,80.43 243.46,86.21
             243.40,87.50 243.40,87.50 243.33,88.81
             243.24,90.60 243.16,92.40 243.07,94.20
             242.94,96.93 242.80,99.65 242.66,102.38
             242.58,104.14 242.49,105.90 242.40,107.65
             242.36,108.46 242.32,109.26 242.28,110.09
             242.03,115.40 241.97,120.68 242.00,126.00
             245.14,127.67 248.29,129.34 251.44,131.00
             252.34,131.48 253.23,131.95 254.16,132.45
             255.44,133.12 255.44,133.12 256.75,133.81
             257.93,134.44 257.93,134.44 259.14,135.08
             260.80,136.07 260.80,136.07 262.00,136.00
             262.99,117.19 263.98,98.38 265.00,79.00
             255.43,72.26 255.43,72.26 245.00,69.00 Z
           M 229.00,78.00
           C 225.43,82.83 225.23,88.16 226.00,94.00
             226.66,94.99 227.32,95.98 228.00,97.00
             227.64,104.52 225.79,111.71 224.00,119.00
             233.03,111.04 239.09,98.94 240.00,87.00
             240.10,84.00 240.10,81.00 240.06,78.00
             240.06,77.23 240.05,76.45 240.05,75.65
             240.04,73.77 240.02,71.88 240.00,70.00
             236.42,70.00 231.56,75.71 229.00,78.00 Z
           M 292.00,92.00
           C 290.75,110.99 289.64,129.97 289.00,149.00
             291.58,150.49 294.16,151.96 296.75,153.44
             297.48,153.86 298.21,154.28 298.96,154.71
             299.67,155.12 300.38,155.52 301.11,155.93
             302.08,156.49 302.08,156.49 303.08,157.06
             305.04,158.02 306.87,158.55 309.00,159.00
             310.31,140.00 311.40,121.03 312.00,102.00
             308.86,100.33 305.71,98.66 302.56,97.00
             301.66,96.52 300.77,96.05 299.84,95.55
             298.99,95.10 298.13,94.65 297.25,94.19
             296.46,93.77 295.67,93.35 294.86,92.92
             293.20,91.93 293.20,91.93 292.00,92.00 Z
           M 278.12,100.31
           C 276.88,101.31 275.63,102.31 274.38,103.30
             273.83,103.75 273.28,104.19 272.71,104.65
             271.00,106.00 271.00,106.00 268.83,107.29
             266.74,108.91 266.74,108.91 266.45,111.73
             266.43,112.80 266.41,113.87 266.39,114.98
             266.36,116.14 266.33,117.31 266.29,118.51
             266.28,119.72 266.26,120.94 266.25,122.19
             266.22,123.41 266.19,124.64 266.16,125.90
             266.09,128.94 266.04,131.97 266.00,135.00
             266.50,134.62 267.01,134.24 267.52,133.85
             270.77,131.40 274.02,128.96 277.37,126.66
             278.38,125.94 279.39,125.23 280.44,124.50
             281.98,123.43 281.98,123.43 283.56,122.34
             287.07,118.97 286.93,116.45 287.06,111.74
             287.10,109.20 287.09,106.67 287.06,104.12
             287.06,103.25 287.05,102.37 287.05,101.46
             287.04,99.31 287.02,97.15 287.00,95.00
             283.42,95.00 280.82,98.13 278.12,100.31 Z
           M 325.00,124.00
           C 324.04,124.71 323.08,125.41 322.09,126.14
             320.75,127.15 320.75,127.15 319.38,128.19
             318.56,128.80 317.74,129.41 316.90,130.04
             313.68,133.36 313.87,137.42 313.90,141.86
             313.91,142.75 313.91,143.64 313.91,144.55
             313.92,145.46 313.93,146.37 313.94,147.31
             313.94,148.24 313.95,149.18 313.95,150.13
             313.96,152.42 313.98,154.71 314.00,157.00
             317.28,155.41 320.03,153.59 322.94,151.38
             323.98,150.58 325.02,149.79 326.09,148.98
             326.69,148.52 327.30,148.06 327.91,147.59
             330.36,145.72 332.82,143.87 335.28,142.02
             337.17,140.60 339.05,139.17 340.94,137.75
             341.85,137.06 342.76,136.38 343.70,135.67
             348.10,132.34 352.24,129.05 356.00,125.00
             340.30,115.33 340.30,115.33 325.00,124.00 Z
           M 284.00,127.00
           C 274.10,134.43 274.10,134.43 264.00,142.00
             264.27,144.04 264.54,146.08 264.81,148.19
             264.96,149.34 265.11,150.48 265.27,151.67
             266.92,159.21 271.63,162.40 277.56,166.81
             278.34,167.41 279.12,168.01 279.93,168.62
             283.59,171.79 283.59,171.79 288.00,173.00
             288.16,162.95 288.16,162.95 287.00,153.00
             286.34,153.00 285.68,153.00 285.00,153.00
             285.33,144.75 285.66,136.50 286.00,128.00
             285.34,127.67 284.68,127.34 284.00,127.00 Z
           M 125.00,137.00
           C 121.68,143.64 122.61,149.32 124.75,156.12
             127.86,164.71 132.48,170.77 140.00,176.00
             143.91,177.77 147.82,179.03 152.00,180.00
             153.14,180.30 154.28,180.61 155.45,180.92
             160.23,181.03 162.35,178.95 165.62,175.81
             166.72,174.82 167.82,173.83 168.91,172.83
             169.43,172.35 169.95,171.87 170.48,171.37
             171.89,170.10 173.39,168.92 174.90,167.76
             175.59,167.18 176.29,166.60 177.00,166.00
             177.00,165.34 177.00,164.68 177.00,164.00
             175.89,163.86 174.77,163.72 173.62,163.57
             169.46,163.05 165.31,162.51 161.15,161.97
             159.35,161.74 157.56,161.51 155.76,161.29
             153.17,160.96 150.58,160.62 148.00,160.29
             146.80,160.14 146.80,160.14 145.59,159.99
             133.79,158.44 133.79,158.44 130.26,155.60
             126.83,150.95 125.87,148.02 125.94,142.31
             125.95,141.32 125.96,140.32 125.96,139.30
             125.98,138.54 125.99,137.78 126.00,137.00
             125.67,137.00 125.34,137.00 125.00,137.00 Z
           M 241.31,154.50
           C 240.71,154.83 240.10,155.17 239.47,155.51
             237.98,156.34 236.49,157.17 235.00,158.00
             235.00,158.66 235.00,159.32 235.00,160.00
             236.53,161.40 236.53,161.40 238.56,162.80
             239.33,163.36 240.10,163.92 240.90,164.50
             241.73,165.10 242.57,165.69 243.44,166.31
             245.17,167.57 246.91,168.83 248.64,170.09
             249.53,170.73 250.42,171.38 251.33,172.04
             255.49,175.10 259.59,178.23 263.69,181.38
             264.42,181.94 265.16,182.51 265.92,183.09
             267.61,184.39 269.31,185.69 271.00,187.00
             275.62,184.69 280.24,182.38 285.00,180.00
             285.35,177.05 285.35,177.05 283.71,175.67
             283.11,175.23 282.50,174.78 281.88,174.32
             280.86,173.55 280.86,173.55 279.82,172.77
             279.07,172.23 278.33,171.69 277.56,171.12
             276.01,169.97 274.46,168.81 272.90,167.65
             271.69,166.76 271.69,166.76 270.46,165.84
             268.01,164.01 265.60,162.14 263.19,160.25
             262.43,159.66 261.66,159.06 260.87,158.44
             259.39,157.29 257.92,156.13 256.45,154.96
             255.78,154.44 255.11,153.92 254.41,153.39
             253.83,152.92 253.24,152.46 252.63,151.99
             248.51,149.49 244.98,152.44 241.31,154.50 Z
           M 233.00,164.00
           C 232.95,166.40 232.91,168.79 232.88,171.19
             232.86,171.86 232.84,172.53 232.82,173.23
             232.78,177.31 232.87,180.48 235.00,184.00
             237.21,186.14 239.60,187.97 242.06,189.81
             242.71,190.31 243.36,190.82 244.03,191.33
             246.75,193.85 246.75,193.85 250.00,195.00
             250.03,193.17 250.05,191.33 250.06,189.50
             250.07,188.48 250.09,187.46 250.10,186.41
             250.07,185.28 250.03,184.16 250.00,183.00
             250.01,182.35 250.02,181.69 250.04,181.02
             249.93,177.83 249.68,175.77 247.53,173.33
             245.59,171.75 243.60,170.37 241.50,169.00
             240.80,168.51 240.09,168.02 239.37,167.52
             236.42,165.10 236.42,165.10 233.00,164.00 Z
           M 70.00,177.71
           C 65.43,182.95 62.66,188.89 63.00,196.00
             64.32,202.68 67.09,208.87 70.00,215.00
             71.77,211.69 72.99,208.29 74.25,204.75
             78.21,194.41 84.43,186.40 94.62,181.69
             97.85,180.31 100.45,179.71 104.00,179.00
             101.69,174.38 99.38,169.76 97.00,165.00
             86.57,165.00 77.30,170.55 70.00,177.71 Z
           M 328.94,170.12
           C 328.04,170.89 327.14,171.66 326.21,172.45
             323.53,175.54 323.28,176.94 323.00,181.00
             323.58,183.84 324.23,186.49 325.05,189.25
             325.39,190.41 325.39,190.41 325.72,191.60
             326.43,194.07 327.15,196.54 327.88,199.00
             328.59,201.46 329.30,203.93 330.00,206.40
             330.44,207.93 330.89,209.46 331.34,210.99
             332.49,214.97 333.41,218.88 334.00,223.00
             333.45,223.23 332.90,223.45 332.33,223.68
             328.28,225.97 325.23,229.52 321.95,232.79
             318.37,235.47 316.47,236.03 312.00,236.00
             309.04,235.14 306.33,233.91 303.56,232.56
             302.83,232.22 302.10,231.89 301.35,231.54
             299.56,230.71 297.78,229.86 296.00,229.00
             296.28,230.09 296.55,231.17 296.84,232.29
             297.21,233.73 297.57,235.18 297.94,236.62
             298.12,237.34 298.30,238.05 298.49,238.79
             298.85,240.20 299.19,241.61 299.52,243.02
             299.94,244.77 300.44,246.49 300.95,248.20
             301.00,251.00 301.00,251.00 298.87,253.63
             297.88,254.46 296.89,255.28 295.88,256.12
             294.90,256.95 293.93,257.78 292.93,258.63
             291.48,259.80 291.48,259.80 290.00,261.00
             289.20,261.78 288.40,262.56 287.57,263.37
             285.00,265.00 285.00,265.00 281.65,264.94
             277.74,263.93 274.23,262.61 270.56,260.94
             269.93,260.66 269.29,260.37 268.63,260.08
             267.09,259.40 265.54,258.70 264.00,258.00
             264.66,263.27 265.73,268.30 267.06,273.44
             267.25,274.17 267.44,274.90 267.63,275.65
             268.08,277.44 268.54,279.22 269.00,281.00
             268.45,281.23 267.90,281.45 267.34,281.68
             263.26,283.98 260.18,287.52 256.85,290.79
             253.64,293.28 252.05,293.99 248.00,294.00
             244.68,292.79 244.68,292.79 241.31,291.06
             236.87,288.67 236.87,288.67 232.00,288.00
             232.51,293.56 233.64,298.42 235.48,303.70
             236.07,306.30 236.06,307.56 235.00,310.00
             233.34,311.39 233.34,311.39 231.38,312.69
             228.70,314.83 228.70,314.83 227.66,317.96
             227.90,320.40 228.38,322.63 229.00,325.00
             229.25,325.99 229.50,326.98 229.76,328.00
             230.28,330.01 230.81,332.01 231.38,334.01
             232.13,337.62 232.54,340.32 232.00,344.00
             230.09,346.33 227.78,347.93 225.31,349.62
             224.06,350.53 222.80,351.44 221.55,352.35
             220.95,352.79 220.35,353.22 219.73,353.67
             217.25,355.58 215.15,357.73 213.00,360.00
             215.78,360.85 215.78,360.85 219.00,361.00
             221.43,359.46 221.43,359.46 223.44,357.06
             224.21,356.22 224.99,355.38 225.79,354.52
             226.52,353.69 227.25,352.86 228.00,352.00
             228.56,351.38 229.13,350.75 229.71,350.11
             231.94,347.61 234.11,345.05 236.28,342.50
             243.20,334.34 250.28,326.36 257.57,318.54
             263.20,312.47 268.74,306.33 274.16,300.08
             276.37,297.58 278.62,295.14 280.88,292.69
             284.28,288.97 287.53,285.18 290.69,281.25
             293.72,277.49 296.86,274.02 300.33,270.66
             302.72,268.28 304.91,265.73 307.12,263.17
             309.22,260.75 311.35,258.37 313.50,256.00
             316.19,253.02 318.86,250.03 321.50,247.00
             326.34,241.44 331.29,235.97 336.26,230.53
             340.18,226.22 343.97,221.85 347.62,217.31
             350.71,213.49 353.91,209.96 357.44,206.56
             358.97,205.03 360.33,203.44 361.69,201.75
             363.68,199.39 365.45,197.70 368.00,196.00
             364.87,187.00 357.85,182.71 349.69,178.57
             345.41,176.07 342.30,172.65 339.00,169.00
             337.49,167.29 337.49,167.29 336.00,166.00
             332.79,166.00 331.30,168.07 328.94,170.12 Z
           M 182.00,167.00
           C 181.22,167.67 180.45,168.33 179.65,169.02
             172.18,175.40 164.57,181.56 156.81,187.59
             154.91,189.07 153.01,190.57 151.11,192.07
             150.47,192.57 149.84,193.07 149.18,193.59
             147.96,194.55 146.75,195.51 145.53,196.47
             143.07,198.41 140.61,200.26 138.00,202.00
             138.61,209.63 140.80,216.70 143.00,224.00
             149.05,220.29 154.47,216.01 159.84,211.39
             166.06,206.05 172.52,201.02 179.00,196.00
             179.95,195.26 180.90,194.52 181.88,193.75
             183.92,192.17 185.96,190.58 188.00,189.00
             187.38,186.08 186.76,183.17 186.12,180.25
             185.95,179.43 185.78,178.60 185.60,177.75
             185.42,176.95 185.25,176.15 185.07,175.33
             184.91,174.59 184.76,173.86 184.59,173.11
             183.97,170.90 183.09,169.02 182.00,167.00 Z
           M 313.00,176.88
           C 312.02,177.71 312.02,177.71 311.02,178.56
             310.39,179.09 309.77,179.63 309.12,180.18
             308.55,180.67 307.98,181.16 307.38,181.67
             305.14,183.83 305.00,184.97 304.84,188.12
             305.12,194.92 306.28,202.16 310.00,208.00
             314.90,212.43 321.64,214.62 328.00,216.00
             326.87,207.65 324.56,199.72 322.03,191.70
             319.89,184.62 318.99,178.21 321.00,171.00
             318.29,171.00 314.98,175.17 313.00,176.88 Z
           M 203.94,176.00
           C 203.27,176.38 202.61,176.76 201.93,177.16
             200.28,178.10 198.64,179.05 197.00,180.00
             201.25,184.56 206.02,188.11 211.06,191.75
             220.90,198.88 220.90,198.88 224.74,201.98
             225.28,202.42 225.82,202.85 226.37,203.29
             227.78,204.42 229.17,205.57 230.55,206.72
             232.93,208.31 232.93,208.31 235.49,207.38
             236.32,206.93 237.15,206.47 238.00,206.00
             239.32,205.36 239.32,205.36 240.68,204.71
             241.55,204.27 242.42,203.83 243.31,203.38
             244.20,202.93 245.08,202.48 245.99,202.02
             246.65,201.69 247.32,201.35 248.00,201.00
             246.60,196.81 243.58,195.19 240.12,192.69
             239.43,192.17 238.73,191.66 238.01,191.13
             236.49,190.01 234.97,188.90 233.45,187.79
             230.87,185.91 228.31,184.00 225.75,182.10
             224.02,180.81 222.29,179.53 220.56,178.25
             219.31,177.32 219.31,177.32 218.03,176.37
             217.26,175.80 216.49,175.23 215.69,174.64
             215.00,174.13 214.31,173.62 213.60,173.09
             210.17,170.75 207.10,174.17 203.94,176.00 Z
           M 85.00,193.00
           C 88.10,194.86 89.90,195.24 93.44,194.50
             98.41,193.24 100.26,191.28 103.00,187.00
             103.85,184.78 103.85,184.78 104.00,183.00
             96.56,183.00 90.09,188.13 85.00,193.00 Z
           M 195.00,185.00
           C 194.97,186.83 194.95,188.67 194.94,190.50
             194.93,191.52 194.91,192.54 194.90,193.59
             194.93,194.72 194.97,195.84 195.00,197.00
             194.99,197.65 194.98,198.31 194.96,198.98
             195.07,202.17 195.32,204.23 197.47,206.67
             199.41,208.25 201.40,209.63 203.50,211.00
             204.20,211.49 204.91,211.98 205.63,212.48
             208.58,214.90 208.58,214.90 212.00,216.00
             212.05,213.60 212.09,211.21 212.12,208.81
             212.14,208.14 212.16,207.47 212.18,206.77
             212.22,202.69 212.13,199.52 210.00,196.00
             207.79,193.86 205.40,192.03 202.94,190.19
             202.29,189.69 201.64,189.18 200.97,188.67
             198.25,186.15 198.25,186.15 195.00,185.00 Z
           M 190.00,192.00
           C 188.64,193.65 187.31,195.31 186.00,197.00
             188.47,198.49 188.47,198.49 191.00,200.00
             191.00,197.36 191.00,194.72 191.00,192.00
             190.67,192.00 190.34,192.00 190.00,192.00 Z
           M 364.56,204.75
           C 363.79,205.86 363.79,205.86 363.00,207.00
             364.26,207.37 365.52,207.74 366.81,208.12
             373.82,210.46 380.19,214.06 386.25,218.25
             394.07,223.23 403.39,222.94 412.19,221.00
             413.45,220.67 414.70,220.34 416.00,220.00
             416.00,219.67 416.00,219.34 416.00,219.00
             415.23,218.90 414.45,218.80 413.66,218.70
             402.13,217.05 395.72,213.75 388.00,205.00
             387.18,203.86 386.37,202.71 385.56,201.56
             382.46,198.46 380.58,197.97 376.28,197.77
             371.15,198.29 367.95,200.93 364.56,204.75 Z
           M 177.00,203.00
           C 176.84,205.58 176.84,205.58 177.00,208.00
             184.01,209.88 190.76,211.40 198.00,212.00
             195.02,208.87 191.87,206.29 188.38,203.75
             187.41,203.04 186.45,202.34 185.46,201.61
             181.66,199.12 180.16,199.95 177.00,203.00 Z
           M 282.20,203.70
           C 280.96,204.96 280.96,204.96 279.69,206.25
             278.85,207.08 278.00,207.91 277.14,208.77
             276.43,209.50 275.73,210.24 275.00,211.00
             274.34,211.66 273.68,212.32 273.00,213.00
             282.49,217.87 292.09,222.53 301.75,227.06
             302.80,227.56 303.84,228.06 304.92,228.58
             306.41,229.27 306.41,229.27 307.92,229.97
             309.25,230.60 309.25,230.60 310.60,231.23
             313.29,232.09 314.41,232.06 317.00,231.00
             319.65,228.93 319.65,228.93 322.25,226.44
             323.14,225.61 324.03,224.78 324.95,223.93
             325.63,223.30 326.30,222.66 327.00,222.00
             324.29,218.73 320.72,217.24 316.95,215.50
             316.26,215.17 315.57,214.85 314.86,214.51
             313.41,213.83 311.95,213.15 310.49,212.47
             308.27,211.45 306.06,210.40 303.84,209.36
             302.42,208.70 301.00,208.03 299.58,207.37
             298.92,207.06 298.27,206.75 297.60,206.44
             289.91,202.43 289.91,202.43 282.20,203.70 Z
           M 87.00,220.00
           C 82.39,225.64 79.44,231.61 80.00,239.00
             81.31,245.69 84.08,251.87 87.00,258.00
             88.58,255.03 89.69,252.06 90.75,248.88
             94.27,239.15 98.94,230.78 108.27,225.79
             112.10,224.00 115.78,222.54 120.00,222.00
             119.42,217.99 118.16,215.14 116.06,211.69
             115.54,210.80 115.01,209.92 114.47,209.01
             113.99,208.35 113.50,207.68 113.00,207.00
             103.77,207.00 93.49,213.93 87.00,220.00 Z
           M 159.44,216.19
           C 158.89,216.67 158.34,217.15 157.77,217.65
             154.38,220.64 151.16,223.78 148.00,227.00
             150.85,227.76 153.71,228.48 156.58,229.16
             160.00,230.00 160.00,230.00 163.05,231.00
             166.29,231.89 168.64,232.33 172.00,232.00
             176.60,229.23 180.15,225.72 184.00,222.00
             185.56,220.78 187.14,219.59 188.75,218.44
             189.85,217.65 190.94,216.84 192.00,216.00
             192.00,215.67 192.00,215.34 192.00,215.00
             188.79,214.32 185.58,213.66 182.38,213.00
             181.02,212.71 181.02,212.71 179.64,212.42
             170.92,210.64 166.34,209.85 159.44,216.19 Z
           M 76.00,212.00
           C 74.39,216.73 73.53,220.15 75.00,225.00
             76.49,225.99 76.49,225.99 78.00,227.00
             78.61,226.08 78.61,226.08 79.24,225.14
             81.49,221.76 83.75,218.38 86.00,215.00
             82.70,214.01 79.40,213.02 76.00,212.00 Z
           M 200.00,214.00
           C 200.66,217.30 201.32,220.60 202.00,224.00
             205.07,225.40 205.07,225.40 208.19,223.56
             209.12,223.05 210.04,222.53 211.00,222.00
             206.79,217.66 206.79,217.66 202.00,214.00
             201.34,214.00 200.68,214.00 200.00,214.00 Z
           M 130.44,217.50
           C 129.61,217.96 128.78,218.43 127.93,218.91
             127.30,219.27 126.66,219.63 126.00,220.00
             125.29,223.20 125.29,223.20 126.00,227.00
             128.44,229.84 131.39,231.90 134.44,234.06
             135.22,234.65 136.00,235.23 136.81,235.84
             142.08,239.75 147.51,243.41 153.00,247.00
             155.34,245.19 157.67,243.38 160.00,241.56
             160.67,241.05 161.34,240.53 162.02,240.00
             163.70,238.69 165.35,237.35 167.00,236.00
             167.00,235.67 167.00,235.34 167.00,235.00
             166.25,234.85 165.51,234.71 164.74,234.56
             161.37,233.90 158.00,233.23 154.62,232.56
             153.45,232.33 152.27,232.10 151.06,231.87
             149.38,231.53 149.38,231.53 147.66,231.19
             146.63,230.99 145.59,230.78 144.52,230.57
             142.00,230.00 142.00,230.00 140.00,229.00
             139.20,226.64 138.51,224.34 137.88,221.94
             137.69,221.27 137.51,220.61 137.32,219.93
             136.88,218.29 136.44,216.64 136.00,215.00
             134.00,215.00 132.12,216.55 130.44,217.50 Z
           M 272.00,218.00
           C 272.64,220.60 273.29,223.21 273.94,225.81
             274.12,226.55 274.30,227.29 274.49,228.05
             275.43,233.78 275.43,233.78 278.64,238.09
             279.34,238.42 280.03,238.74 280.75,239.08
             281.50,239.43 282.26,239.79 283.03,240.16
             283.83,240.52 284.62,240.88 285.44,241.25
             286.23,241.63 287.02,242.00 287.83,242.39
             290.86,243.82 290.86,243.82 294.00,245.00
             294.66,244.67 295.32,244.34 296.00,244.00
             294.86,233.10 294.86,233.10 289.01,224.36
             284.34,221.67 277.54,218.00 272.00,218.00 Z
           M 195.00,219.00
           C 185.45,226.19 176.01,233.48 166.86,241.18
             163.15,244.29 159.40,247.11 155.38,249.81
             152.67,251.89 152.67,251.89 151.59,254.99
             151.77,257.47 152.31,259.61 153.00,262.00
             153.25,263.07 153.51,264.14 153.77,265.24
             154.47,268.17 155.22,271.09 156.00,274.00
             161.25,272.43 164.85,269.05 168.94,265.56
             170.46,264.29 171.98,263.02 173.50,261.75
             174.25,261.12 175.01,260.48 175.79,259.83
             178.98,257.19 182.23,254.62 185.50,252.06
             186.07,251.62 186.64,251.17 187.22,250.72
             188.81,249.48 190.41,248.24 192.00,247.00
             192.95,246.26 193.89,245.53 194.87,244.77
             196.91,243.17 198.95,241.59 201.00,240.00
             200.38,237.06 199.76,234.12 199.12,231.19
             198.95,230.35 198.78,229.52 198.60,228.66
             198.42,227.86 198.25,227.06 198.07,226.23
             197.91,225.49 197.76,224.75 197.59,223.99
             197.02,221.71 197.02,221.71 195.00,219.00 Z
           M 106.00,232.00
           C 103.37,234.62 103.37,234.62 102.00,237.00
             107.73,237.34 112.11,237.41 117.00,234.00
             120.02,230.39 120.02,230.39 121.00,226.00
             115.08,226.00 110.90,228.83 106.00,232.00 Z
           M 334.00,238.00
           C 334.00,238.66 334.00,239.32 334.00,240.00
             334.82,240.21 335.64,240.42 336.49,240.63
             344.55,242.85 350.51,245.77 357.00,251.00
             357.99,251.74 357.99,251.74 359.00,252.50
             365.18,257.38 368.91,263.40 371.00,271.00
             376.10,267.37 378.77,264.23 380.00,258.00
             380.11,250.93 377.58,246.31 373.00,241.00
             366.36,234.63 359.83,230.09 350.50,229.56
             343.92,229.80 338.12,232.85 334.00,238.00 Z
           M 124.00,231.00
           C 119.73,235.79 119.62,239.50 119.86,245.80
             119.91,246.53 119.95,247.25 120.00,248.00
             121.22,247.67 122.43,247.34 123.69,247.00
             129.94,245.48 129.94,245.48 133.00,246.00
             134.64,248.02 134.64,248.02 136.00,250.00
             136.73,246.45 136.91,243.53 136.00,240.00
             132.74,236.40 129.07,233.63 125.00,231.00
             124.67,231.00 124.34,231.00 124.00,231.00 Z
           M 246.31,236.00
           C 245.80,236.48 245.29,236.95 244.76,237.45
             243.50,238.62 242.25,239.81 241.00,241.00
             243.04,243.20 244.88,244.62 247.58,245.92
             248.29,246.26 249.00,246.60 249.73,246.96
             250.49,247.32 251.24,247.68 252.03,248.05
             252.81,248.42 253.60,248.80 254.41,249.18
             256.07,249.97 257.73,250.76 259.39,251.54
             261.93,252.75 264.46,253.97 267.00,255.19
             268.61,255.96 270.23,256.72 271.84,257.48
             272.60,257.85 273.35,258.22 274.13,258.60
             277.93,260.49 277.93,260.49 282.06,260.72
             285.12,259.59 287.27,257.53 289.75,255.44
             290.73,254.61 291.72,253.78 292.73,252.93
             293.48,252.30 294.23,251.66 295.00,251.00
             292.93,248.75 291.08,247.37 288.31,246.10
             287.58,245.76 286.85,245.42 286.10,245.07
             285.31,244.71 284.53,244.36 283.72,243.99
             282.91,243.62 282.10,243.24 281.26,242.86
             279.55,242.07 277.84,241.29 276.13,240.51
             273.51,239.32 270.89,238.11 268.27,236.90
             266.61,236.13 264.94,235.37 263.28,234.61
             262.10,234.07 262.10,234.07 260.90,233.51
             253.80,230.30 251.76,230.79 246.31,236.00 Z
           M 108.24,240.74
           C 104.81,241.14 101.45,241.06 98.00,241.00
             95.68,244.81 95.68,244.81 95.14,249.09
             95.85,251.16 95.85,251.16 97.89,252.08
             104.13,254.01 107.30,254.28 113.31,251.44
             114.20,250.96 115.09,250.49 116.00,250.00
             116.00,247.03 116.00,244.06 116.00,241.00
             113.27,239.63 111.18,240.32 108.24,240.74 Z
           M 140.00,244.00
           C 140.11,246.77 140.24,249.54 140.38,252.31
             140.41,253.10 140.44,253.88 140.47,254.69
             140.51,255.45 140.55,256.21 140.59,256.99
             140.63,258.03 140.63,258.03 140.68,259.10
             140.92,261.33 140.92,261.33 143.00,264.00
             142.88,270.09 140.63,274.29 137.00,279.00
             132.57,283.04 128.66,283.12 122.81,283.06
             121.54,283.05 120.27,283.04 118.96,283.04
             117.49,283.02 117.49,283.02 116.00,283.00
             115.34,284.09 114.68,285.19 114.00,286.31
             113.44,287.23 113.44,287.23 112.88,288.18
             111.78,290.11 111.78,290.11 112.00,293.00
             117.02,296.09 121.24,297.02 127.00,296.00
             129.66,294.90 132.13,293.62 134.65,292.25
             139.90,289.46 144.06,289.00 150.00,289.00
             154.45,296.92 154.45,296.92 159.00,305.00
             160.65,303.35 162.30,301.70 164.00,300.00
             165.31,298.87 166.64,297.75 167.99,296.67
             168.69,296.10 169.40,295.53 170.13,294.94
             170.85,294.36 171.57,293.78 172.31,293.19
             173.05,292.59 173.79,291.99 174.56,291.38
             176.37,289.92 178.18,288.46 180.00,287.00
             177.52,284.52 175.98,284.40 172.55,283.71
             170.94,283.38 170.94,283.38 169.29,283.05
             167.60,282.71 167.60,282.71 165.88,282.38
             164.74,282.15 163.60,281.92 162.43,281.68
             159.62,281.11 156.81,280.55 154.00,280.00
             152.99,276.15 151.99,272.29 151.00,268.44
             150.71,267.35 150.43,266.27 150.13,265.15
             147.82,256.07 147.82,256.07 148.03,251.91
             148.31,248.98 148.31,248.98 146.50,247.22
             145.86,246.84 145.22,246.46 144.56,246.06
             143.92,245.66 143.29,245.26 142.63,244.85
             141.16,243.92 141.16,243.92 140.00,244.00 Z
           M 327.00,246.00
           C 322.98,250.50 323.05,255.18 323.00,261.00
             323.07,264.37 323.07,264.37 325.00,267.00
             327.41,268.70 329.88,270.14 332.46,271.56
             337.67,274.51 341.33,278.28 345.00,283.00
             348.49,284.74 352.19,284.45 356.00,284.00
             360.48,282.46 363.35,280.98 366.00,277.00
             366.08,274.67 366.09,272.33 366.00,270.00
             365.23,270.06 364.45,270.12 363.66,270.18
             356.32,270.49 351.58,269.94 346.00,265.00
             339.90,259.04 338.68,253.19 338.00,245.00
             332.18,243.73 332.18,243.73 327.00,246.00 Z
           M 240.00,247.00
           C 240.26,248.48 240.54,249.96 240.81,251.44
             240.96,252.26 241.11,253.08 241.27,253.93
             241.51,254.95 241.75,255.96 242.00,257.00
             242.14,257.72 242.28,258.45 242.42,259.20
             243.28,262.73 243.97,265.22 246.93,267.47
             249.31,268.67 251.69,269.64 254.19,270.56
             255.03,270.90 255.88,271.24 256.75,271.60
             258.82,272.43 260.90,273.23 263.00,274.00
             262.57,271.59 262.11,269.19 261.58,266.79
             261.00,264.00 261.00,264.00 260.80,261.61
             260.33,258.71 259.84,257.33 258.00,255.00
             253.51,252.07 245.41,247.00 240.00,247.00 Z
           M 342.00,247.00
           C 342.34,253.39 343.58,257.30 348.00,262.00
             352.61,265.89 356.14,266.71 362.00,267.00
             362.66,266.67 363.32,266.34 364.00,266.00
             361.65,257.39 353.46,252.74 346.36,248.29
             344.15,246.84 344.15,246.84 342.00,247.00 Z
           M 106.00,261.00
           C 99.96,267.59 97.44,273.61 97.53,282.57
             98.39,288.87 101.19,294.34 104.00,300.00
             106.02,296.96 107.03,294.30 108.25,290.88
             111.55,282.19 115.88,274.02 124.00,269.00
             126.82,267.80 129.63,266.79 132.55,265.86
             135.21,265.04 135.21,265.04 138.00,263.00
             135.69,258.71 133.38,254.42 131.00,250.00
             122.14,250.00 112.68,255.33 106.00,261.00 Z
           M 93.00,254.00
           C 90.97,260.47 90.97,260.47 92.00,267.00
             92.97,268.03 93.97,269.03 95.00,270.00
             96.20,268.21 97.38,266.42 98.56,264.62
             99.22,263.63 99.89,262.63 100.57,261.60
             101.28,260.31 101.28,260.31 102.00,259.00
             100.69,256.39 99.64,256.32 96.94,255.38
             96.20,255.11 95.47,254.85 94.71,254.59
             94.15,254.39 93.58,254.20 93.00,254.00 Z
           M 318.00,259.00
           C 317.01,260.98 316.02,262.96 315.00,265.00
             316.65,265.00 318.30,265.00 320.00,265.00
             319.67,263.02 319.34,261.04 319.00,259.00
             318.67,259.00 318.34,259.00 318.00,259.00 Z
           M 215.18,263.37
           C 213.67,265.46 213.69,266.58 213.94,269.12
             214.49,272.42 215.47,273.85 218.00,276.00
             220.23,277.21 222.43,278.32 224.71,279.39
             225.37,279.70 226.02,280.01 226.69,280.33
             228.07,280.98 229.44,281.62 230.82,282.26
             232.93,283.25 235.03,284.25 237.13,285.26
             238.47,285.89 239.81,286.51 241.15,287.14
             241.78,287.44 242.40,287.74 243.05,288.06
             245.57,289.21 247.47,290.05 250.27,289.80
             253.02,288.53 255.02,286.60 257.25,284.56
             258.14,283.76 259.03,282.96 259.95,282.13
             262.23,280.25 262.23,280.25 262.00,278.00
             256.50,275.43 251.00,272.87 245.50,270.31
             243.63,269.44 241.76,268.57 239.89,267.69
             237.20,266.43 234.51,265.19 231.82,263.94
             230.99,263.54 230.15,263.15 229.29,262.74
             228.51,262.38 227.72,262.02 226.92,261.65
             226.23,261.33 225.55,261.01 224.84,260.68
             220.68,259.14 218.39,260.58 215.18,263.37 Z
           M 172.94,267.19
           C 172.34,267.67 171.74,268.15 171.12,268.65
             167.53,271.58 164.22,274.67 161.00,278.00
             164.04,278.68 167.08,279.34 170.12,280.00
             171.41,280.29 171.41,280.29 172.72,280.58
             180.34,282.63 180.34,282.63 187.69,281.04
             189.56,279.71 191.31,278.29 193.06,276.81
             193.66,276.33 194.26,275.85 194.88,275.35
             198.47,272.42 201.78,269.33 205.00,266.00
             201.96,265.32 198.92,264.66 195.88,264.00
             195.02,263.81 194.16,263.62 193.28,263.42
             184.38,261.50 180.02,261.21 172.94,267.19 Z
           M 128.44,271.88
           C 127.01,272.68 127.01,272.68 125.56,273.49
             123.67,274.60 121.82,275.78 120.00,277.00
             120.33,277.99 120.66,278.98 121.00,280.00
             127.27,279.97 131.01,278.88 135.69,274.67
             137.16,272.79 137.60,271.33 138.00,269.00
             133.64,269.00 132.15,269.76 128.44,271.88 Z
           M 203.75,273.38
           C 198.99,277.39 194.13,281.25 189.16,285.02
             183.78,289.13 178.53,293.41 173.29,297.71
             172.65,298.24 172.00,298.77 171.34,299.31
             170.48,300.02 170.48,300.02 169.60,300.74
             168.13,301.90 166.56,302.96 165.00,304.00
             166.16,311.19 167.75,318.07 170.00,325.00
             173.86,323.32 176.99,320.80 180.25,318.19
             181.16,317.47 181.16,317.47 182.09,316.73
             187.51,312.43 192.86,308.04 198.21,303.66
             203.66,299.22 209.25,295.03 215.00,291.00
             214.37,285.87 213.32,281.03 211.94,276.06
             211.75,275.38 211.56,274.69 211.37,273.99
             210.92,272.33 210.46,270.66 210.00,269.00
             207.81,269.00 205.26,272.09 203.75,273.38 Z
           M 301.50,275.69
           C 300.65,276.78 299.81,277.88 299.00,279.00
             299.81,279.28 300.62,279.56 301.46,279.85
             315.15,284.80 327.40,291.55 334.00,305.00
             334.72,306.98 335.41,308.98 336.00,311.00
             341.03,306.24 344.73,302.15 345.00,295.00
             343.70,286.14 337.72,279.72 330.88,274.33
             321.23,267.93 309.60,266.23 301.50,275.69 Z
           M 218.00,281.00
           C 218.11,281.75 218.21,282.50 218.32,283.27
             218.44,284.25 218.56,285.24 218.69,286.25
             218.88,287.71 218.88,287.71 219.07,289.20
             218.99,292.48 218.19,293.63 216.00,296.00
             217.96,297.00 219.91,298.00 221.88,299.00
             222.97,299.56 224.06,300.11 225.18,300.69
             227.78,302.14 227.78,302.14 230.00,302.00
             229.32,295.91 228.41,289.67 226.00,284.00
             223.13,281.95 221.51,281.00 218.00,281.00 Z
           M 291.00,286.81
           C 288.69,290.49 287.87,292.94 287.94,297.19
             287.96,298.45 287.98,299.70 288.00,301.00
             289.13,301.38 289.13,301.38 290.27,301.78
             302.03,306.18 309.71,313.19 316.00,324.00
             317.42,323.72 318.83,323.42 320.25,323.12
             321.04,322.96 321.83,322.80 322.64,322.63
             325.83,321.78 328.30,320.98 330.25,318.25
             331.19,315.42 331.13,312.96 331.00,310.00
             330.38,310.05 329.77,310.09 329.13,310.14
             322.60,310.42 317.53,309.63 312.00,306.00
             306.72,301.13 303.89,296.47 303.38,289.25
             303.30,288.27 303.23,287.28 303.15,286.27
             303.10,285.52 303.05,284.77 303.00,284.00
             296.26,283.14 296.26,283.14 291.00,286.81 Z
           M 307.00,286.00
           C 306.91,291.48 307.63,295.15 311.25,299.38
             315.96,304.29 315.96,304.29 322.31,306.17
             324.55,306.19 326.76,306.13 329.00,306.00
             325.63,296.31 316.60,290.83 308.00,286.00
             307.67,286.00 307.34,286.00 307.00,286.00 Z
           M 143.28,292.79
           C 131.43,297.32 123.48,302.32 116.12,312.62
             113.33,321.00 114.34,328.39 118.00,336.31
             118.98,338.22 119.97,340.12 121.00,342.00
             123.63,339.37 124.11,336.91 125.25,333.38
             128.56,323.66 134.07,315.73 143.27,310.78
             147.16,308.98 150.77,307.75 155.00,307.00
             153.88,304.68 152.76,302.37 151.62,300.06
             151.31,299.40 150.99,298.74 150.66,298.06
             148.40,292.68 148.40,292.68 143.28,292.79 Z
           M 110.00,297.00
           C 107.96,303.47 107.96,303.47 109.00,310.00
             110.49,310.99 110.49,310.99 112.00,312.00
             113.15,310.38 114.29,308.75 115.44,307.12
             116.39,305.77 116.39,305.77 117.37,304.38
             119.00,302.12 119.00,302.12 120.00,300.00
             116.70,299.01 113.40,298.02 110.00,297.00 Z
           M 283.00,297.00
           C 282.01,298.49 282.01,298.49 281.00,300.00
             281.99,300.00 282.98,300.00 284.00,300.00
             283.67,299.01 283.34,298.02 283.00,297.00 Z
           M 204.94,303.44
           C 204.37,303.86 203.80,304.28 203.22,304.71
             201.79,305.78 200.39,306.89 199.00,308.00
             199.00,308.33 199.00,308.66 199.00,309.00
             202.21,309.68 205.42,310.34 208.62,311.00
             209.53,311.19 210.43,311.38 211.36,311.58
             219.91,313.66 219.91,313.66 227.88,311.12
             228.58,310.42 229.28,309.72 230.00,309.00
             230.00,308.34 230.00,307.68 230.00,307.00
             227.02,305.66 224.04,304.33 221.06,303.00
             220.21,302.62 219.36,302.24 218.49,301.84
             217.68,301.48 216.87,301.12 216.04,300.75
             215.29,300.41 214.54,300.08 213.77,299.73
             210.02,298.18 207.86,301.24 204.94,303.44 Z
           M 268.50,311.69
           C 266.91,313.68 266.91,313.68 267.00,315.00
             267.82,315.21 268.64,315.42 269.49,315.63
             277.55,317.85 283.51,320.77 290.00,326.00
             290.99,326.74 290.99,326.74 292.00,327.50
             298.56,332.68 302.15,338.91 304.00,347.00
             308.69,342.83 312.55,338.26 313.23,331.80
             312.83,323.61 307.98,317.62 302.19,312.19
             295.88,307.04 289.66,304.24 281.43,304.61
             275.99,305.48 272.22,307.69 268.50,311.69 Z
           M 160.00,310.00
           C 159.77,310.59 159.54,311.18 159.30,311.79
             156.82,317.80 154.45,322.24 148.44,325.31
             144.12,326.18 140.09,325.96 135.71,325.68
             132.89,325.73 132.89,325.73 131.18,327.84
             129.87,330.23 129.37,332.31 129.00,335.00
             133.59,338.52 138.34,339.29 144.00,339.00
             149.24,337.61 153.19,335.83 157.00,332.00
             160.75,331.04 163.31,330.95 167.00,332.00
             165.77,324.52 164.11,317.28 162.00,310.00
             161.34,310.00 160.68,310.00 160.00,310.00 Z
           M 137.18,319.73
           C 135.89,320.83 135.89,320.83 136.00,322.00
             143.77,322.83 143.77,322.83 150.56,319.69
             154.15,315.91 154.15,315.91 155.00,311.00
             148.29,311.00 141.95,315.39 137.18,319.73 Z
           M 186.00,317.75
           C 184.64,319.14 183.32,320.57 182.00,322.00
             180.42,323.23 178.82,324.42 177.19,325.56
             176.11,326.35 175.03,327.15 174.00,328.00
             174.00,328.33 174.00,328.66 174.00,329.00
             177.21,329.68 180.42,330.34 183.62,331.00
             184.98,331.29 184.98,331.29 186.36,331.58
             188.90,332.10 191.45,332.56 194.00,333.00
             195.02,333.18 196.05,333.37 197.10,333.55
             201.96,332.63 205.10,329.32 208.75,326.12
             209.90,325.15 209.90,325.15 211.07,324.15
             213.79,321.83 216.47,319.53 219.00,317.00
             201.55,310.92 201.55,310.92 186.00,317.75 Z
           M 260.00,322.00
           C 256.71,325.05 256.32,328.39 256.02,332.70
             255.99,336.43 256.28,338.63 258.00,342.00
             260.39,343.77 262.85,345.18 265.46,346.60
             270.02,349.11 273.29,351.93 276.19,356.31
             279.39,359.37 280.18,359.45 284.44,359.56
             289.92,359.24 293.85,358.15 297.81,354.19
             299.28,351.49 299.65,349.04 300.00,346.00
             297.42,344.71 295.75,345.07 292.88,345.25
             286.13,345.30 282.22,343.14 277.47,338.51
             272.39,332.81 271.61,327.32 271.00,320.00
             266.18,318.77 263.95,318.90 260.00,322.00 Z
           M 216.75,324.31
           C 212.30,328.10 207.79,331.78 203.19,335.38
             197.35,339.93 191.56,344.55 185.80,349.20
             181.22,352.89 181.22,352.89 179.00,354.00
             179.60,361.24 181.12,367.99 183.00,375.00
             187.16,375.00 189.17,372.77 192.25,370.25
             192.87,369.76 193.48,369.26 194.12,368.75
             195.42,367.71 196.72,366.65 198.03,365.60
             200.55,363.55 203.09,361.52 205.64,359.49
             206.88,358.50 208.12,357.50 209.36,356.51
             215.87,351.29 222.43,346.15 229.00,341.00
             226.53,330.61 226.53,330.61 224.00,320.00
             220.75,320.00 219.16,322.24 216.75,324.31 Z
           M 275.00,322.00
           C 275.34,328.39 276.58,332.30 281.00,337.00
             285.61,340.89 289.14,341.71 295.00,342.00
             295.66,341.67 296.32,341.34 297.00,341.00
             294.65,332.39 286.46,327.74 279.36,323.29
             277.15,321.84 277.15,321.84 275.00,322.00 Z
           M 168.00,332.00
           C 168.80,332.95 169.61,333.90 170.44,334.88
             173.79,338.83 174.44,341.54 174.32,346.70
             173.61,351.83 170.05,354.19 166.21,357.16
             164.17,358.68 162.11,360.18 160.04,361.66
             159.03,362.43 158.03,363.20 157.00,364.00
             156.18,364.62 156.18,364.62 155.34,365.25
             151.06,368.89 150.24,372.04 149.71,377.54
             149.61,378.94 149.61,378.94 149.50,380.38
             148.03,394.36 143.39,405.77 137.00,418.23
             135.85,421.41 135.85,422.85 137.00,426.00
             139.04,428.70 141.12,429.62 144.31,430.62
             145.05,430.86 145.79,431.10 146.55,431.35
             158.80,434.59 173.57,434.80 185.00,429.00
             197.53,421.42 208.41,410.18 215.00,397.00
             215.04,394.67 215.04,392.33 215.00,390.00
             214.22,390.06 213.45,390.12 212.65,390.18
             204.71,390.51 198.66,389.24 191.29,386.29
             187.88,384.95 184.53,383.96 181.00,383.00
             180.60,381.19 180.60,381.19 180.20,379.34
             179.84,377.73 179.48,376.11 179.12,374.50
             178.95,373.71 178.78,372.92 178.60,372.10
             177.74,368.24 176.86,364.40 175.87,360.57
             174.58,355.28 174.58,355.28 176.00,352.00
             177.89,350.11 179.84,348.61 182.00,347.00
             181.58,345.04 181.14,343.08 180.69,341.12
             180.44,340.03 180.20,338.94 179.95,337.82
             179.22,334.71 179.22,334.71 176.00,333.00
             173.95,332.55 173.95,332.55 171.81,332.38
             170.55,332.25 169.30,332.13 168.00,332.00 Z
           M 251.00,334.00
           C 250.01,335.98 249.02,337.96 248.00,340.00
             249.65,340.00 251.30,340.00 253.00,340.00
             252.67,338.02 252.34,336.04 252.00,334.00
             251.67,334.00 251.34,334.00 251.00,334.00 Z
           M 156.04,339.10
           C 154.07,342.70 152.70,346.52 151.31,350.38
             150.85,351.59 150.85,351.59 150.38,352.84
             148.52,357.93 147.47,362.60 147.00,368.00
             148.02,366.93 148.02,366.93 149.06,365.84
             152.67,362.23 156.75,359.25 160.83,356.19
             164.82,353.14 168.03,350.07 171.00,346.00
             171.41,342.88 171.41,342.88 170.00,340.00
             167.25,337.13 165.25,335.33 161.38,334.31
             158.41,335.17 157.65,336.57 156.04,339.10 Z
           M 183.00,335.00
           C 183.66,337.97 184.32,340.94 185.00,344.00
             187.64,342.02 190.28,340.04 193.00,338.00
             189.99,334.99 187.18,335.40 183.00,335.00 Z
           M 127.00,340.00
           C 124.86,346.52 124.86,346.52 126.00,353.00
             129.02,356.17 131.82,358.61 136.00,360.00
             138.64,360.00 141.28,360.00 144.00,360.00
             145.98,354.06 147.96,348.12 150.00,342.00
             145.05,342.08 145.05,342.08 140.10,342.18
             135.36,342.22 131.50,341.50 127.00,340.00 Z
           M 236.10,348.76
           C 234.64,350.46 233.28,352.17 232.00,354.00
             232.81,354.28 233.62,354.56 234.46,354.85
             248.15,359.80 260.40,366.55 267.00,380.00
             267.72,381.98 268.41,383.98 269.00,386.00
             274.03,381.24 277.51,377.32 278.11,370.17
             277.71,362.54 272.84,357.03 267.50,352.02
             258.66,344.88 245.61,339.95 236.10,348.76 Z
           M 223.00,363.00
           C 215.73,379.99 217.51,400.12 224.16,416.92
             225.05,418.97 226.01,420.99 227.00,423.00
             228.30,419.11 227.35,417.62 226.06,413.75
             222.91,403.40 223.64,392.70 224.00,382.00
             224.99,381.67 225.98,381.34 227.00,381.00
             227.26,381.74 227.51,382.48 227.77,383.25
             230.58,389.54 236.60,394.61 242.86,397.38
             248.25,398.94 253.21,398.65 258.44,396.75
             261.06,394.96 262.55,393.82 264.00,391.00
             264.25,387.83 264.25,387.83 264.00,385.00
             263.38,385.05 262.77,385.09 262.13,385.14
             255.60,385.42 250.53,384.63 245.00,381.00
             239.72,376.13 236.89,371.47 236.38,364.25
             236.30,363.27 236.23,362.28 236.15,361.27
             236.10,360.52 236.05,359.77 236.00,359.00
             234.78,358.92 233.57,358.83 232.31,358.75
             231.63,358.70 230.94,358.66 230.24,358.61
             226.88,359.20 225.37,360.58 223.00,363.00 Z
           M 240.00,361.00
           C 240.00,368.45 241.82,371.76 246.89,377.15
             250.47,380.29 253.00,381.26 257.75,381.12
             258.95,381.10 258.95,381.10 260.17,381.07
             260.78,381.05 261.38,381.02 262.00,381.00
             258.77,371.42 249.69,365.40 241.00,361.00
             240.67,361.00 240.34,361.00 240.00,361.00 Z
           M 200.25,368.62
           C 199.62,369.17 198.98,369.72 198.33,370.29
             197.10,371.35 195.88,372.43 194.67,373.52
             193.19,374.84 191.62,376.06 190.05,377.27
             189.37,377.84 188.70,378.41 188.00,379.00
             188.00,379.66 188.00,380.32 188.00,381.00
             200.60,386.72 200.60,386.72 214.00,386.00
             215.43,383.15 215.62,380.34 216.06,377.19
             216.24,375.96 216.42,374.74 216.60,373.48
             216.93,370.60 217.08,367.89 217.00,365.00
             209.41,362.16 206.08,363.23 200.25,368.62 Z
           M 227.00,391.00
           C 226.03,403.74 229.82,415.55 234.31,427.31
             234.57,428.04 234.83,428.76 235.10,429.50
             236.65,433.35 237.84,435.30 241.73,436.98
             242.81,437.32 243.89,437.65 245.00,438.00
             254.08,430.43 255.42,418.11 257.00,407.00
             257.04,405.33 257.06,403.67 257.00,402.00
             256.32,402.05 255.64,402.09 254.95,402.14
             245.48,402.51 238.61,400.54 231.44,394.25
             230.80,393.64 230.16,393.02 229.50,392.39
             228.22,390.89 228.22,390.89 227.00,391.00 Z
           M 258.00,422.00
           C 259.00,424.00 259.00,424.00 259.00,424.00
             259.00,424.00 258.00,422.00 258.00,422.00 Z
           M 228.00,423.00
           C 229.00,425.00 229.00,425.00 229.00,425.00
             229.00,425.00 228.00,423.00 228.00,423.00 Z
           M 257.00,425.00
           C 258.00,428.00 258.00,428.00 258.00,428.00
             258.00,428.00 257.00,425.00 257.00,425.00 Z
           M 256.00,428.00
           C 257.00,431.00 257.00,431.00 257.00,431.00
             257.00,431.00 256.00,428.00 256.00,428.00 Z
           M 255.00,431.00
           C 256.00,433.00 256.00,433.00 256.00,433.00
             256.00,433.00 255.00,431.00 255.00,431.00 Z
           M 254.00,433.00
           C 255.00,435.00 255.00,435.00 255.00,435.00
             255.00,435.00 254.00,433.00 254.00,433.00 Z
           M 253.00,435.00
           C 254.00,437.00 254.00,437.00 254.00,437.00
             254.00,437.00 253.00,435.00 253.00,435.00 Z
           M 242.00,442.00
           C 242.33,442.66 242.66,443.32 243.00,444.00
             245.37,444.33 245.37,444.33 248.00,444.00
             249.84,442.10 249.84,442.10 251.00,440.00
             247.85,440.00 245.01,441.11 242.00,442.00 Z" />
    />
  </g>
</svg>
