<svg
  xmlns="http://www.w3.org/2000/svg"
  viewBox="-64 -64 128 128"
  id="virus"
  class="pin"
>
  <g class="drop">
    <path
      fill="#9c27b0"
      transform="scale(0.25) translate(-192,-256)"
      d="M172.268 501.67C26.97 291.031 0 269.413 0 192 0 85.961 85.961 0 192 0s192 85.961 192 192c0 77.413-26.97 99.031-172.268 309.67-9.535 13.774-29.93 13.773-39.464 0z"
    />
    <path
      fill="#ffffff"
      transform="translate(0,-20) scale(0.3) translate(-100,-70)"
       d="M 62.00,26.00
           C 64.81,27.79 66.51,29.02 68.00,32.00
             67.90,33.38 67.79,34.76 67.66,36.14
             67.61,41.09 69.20,43.39 72.59,46.87
             73.22,47.47 73.85,48.07 74.50,48.69
             75.10,49.33 75.70,49.98 76.32,50.64
             78.15,52.45 79.71,53.83 82.00,55.00
             84.91,54.92 87.29,53.99 90.00,53.00
             96.22,52.71 101.04,54.31 106.00,58.00
             108.43,61.16 110.00,63.92 110.00,68.00
             113.56,67.98 117.12,67.90 120.69,67.81
             121.69,67.81 122.70,67.80 123.74,67.79
             129.91,67.66 129.91,67.66 135.08,64.51
             135.71,63.68 136.35,62.85 137.00,62.00
             140.50,60.25 144.28,61.17 148.00,62.00
             150.69,63.68 151.65,64.84 152.56,67.87
             153.20,71.39 153.22,73.47 151.81,76.81
             148.61,80.67 147.21,81.87 142.06,82.44
             137.97,82.29 135.88,80.96 133.00,78.00
             132.67,77.34 132.34,76.68 132.00,76.00
             121.11,75.50 121.11,75.50 110.00,75.00
             109.67,76.98 109.34,78.96 109.00,81.00
             106.17,85.35 102.99,87.90 98.12,89.69
             92.28,90.55 87.61,89.69 82.00,88.00
             73.54,94.88 73.54,94.88 68.09,103.91
             67.97,106.47 67.97,106.47 68.09,108.90
             68.00,111.00 68.00,111.00 65.56,114.06
             61.40,117.21 59.25,117.16 54.20,116.49
             52.00,116.00 52.00,116.00 49.50,114.44
             47.41,111.03 46.79,107.99 47.00,104.00
             48.55,100.33 50.42,97.79 54.00,96.00
             55.40,96.07 56.80,96.17 58.20,96.30
             62.92,96.35 65.14,95.04 68.52,91.83
             69.07,91.25 69.62,90.67 70.19,90.06
             70.76,89.47 71.34,88.87 71.93,88.26
             75.07,84.81 75.07,84.81 76.35,80.45
             75.80,78.23 75.80,78.23 74.84,76.12
             73.17,71.91 74.30,66.79 75.91,62.66
             76.02,59.49 75.53,59.02 73.54,56.67
             72.39,55.49 71.24,54.33 70.06,53.19
             69.50,52.59 68.95,51.99 68.37,51.38
             65.12,48.11 65.12,48.11 60.87,46.66
             58.91,46.69 56.95,46.84 55.00,47.00
             51.87,45.68 50.33,44.38 48.12,41.81
             46.57,37.93 46.58,34.95 48.00,31.00
             52.39,25.86 55.60,25.09 62.00,26.00 Z
           M 55.00,31.00
           C 53.33,32.69 53.33,32.69 52.00,35.00
             51.99,37.64 51.99,37.64 53.00,40.00
             55.76,42.30 55.76,42.30 58.56,41.75
             61.15,41.16 61.15,41.16 63.00,39.00
             62.68,35.40 62.68,35.40 62.00,32.00
             59.69,31.67 57.38,31.34 55.00,31.00 Z
           M 81.62,63.25
           C 79.59,66.69 79.07,69.00 79.00,73.00
             80.57,78.13 82.31,81.29 87.00,84.00
             91.16,85.25 94.13,85.30 98.25,83.88
             101.80,81.45 104.29,79.34 105.57,75.11
             106.44,70.24 105.85,67.19 103.00,63.00
             96.38,56.19 88.37,56.86 81.62,63.25 Z
           M 138.25,67.19
           C 136.56,69.64 136.56,71.08 137.00,74.00
             138.00,76.00 138.00,76.00 140.00,77.00
             143.08,77.00 143.08,77.00 146.00,76.00
             148.28,73.24 148.28,73.24 147.81,70.44
             147.17,67.67 147.17,67.67 144.00,66.00
             140.20,65.63 140.20,65.63 138.25,67.19 Z
           M 55.00,101.00
           C 53.33,102.69 53.33,102.69 52.00,105.00
             51.99,107.64 51.99,107.64 53.00,110.00
             55.76,112.30 55.76,112.30 58.56,111.75
             61.15,111.16 61.15,111.16 63.00,109.00
             62.68,105.40 62.68,105.40 62.00,102.00
             59.69,101.67 57.38,101.34 55.00,101.00 Z
           M 66.66,155.59
           C 69.30,155.57 71.94,155.55 74.58,155.52
             80.10,155.48 85.62,155.48 91.15,155.50
             97.49,155.52 103.83,155.45 110.17,155.34
             115.65,155.24 121.13,155.21 126.62,155.22
             129.88,155.23 133.13,155.21 136.39,155.14
             158.70,154.73 158.70,154.73 167.19,162.15
             169.71,164.67 172.03,167.30 174.29,170.06
             176.70,172.80 179.41,175.11 182.20,177.45
             185.73,180.49 185.73,180.49 187.00,182.00
             186.81,185.12 186.81,185.12 186.00,188.00
             183.12,189.44 180.63,189.13 177.40,189.14
             176.72,189.14 176.03,189.15 175.32,189.15
             173.02,189.16 170.71,189.16 168.40,189.16
             166.75,189.17 165.10,189.17 163.45,189.18
             158.96,189.19 154.46,189.20 149.97,189.20
             147.17,189.20 144.36,189.21 141.56,189.21
             132.79,189.23 124.03,189.24 115.26,189.24
             105.13,189.24 95.00,189.26 84.87,189.29
             77.05,189.31 69.22,189.32 61.40,189.32
             56.72,189.32 52.05,189.33 47.37,189.35
             42.97,189.36 38.58,189.37 34.18,189.36
             32.56,189.36 30.95,189.36 29.33,189.37
             27.13,189.38 24.93,189.38 22.73,189.37
             21.49,189.37 20.26,189.37 18.99,189.37
             16.00,189.00 16.00,189.00 14.07,187.63
             13.00,186.00 13.00,186.00 13.09,183.55
             14.14,180.61 15.30,179.26 17.56,177.12
             18.29,176.44 19.01,175.75 19.76,175.04
             22.41,172.63 25.06,170.23 27.83,167.97
             30.06,166.08 30.06,166.08 31.65,163.73
             40.25,153.23 54.30,155.58 66.66,155.59 Z
           M 30.00,179.00
           C 30.00,179.33 30.00,179.66 30.00,180.00
             76.20,180.00 122.40,180.00 170.00,180.00
             162.17,169.77 162.17,169.77 150.88,165.07
             148.93,165.01 146.98,164.99 145.03,165.00
             143.43,164.97 143.43,164.97 141.79,164.93
             138.26,164.87 134.74,164.86 131.21,164.86
             128.74,164.84 126.28,164.82 123.81,164.80
             118.65,164.76 113.48,164.75 108.31,164.76
             101.72,164.76 95.14,164.68 88.54,164.57
             83.45,164.50 78.36,164.49 73.26,164.49
             70.83,164.49 68.41,164.46 65.98,164.41
             49.85,164.12 40.02,165.63 30.00,179.00 Z
           M 22.72,10.75
           C 23.40,10.74 24.09,10.74 24.80,10.74
             27.10,10.73 29.41,10.73 31.71,10.74
             33.37,10.74 35.02,10.73 36.67,10.73
             41.15,10.72 45.64,10.73 50.13,10.73
             54.82,10.74 59.51,10.73 64.20,10.73
             72.08,10.72 79.96,10.73 87.84,10.74
             96.95,10.75 106.07,10.75 115.18,10.74
             123.00,10.73 130.82,10.73 138.64,10.73
             143.32,10.73 147.99,10.73 152.66,10.73
             157.05,10.72 161.45,10.73 165.84,10.74
             167.45,10.74 169.07,10.74 170.68,10.73
             172.88,10.73 175.08,10.74 177.28,10.75
             178.51,10.75 179.75,10.75 181.02,10.75
             184.00,11.00 184.00,11.00 187.00,13.00
             187.37,15.05 187.37,15.05 187.37,17.63
             187.38,18.61 187.39,19.58 187.40,20.59
             187.39,21.66 187.38,22.74 187.37,23.84
             187.38,24.97 187.38,26.10 187.38,27.26
             187.39,31.01 187.38,34.75 187.36,38.50
             187.36,41.09 187.36,43.69 187.36,46.28
             187.36,51.72 187.35,57.16 187.34,62.60
             187.32,68.90 187.31,75.19 187.32,81.49
             187.32,87.54 187.32,93.59 187.31,99.64
             187.30,102.21 187.30,104.79 187.30,107.37
             187.30,110.96 187.29,114.56 187.27,118.16
             187.28,119.23 187.28,120.30 187.28,121.41
             187.28,122.39 187.27,123.36 187.26,124.37
             187.26,125.65 187.26,125.65 187.25,126.95
             187.00,129.00 187.00,129.00 185.00,131.00
             182.52,131.24 182.52,131.24 179.36,131.23
             178.18,131.23 176.99,131.23 175.78,131.23
             174.50,131.22 173.22,131.21 171.90,131.20
             169.94,131.19 169.94,131.19 167.94,131.19
             164.46,131.18 160.99,131.16 157.51,131.14
             153.97,131.12 150.42,131.11 146.87,131.10
             139.92,131.08 132.96,131.04 126.00,131.00
             126.13,132.61 126.27,134.23 126.41,135.84
             126.52,137.19 126.52,137.19 126.64,138.56
             127.08,141.57 128.04,143.12 130.12,145.31
             133.01,148.71 133.01,148.71 132.94,151.94
             132.00,154.00 132.00,154.00 131.00,155.00
             129.08,155.10 127.15,155.14 125.23,155.15
             123.37,155.15 123.37,155.15 121.49,155.16
             120.13,155.17 118.77,155.17 117.41,155.17
             116.03,155.17 114.64,155.17 113.26,155.18
             110.35,155.18 107.45,155.19 104.55,155.19
             100.82,155.19 97.09,155.20 93.36,155.22
             90.50,155.23 87.65,155.23 84.79,155.23
             83.41,155.23 82.04,155.23 80.66,155.24
             78.74,155.25 76.82,155.25 74.90,155.24
             73.26,155.25 73.26,155.25 71.59,155.25
             69.00,155.00 69.00,155.00 67.00,153.00
             67.10,149.42 68.32,147.49 70.50,144.81
             72.82,141.79 73.38,139.55 73.66,135.76
             73.73,134.87 73.80,133.97 73.87,133.05
             73.93,132.04 73.93,132.04 74.00,131.00
             73.27,131.00 72.53,131.01 71.77,131.01
             64.86,131.05 57.94,131.08 51.03,131.10
             47.47,131.11 43.91,131.13 40.36,131.15
             36.27,131.18 32.19,131.19 28.10,131.20
             26.82,131.21 25.54,131.22 24.22,131.23
             22.45,131.23 22.45,131.23 20.64,131.23
             19.60,131.23 18.56,131.24 17.48,131.24
             15.00,131.00 15.00,131.00 13.00,129.00
             12.75,126.95 12.75,126.95 12.74,124.37
             12.73,123.39 12.73,122.42 12.72,121.41
             12.72,120.34 12.72,119.26 12.73,118.16
             12.72,117.03 12.72,115.90 12.71,114.74
             12.70,110.99 12.70,107.25 12.70,103.50
             12.70,100.91 12.69,98.31 12.69,95.72
             12.68,90.28 12.68,84.84 12.68,79.40
             12.69,73.10 12.68,66.81 12.66,60.51
             12.64,54.46 12.63,48.41 12.64,42.36
             12.64,39.79 12.63,37.21 12.62,34.63
             12.61,31.04 12.62,27.44 12.63,23.84
             12.62,22.77 12.61,21.70 12.60,20.59
             12.61,19.61 12.62,18.64 12.63,17.63
             12.63,16.78 12.63,15.93 12.63,15.05
             12.75,14.37 12.87,13.70 13.00,13.00
             16.65,10.57 18.37,10.75 22.72,10.75 Z
           M 22.00,20.00
           C 22.00,53.66 22.00,87.32 22.00,122.00
             73.48,122.00 124.96,122.00 178.00,122.00
             178.00,88.34 178.00,54.68 178.00,20.00
             126.52,20.00 75.04,20.00 22.00,20.00 Z
           M 81.00,131.00
           C 81.00,133.97 81.00,136.94 81.00,140.00
             93.54,140.00 106.08,140.00 119.00,140.00
             119.00,137.03 119.00,134.06 119.00,131.00
             106.46,131.00 93.92,131.00 81.00,131.00 Z
           M 77.00,148.00
           C 91.85,148.00 106.70,148.00 122.00,148.00
             121.34,146.35 120.68,144.70 120.00,143.00
             114.36,142.88 108.72,142.79 103.07,142.73
             101.16,142.70 99.24,142.67 97.32,142.62
             94.56,142.56 91.80,142.53 89.04,142.51
             87.75,142.47 87.75,142.47 86.44,142.43
             85.24,142.43 85.24,142.43 84.01,142.43
             83.31,142.42 82.60,142.41 81.88,142.40
             79.24,143.01 79.24,143.01 77.00,148.00 Z" />
    />
  </g>
</svg>
